# Blender 4.1.1
# www.blender.org
mtllib @border.mtl
o @border
v 0.000000 0.000000 -41.400002
v -8.076739 0.000000 -40.604507
v -15.843096 0.000000 -38.248611
v -23.000607 0.000000 -34.422840
v -29.274221 0.000000 -29.274221
v -34.422840 0.000000 -23.000607
v -38.248611 0.000000 -15.843096
v -40.604507 0.000000 -8.076739
v -41.400002 0.000000 0.000000
v -40.604507 0.000000 8.076739
v -38.248611 0.000000 15.843096
v -34.422840 0.000000 23.000607
v -29.274221 0.000000 29.274221
v -23.000607 0.000000 34.422840
v -15.843096 0.000000 38.248611
v -8.076739 0.000000 40.604507
v 0.000000 0.000000 41.400002
v 8.076739 0.000000 40.604507
v 15.843096 0.000000 38.248611
v 23.000607 0.000000 34.422840
v 29.274221 0.000000 29.274221
v 34.422840 0.000000 23.000607
v 38.248611 0.000000 15.843096
v 40.604507 0.000000 8.076739
v 41.400002 0.000000 0.000000
v 40.604507 0.000000 -8.076739
v 38.248611 0.000000 -15.843096
v 34.422840 0.000000 -23.000607
v 29.274221 0.000000 -29.274221
v 23.000607 0.000000 -34.422840
v 15.843096 0.000000 -38.248611
v 8.076739 0.000000 -40.604507
v 0.000000 7.124835 -41.400002
v -8.076739 7.124835 -40.604507
v -15.843096 7.124835 -38.248611
v -23.000607 7.124835 -34.422840
v -29.274221 7.124835 -29.274221
v -34.422840 7.124835 -23.000607
v -38.248611 7.124835 -15.843096
v -40.604507 7.124835 -8.076739
v -41.400002 7.124835 0.000000
v -40.604507 7.124835 8.076739
v -38.248611 7.124835 15.843096
v -34.422840 7.124835 23.000607
v -29.274221 7.124835 29.274221
v -23.000607 7.124835 34.422840
v -15.843096 7.124835 38.248611
v -8.076739 7.124835 40.604507
v 0.000000 7.124835 41.400002
v 8.076739 7.124835 40.604507
v 15.843096 7.124835 38.248611
v 23.000607 7.124835 34.422840
v 29.274221 7.124835 29.274221
v 34.422840 7.124835 23.000607
v 38.248611 7.124835 15.843096
v 40.604507 7.124835 8.076739
v 41.400002 7.124835 0.000000
v 40.604507 7.124835 -8.076739
v 38.248611 7.124835 -15.843096
v 34.422840 7.124835 -23.000607
v 29.274221 7.124835 -29.274221
v 23.000607 7.124835 -34.422840
v 15.843096 7.124835 -38.248611
v 8.076739 7.124835 -40.604507
vn 0.4714 -0.0000 -0.8819
vn 0.0980 -0.0000 0.9952
vn -0.7730 -0.0000 0.6344
vn 0.2903 -0.0000 -0.9569
vn 0.2903 -0.0000 0.9569
vn -0.6344 -0.0000 0.7730
vn 0.0980 -0.0000 -0.9952
vn 0.4714 -0.0000 0.8819
vn -0.4714 -0.0000 0.8819
vn -0.0980 -0.0000 -0.9952
vn 0.6344 -0.0000 0.7730
vn -0.2903 -0.0000 0.9569
vn -0.2903 -0.0000 -0.9569
vn 0.7730 -0.0000 0.6344
vn -0.0980 -0.0000 0.9952
vn -0.4714 -0.0000 -0.8819
vn 0.8819 -0.0000 0.4714
vn -0.6344 -0.0000 -0.7730
vn 0.9569 -0.0000 0.2903
vn -0.7730 -0.0000 -0.6344
vn 0.9952 -0.0000 0.0980
vn -0.8819 -0.0000 -0.4714
vn 0.9952 -0.0000 -0.0980
vn -0.9569 -0.0000 -0.2903
vn 0.9569 -0.0000 -0.2903
vn -0.9952 -0.0000 -0.0980
vn 0.8819 -0.0000 -0.4714
vn -0.9952 -0.0000 0.0980
vn 0.7730 -0.0000 -0.6344
vn -0.9569 -0.0000 0.2903
vn 0.6344 -0.0000 -0.7730
vn -0.8819 -0.0000 0.4714
vt 0.000000 0.000000
s 0
usemtl Material.002
f 14/1/1 47/1/1 15/1/1
f 1/1/2 34/1/2 2/1/2
f 28/1/3 61/1/3 29/1/3
f 15/1/4 48/1/4 16/1/4
f 2/1/5 35/1/5 3/1/5
f 29/1/6 62/1/6 30/1/6
f 16/1/7 49/1/7 17/1/7
f 3/1/8 36/1/8 4/1/8
f 30/1/9 63/1/9 31/1/9
f 17/1/10 50/1/10 18/1/10
f 4/1/11 37/1/11 5/1/11
f 31/1/12 64/1/12 32/1/12
f 18/1/13 51/1/13 19/1/13
f 5/1/14 38/1/14 6/1/14
f 32/1/15 33/1/15 1/1/15
f 19/1/16 52/1/16 20/1/16
f 6/1/17 39/1/17 7/1/17
f 20/1/18 53/1/18 21/1/18
f 7/1/19 40/1/19 8/1/19
f 21/1/20 54/1/20 22/1/20
f 8/1/21 41/1/21 9/1/21
f 22/1/22 55/1/22 23/1/22
f 9/1/23 42/1/23 10/1/23
f 23/1/24 56/1/24 24/1/24
f 10/1/25 43/1/25 11/1/25
f 24/1/26 57/1/26 25/1/26
f 11/1/27 44/1/27 12/1/27
f 25/1/28 58/1/28 26/1/28
f 12/1/29 45/1/29 13/1/29
f 26/1/30 59/1/30 27/1/30
f 13/1/31 46/1/31 14/1/31
f 27/1/32 60/1/32 28/1/32
f 14/1/1 46/1/1 47/1/1
f 1/1/2 33/1/2 34/1/2
f 28/1/3 60/1/3 61/1/3
f 15/1/4 47/1/4 48/1/4
f 2/1/5 34/1/5 35/1/5
f 29/1/6 61/1/6 62/1/6
f 16/1/7 48/1/7 49/1/7
f 3/1/8 35/1/8 36/1/8
f 30/1/9 62/1/9 63/1/9
f 17/1/10 49/1/10 50/1/10
f 4/1/11 36/1/11 37/1/11
f 31/1/12 63/1/12 64/1/12
f 18/1/13 50/1/13 51/1/13
f 5/1/14 37/1/14 38/1/14
f 32/1/15 64/1/15 33/1/15
f 19/1/16 51/1/16 52/1/16
f 6/1/17 38/1/17 39/1/17
f 20/1/18 52/1/18 53/1/18
f 7/1/19 39/1/19 40/1/19
f 21/1/20 53/1/20 54/1/20
f 8/1/21 40/1/21 41/1/21
f 22/1/22 54/1/22 55/1/22
f 9/1/23 41/1/23 42/1/23
f 23/1/24 55/1/24 56/1/24
f 10/1/25 42/1/25 43/1/25
f 24/1/26 56/1/26 57/1/26
f 11/1/27 43/1/27 44/1/27
f 25/1/28 57/1/28 58/1/28
f 12/1/29 44/1/29 45/1/29
f 26/1/30 58/1/30 59/1/30
f 13/1/31 45/1/31 46/1/31
f 27/1/32 59/1/32 60/1/32
