# Blender 4.1.1
# www.blender.org
mtllib balcony-floor.mtl
o balcony-floor
v 0.500000 0.000000 0.250000
v 0.500000 -0.000000 -0.350000
v 0.470711 0.000000 0.320711
v -0.500000 -0.000000 -0.350000
v 0.400000 0.000000 0.350000
v -0.400000 0.000000 0.350000
v -0.470711 0.000000 0.320711
v -0.500000 0.000000 0.250000
v -0.500000 0.150000 -0.350000
v -0.500000 0.150000 0.250000
v -0.300000 0.150000 -0.350000
v -0.300000 0.100000 -0.350000
v 0.300000 0.100000 -0.350000
v 0.500000 0.150000 -0.350000
v 0.300000 0.150000 -0.350000
v -0.300000 0.150000 0.150000
v -0.300000 0.100000 0.150000
v 0.300000 0.100000 0.150000
v 0.300000 0.150000 0.150000
v 0.400000 0.150000 0.350000
v -0.400000 0.150000 0.350000
v 0.500000 0.150000 0.250000
v -0.470711 0.150000 0.320711
v 0.470711 0.150000 0.320711
vn -0.0000 -1.0000 -0.0000
vn -0.9808 -0.0000 0.1950
vn -1.0000 -0.0000 -0.0000
vn -0.0000 -0.0000 -1.0000
vn 1.0000 -0.0000 -0.0000
vn 0.1950 -0.0000 0.9808
vn -0.1950 -0.0000 0.9808
vn 0.9808 -0.0000 0.1950
vn -0.0000 1.0000 -0.0000
vn -0.1951 -0.0000 0.9808
vn -0.7071 -0.0000 0.7071
vn 0.7071 -0.0000 0.7071
vn 0.9808 -0.0000 0.1951
vn 0.1951 -0.0001 0.9808
vn 0.1951 -0.0000 0.9808
vn -0.9808 -0.0000 0.1951
vt 0.218750 0.025000
vt 0.218750 0.225000
vt 0.218750 0.158333
vt 0.343750 0.225000
s 0
usemtl colormap
f 3/1/1 2/1/1 1/1/1
f 2/1/1 3/1/1 4/1/1
f 4/1/1 3/1/1 5/1/1
f 4/1/1 5/1/1 6/1/1
f 4/1/1 6/1/1 7/1/1
f 4/1/1 7/1/1 8/1/1
f 8/1/2 9/2/3 4/1/3
f 9/2/3 8/1/2 10/2/2
f 12/3/4 9/2/4 11/2/4
f 12/3/4 4/1/4 9/2/4
f 4/1/4 12/3/4 2/1/4
f 13/3/4 2/1/4 12/3/4
f 2/1/4 13/3/4 14/2/4
f 14/2/4 13/3/4 15/2/4
f 16/2/5 12/3/5 11/2/5
f 12/3/5 16/2/5 17/3/5
f 16/2/4 18/3/4 17/3/4
f 18/3/4 16/2/4 19/2/4
f 18/3/3 15/2/3 13/3/3
f 15/2/3 18/3/3 19/2/3
f 20/2/6 6/1/7 5/1/6
f 6/1/7 20/2/6 21/2/7
f 22/2/8 2/1/5 14/2/5
f 2/1/5 22/2/8 1/1/8
f 12/3/9 18/3/9 13/3/9
f 18/3/9 12/3/9 17/3/9
f 6/1/10 23/2/11 7/1/11
f 23/2/11 6/1/10 21/2/10
f 24/2/12 1/1/13 22/2/13
f 1/1/13 24/2/12 3/1/12
f 24/2/12 5/1/14 3/1/12
f 5/1/15 24/2/12 20/2/15
f 7/1/11 10/2/16 8/1/16
f 10/2/16 7/1/11 23/2/11
f 9/4/9 16/4/9 11/4/9
f 16/4/9 9/4/9 21/4/9
f 21/4/9 19/4/9 16/4/9
f 21/4/9 9/4/9 23/4/9
f 23/4/9 9/4/9 10/4/9
f 20/4/9 19/4/9 21/4/9
f 20/4/9 15/4/9 19/4/9
f 24/4/9 15/4/9 20/4/9
f 22/4/9 15/4/9 24/4/9
f 15/4/9 22/4/9 14/4/9
f 3/1/1 2/1/1 1/1/1
f 2/1/1 3/1/1 4/1/1
f 4/1/1 3/1/1 5/1/1
f 4/1/1 5/1/1 6/1/1
f 4/1/1 6/1/1 7/1/1
f 4/1/1 7/1/1 8/1/1
f 8/1/2 9/2/3 4/1/3
f 9/2/3 8/1/2 10/2/2
f 12/3/4 9/2/4 11/2/4
f 12/3/4 4/1/4 9/2/4
f 4/1/4 12/3/4 2/1/4
f 13/3/4 2/1/4 12/3/4
f 2/1/4 13/3/4 14/2/4
f 14/2/4 13/3/4 15/2/4
f 16/2/5 12/3/5 11/2/5
f 12/3/5 16/2/5 17/3/5
f 16/2/4 18/3/4 17/3/4
f 18/3/4 16/2/4 19/2/4
f 18/3/3 15/2/3 13/3/3
f 15/2/3 18/3/3 19/2/3
f 20/2/6 6/1/7 5/1/6
f 6/1/7 20/2/6 21/2/7
f 22/2/8 2/1/5 14/2/5
f 2/1/5 22/2/8 1/1/8
f 12/3/9 18/3/9 13/3/9
f 18/3/9 12/3/9 17/3/9
f 6/1/10 23/2/11 7/1/11
f 23/2/11 6/1/10 21/2/10
f 24/2/12 1/1/13 22/2/13
f 1/1/13 24/2/12 3/1/12
f 24/2/12 5/1/14 3/1/12
f 5/1/15 24/2/12 20/2/15
f 7/1/11 10/2/16 8/1/16
f 10/2/16 7/1/11 23/2/11
f 9/4/9 16/4/9 11/4/9
f 16/4/9 9/4/9 21/4/9
f 21/4/9 19/4/9 16/4/9
f 21/4/9 9/4/9 23/4/9
f 23/4/9 9/4/9 10/4/9
f 20/4/9 19/4/9 21/4/9
f 20/4/9 15/4/9 19/4/9
f 24/4/9 15/4/9 20/4/9
f 22/4/9 15/4/9 24/4/9
f 15/4/9 22/4/9 14/4/9
