# Blender 4.1.1
# www.blender.org
mtllib path_tilesShort.002.mtl
o path_tilesShort.002
v -0.160434 -0.969787 -0.000000
v -0.160434 -0.969787 -0.005000
v -0.300434 -0.969787 -0.000000
v -0.300434 -0.969787 -0.005000
v -0.300434 -0.964787 -0.005000
v -0.160434 -0.964787 -0.005000
v -0.300434 -0.964787 -0.010000
v -0.160434 -0.964787 -0.010000
v -0.300434 -0.769787 -0.000000
v -0.300434 -0.874787 -0.005000
v -0.300434 -0.864787 -0.005000
v -0.300434 -0.864787 -0.010000
v -0.300434 -0.774787 -0.005000
v -0.300434 -0.769787 -0.005000
v -0.300434 -0.774787 -0.010000
v -0.300434 -0.874787 -0.010000
v -0.160434 -0.874787 -0.010000
v -0.160434 -0.874787 -0.005000
v -0.160434 -0.769787 -0.000000
v -0.160434 -0.864787 -0.005000
v -0.160434 -0.774787 -0.005000
v -0.160434 -0.774787 -0.010000
v -0.160434 -0.864787 -0.010000
v -0.160434 -0.769787 -0.005000
vn -0.0000 -1.0000 -0.0000
vn -1.0000 -0.0000 -0.0000
vn -1.0000 -0.0000 -0.0001
vn 1.0000 -0.0000 -0.0000
vn -0.0000 1.0000 -0.0000
vn -0.0000 -0.0000 -1.0000
vn -0.0000 -0.0000 1.0000
vt 2.755906 0.000000
vt -2.755906 0.196850
vt -2.755906 0.000000
vt 2.755906 0.196850
vt 2.755906 0.393701
vt -2.755906 0.393701
vt 3.937008 0.000000
vt -3.937008 0.196850
vt -3.937008 0.000000
vt -3.740157 0.196850
vt -0.196850 0.196850
vt -3.740157 0.393701
vt 0.196850 0.196850
vt 0.196850 0.393701
vt 3.740157 0.196850
vt 3.937008 0.196850
vt 3.740157 0.393701
vt -0.196850 0.393701
vt -3.937008 0.000000
vt 3.937008 0.000000
vt -2.755906 3.740157
vt 2.755906 3.740157
vt 2.755906 -3.937008
vt -2.755906 -3.740157
vt -2.755906 -3.937008
vt 2.755906 -3.740157
vt -2.755906 -0.196850
vt 2.755906 -0.196850
vt -2.755906 -0.000000
vt 2.755906 -0.000000
vt -2.755906 3.937008
vt 2.755906 3.937008
s 0
usemtl pavement.002
f 3/1/1 2/2/1 1/3/1
f 2/2/1 3/1/1 4/4/1
f 7/5/1 6/2/1 5/4/1
f 6/2/1 7/5/1 8/6/1
f 9/7/2 4/8/2 3/9/2
f 4/8/2 9/7/2 5/10/2
f 5/10/2 9/7/2 10/11/2
f 5/10/2 10/11/2 7/12/2
f 10/11/3 9/7/3 11/13/3
f 11/13/2 9/7/2 12/14/2
f 12/14/2 9/7/2 13/15/2
f 13/15/2 9/7/2 14/16/2
f 15/17/2 12/14/2 13/15/2
f 16/18/2 7/12/2 10/11/2
f 17/14/4 6/15/4 8/17/4
f 18/13/4 6/15/4 17/14/4
f 19/19/4 6/15/4 18/13/4
f 1/20/4 6/15/4 19/19/4
f 6/15/4 1/20/4 2/16/4
f 19/19/4 18/13/4 20/11/4
f 19/19/4 20/11/4 21/10/4
f 21/10/4 20/11/4 22/12/4
f 22/12/4 20/11/4 23/18/4
f 19/19/4 21/10/4 24/8/4
f 17/5/5 10/2/5 18/4/5
f 10/2/5 17/5/5 16/6/5
f 12/4/6 22/21/6 23/2/6
f 22/21/6 12/4/6 15/22/6
f 4/23/6 6/24/6 2/25/6
f 6/24/6 4/23/6 5/26/6
f 22/5/5 13/2/5 21/4/5
f 13/2/5 22/5/5 15/6/5
f 7/26/6 17/27/6 8/24/6
f 17/27/6 7/26/6 16/28/6
f 10/28/6 20/2/6 18/27/6
f 20/2/6 10/28/6 11/4/6
f 24/4/5 9/29/5 19/30/5
f 9/29/5 24/4/5 14/2/5
f 13/22/6 24/31/6 21/21/6
f 24/31/6 13/22/6 14/32/6
f 12/5/1 20/2/1 11/4/1
f 20/2/1 12/5/1 23/6/1
usemtl _defaultMat.003
f 9/2/7 1/5/7 19/6/7
f 1/2/7 9/5/7 3/6/7
