# Blender 4.1.1
# www.blender.org
mtllib stairs.017.mtl
o stairs.013
v 3.500000 0.166667 4.833333
v 4.500000 0.166667 4.833332
v 3.500000 0.333333 4.833333
v 4.500000 0.333333 4.833332
v 3.500000 0.500000 5.499999
v 3.500000 -0.000000 5.499999
v 3.500000 0.500000 5.166666
v 3.500000 0.333333 5.166666
v 3.500000 0.000000 4.499999
v 3.500000 0.166667 4.499999
v 4.500000 0.000000 4.499999
v 4.200000 0.066667 4.499999
v 4.100000 0.166667 4.499999
v 4.500000 0.166667 4.499999
v 4.300000 0.166667 4.499999
v 4.500000 -0.000000 5.499999
v 4.500000 0.500000 5.499999
v 4.500000 0.333333 5.166666
v 4.500000 0.500000 5.166666
v 3.600000 0.500000 5.166666
v 3.700000 0.400000 5.166666
v 3.800000 0.500000 5.166666
v 4.200000 0.166667 4.599999
v 3.700000 0.500000 5.266666
vn -0.0000 -0.0000 -1.0000
vn -1.0000 -0.0000 -0.0000
vn -0.0000 -0.0000 1.0000
vn -0.0000 -1.0000 -0.0000
vn 1.0000 -0.0000 -0.0000
vn 0.8605 -0.5055 0.0629
vn 0.4773 -0.8720 0.1085
vn 0.7071 -0.7017 0.0873
vn -0.0001 0.7071 -0.7071
vn 0.5773 0.5773 -0.5774
vn -0.0000 0.7071 -0.7071
vn -0.5774 0.5774 -0.5773
vn -0.5773 0.5773 -0.5774
vn 0.0001 0.7071 -0.7071
vn -0.0000 1.0000 -0.0000
vt 0.968750 0.158333
vt 0.968750 0.091667
vt 0.968750 0.225000
vt 0.968750 0.025000
vt 0.968750 0.051667
vt 0.968750 0.185000
vt 0.093750 0.051667
vt 0.093750 0.091667
vt 0.093750 0.225000
vt 0.093750 0.185000
vt 0.093750 0.158333
s 0
usemtl colormap.002
f 3/1/1 2/2/1 1/2/1
f 2/2/1 3/1/1 4/1/1
f 7/3/2 6/4/2 5/3/2
f 6/4/2 7/3/2 8/1/2
f 6/4/2 8/1/2 1/2/2
f 1/2/2 8/1/2 3/1/2
f 6/4/2 1/2/2 9/4/2
f 9/4/2 1/2/2 10/2/2
f 10/2/1 11/4/1 9/4/1
f 11/4/1 10/2/1 12/5/1
f 12/5/1 10/2/1 13/2/1
f 12/5/1 14/2/1 11/4/1
f 14/2/1 12/5/1 15/2/1
f 17/3/3 6/4/3 16/4/3
f 6/4/3 17/3/3 5/3/3
f 9/4/4 16/4/4 6/4/4
f 16/4/4 9/4/4 11/4/4
f 2/2/5 11/4/5 14/2/5
f 2/2/5 16/4/5 11/4/5
f 16/4/5 2/2/5 17/3/5
f 17/3/6 2/2/7 18/1/8
f 4/1/5 18/1/5 2/2/5
f 19/3/5 17/3/5 18/1/5
f 21/6/1 7/3/1 20/3/1
f 21/6/1 8/1/1 7/3/1
f 8/1/1 21/6/1 18/1/1
f 21/6/1 19/3/1 18/1/1
f 19/3/1 21/6/1 22/3/1
f 12/7/9 13/8/10 23/8/11
f 22/9/12 21/10/11 24/9/11
f 24/9/11 21/10/9 20/9/10
f 23/8/11 15/8/13 12/7/14
f 7/9/15 24/9/15 20/9/15
f 5/9/15 24/9/15 7/9/15
f 24/9/15 5/9/15 17/9/15
f 24/9/15 17/9/15 22/9/15
f 22/9/15 17/9/15 19/9/15
f 2/8/15 10/8/15 1/8/15
f 10/8/15 2/8/15 23/8/15
f 10/8/15 23/8/15 13/8/15
f 23/8/15 2/8/15 15/8/15
f 15/8/15 2/8/15 14/8/15
f 18/11/15 3/11/15 8/11/15
f 3/11/15 18/11/15 4/11/15
f 3/1/1 2/2/1 1/2/1
f 2/2/1 3/1/1 4/1/1
f 7/3/2 6/4/2 5/3/2
f 6/4/2 7/3/2 8/1/2
f 6/4/2 8/1/2 1/2/2
f 1/2/2 8/1/2 3/1/2
f 6/4/2 1/2/2 9/4/2
f 9/4/2 1/2/2 10/2/2
f 10/2/1 11/4/1 9/4/1
f 11/4/1 10/2/1 12/5/1
f 12/5/1 10/2/1 13/2/1
f 12/5/1 14/2/1 11/4/1
f 14/2/1 12/5/1 15/2/1
f 17/3/3 6/4/3 16/4/3
f 6/4/3 17/3/3 5/3/3
f 9/4/4 16/4/4 6/4/4
f 16/4/4 9/4/4 11/4/4
f 2/2/5 11/4/5 14/2/5
f 2/2/5 16/4/5 11/4/5
f 16/4/5 2/2/5 17/3/5
f 17/3/6 2/2/7 18/1/8
f 4/1/5 18/1/5 2/2/5
f 19/3/5 17/3/5 18/1/5
f 21/6/1 7/3/1 20/3/1
f 21/6/1 8/1/1 7/3/1
f 8/1/1 21/6/1 18/1/1
f 21/6/1 19/3/1 18/1/1
f 19/3/1 21/6/1 22/3/1
f 12/7/9 13/8/10 23/8/11
f 22/9/12 21/10/11 24/9/11
f 24/9/11 21/10/9 20/9/10
f 23/8/11 15/8/13 12/7/14
f 7/9/15 24/9/15 20/9/15
f 5/9/15 24/9/15 7/9/15
f 24/9/15 5/9/15 17/9/15
f 24/9/15 17/9/15 22/9/15
f 22/9/15 17/9/15 19/9/15
f 2/8/15 10/8/15 1/8/15
f 10/8/15 2/8/15 23/8/15
f 10/8/15 23/8/15 13/8/15
f 23/8/15 2/8/15 15/8/15
f 15/8/15 2/8/15 14/8/15
f 18/11/15 3/11/15 8/11/15
f 3/11/15 18/11/15 4/11/15
