# Blender 4.1.1
# www.blender.org
mtllib @border.012.mtl
o @border.013
v 18.417999 -61.000000 -53.548908
v 22.051281 -61.000000 -55.022346
v 25.902205 -61.000000 -55.758659
v 29.822781 -61.000000 -55.729546
v 33.662350 -61.000000 -54.936127
v 37.273346 -61.000000 -53.408882
v 40.517014 -61.000000 -51.206520
v 43.268692 -61.000000 -48.413666
v 45.422642 -61.000000 -45.137653
v 46.896084 -61.000000 -41.504368
v 47.632397 -61.000000 -37.653442
v 47.603283 -61.000000 -33.732864
v 46.809860 -61.000000 -29.893299
v 45.282619 -61.000000 -26.282303
v 43.080257 -61.000000 -23.038635
v 40.287403 -61.000000 -20.286957
v 37.011383 -61.000000 -18.133003
v 33.378101 -61.000000 -16.659565
v 29.527176 -61.000000 -15.923252
v 25.606602 -61.000000 -15.952366
v 21.767035 -61.000000 -16.745789
v 18.156036 -61.000000 -18.273026
v 14.912371 -61.000000 -20.475389
v 12.160688 -61.000000 -23.268246
v 10.006741 -61.000000 -26.544260
v 8.533298 -61.000000 -30.177544
v 7.796988 -61.000000 -34.028469
v 7.826101 -61.000000 -37.949043
v 8.619523 -61.000000 -41.788609
v 10.146761 -61.000000 -45.399609
v 12.349125 -61.000000 -48.643272
v 15.141981 -61.000000 -51.394955
v 27.714691 139.000000 -35.840954
vn -0.3740 0.0990 -0.9221
vn -0.1869 0.0990 -0.9774
vn 0.0074 0.0990 -0.9951
vn 0.2014 0.0990 -0.9745
vn 0.3876 0.0990 -0.9165
vn 0.5590 0.0990 -0.8233
vn 0.7088 0.0990 -0.6984
vn 0.8315 0.0990 -0.5467
vn 0.9221 0.0990 -0.3740
vn 0.9774 0.0990 -0.1869
vn 0.9951 0.0990 0.0074
vn 0.9745 0.0990 0.2014
vn 0.9165 0.0990 0.3876
vn 0.8233 0.0990 0.5590
vn 0.6984 0.0990 0.7088
vn 0.5467 0.0990 0.8315
vn 0.3740 0.0990 0.9221
vn 0.1869 0.0990 0.9774
vn -0.0074 0.0990 0.9951
vn -0.2014 0.0990 0.9745
vn -0.3876 0.0990 0.9165
vn -0.5590 0.0990 0.8233
vn -0.7088 0.0990 0.6984
vn -0.8315 0.0990 0.5467
vn -0.9221 0.0990 0.3740
vn -0.9774 0.0990 0.1869
vn -0.9951 0.0990 -0.0074
vn -0.9745 0.0990 -0.2014
vn -0.9165 0.0990 -0.3876
vn -0.8233 0.0990 -0.5590
vn -0.0000 -1.0000 -0.0000
vn -0.6984 0.0990 -0.7088
vn -0.5467 0.0990 -0.8315
vt 0.250000 0.490000
vt 0.250000 0.250000
vt 0.296822 0.485388
vt 0.341844 0.471731
vt 0.383337 0.449553
vt 0.419706 0.419706
vt 0.449553 0.383337
vt 0.471731 0.341844
vt 0.485388 0.296822
vt 0.490000 0.250000
vt 0.485388 0.203178
vt 0.471731 0.158156
vt 0.449553 0.116663
vt 0.419706 0.080294
vt 0.383337 0.050447
vt 0.341844 0.028269
vt 0.296822 0.014612
vt 0.250000 0.010000
vt 0.203178 0.014612
vt 0.158156 0.028269
vt 0.116663 0.050447
vt 0.080294 0.080294
vt 0.050447 0.116663
vt 0.028269 0.158156
vt 0.014612 0.203178
vt 0.010000 0.250000
vt 0.014612 0.296822
vt 0.028269 0.341844
vt 0.050447 0.383337
vt 0.080294 0.419706
vt 0.116663 0.449553
vt 0.158156 0.471731
vt 0.796822 0.014612
vt 0.514612 0.203178
vt 0.703178 0.485388
vt 0.203178 0.485388
vt 0.750000 0.490000
vt 0.796822 0.485388
vt 0.841844 0.471731
vt 0.883337 0.449553
vt 0.919706 0.419706
vt 0.949553 0.383337
vt 0.971731 0.341844
vt 0.985388 0.296822
vt 0.990000 0.250000
vt 0.985388 0.203178
vt 0.971731 0.158156
vt 0.949553 0.116663
vt 0.919706 0.080294
vt 0.883337 0.050447
vt 0.841844 0.028269
vt 0.750000 0.010000
vt 0.703178 0.014612
vt 0.658156 0.028269
vt 0.616663 0.050447
vt 0.580294 0.080294
vt 0.550447 0.116663
vt 0.528269 0.158156
vt 0.510000 0.250000
vt 0.514612 0.296822
vt 0.528269 0.341844
vt 0.550447 0.383337
vt 0.580294 0.419706
vt 0.616663 0.449553
vt 0.658156 0.471731
s 0
usemtl Material.001
f 1/1/1 33/2/1 2/3/1
f 2/3/2 33/2/2 3/4/2
f 3/4/3 33/2/3 4/5/3
f 4/5/4 33/2/4 5/6/4
f 5/6/5 33/2/5 6/7/5
f 6/7/6 33/2/6 7/8/6
f 7/8/7 33/2/7 8/9/7
f 8/9/8 33/2/8 9/10/8
f 9/10/9 33/2/9 10/11/9
f 10/11/10 33/2/10 11/12/10
f 11/12/11 33/2/11 12/13/11
f 12/13/12 33/2/12 13/14/12
f 13/14/13 33/2/13 14/15/13
f 14/15/14 33/2/14 15/16/14
f 15/16/15 33/2/15 16/17/15
f 16/17/16 33/2/16 17/18/16
f 17/18/17 33/2/17 18/19/17
f 18/19/18 33/2/18 19/20/18
f 19/20/19 33/2/19 20/21/19
f 20/21/20 33/2/20 21/22/20
f 21/22/21 33/2/21 22/23/21
f 22/23/22 33/2/22 23/24/22
f 23/24/23 33/2/23 24/25/23
f 24/25/24 33/2/24 25/26/24
f 25/26/25 33/2/25 26/27/25
f 26/27/26 33/2/26 27/28/26
f 27/28/27 33/2/27 28/29/27
f 28/29/28 33/2/28 29/30/28
f 29/30/29 33/2/29 30/31/29
f 30/31/30 33/2/30 31/32/30
f 16/33/31 24/34/31 32/35/31
f 31/32/32 33/2/32 32/36/32
f 32/36/33 33/2/33 1/1/33
f 32/35/31 1/37/31 2/38/31
f 2/38/31 3/39/31 4/40/31
f 4/40/31 5/41/31 6/42/31
f 6/42/31 7/43/31 8/44/31
f 8/44/31 9/45/31 10/46/31
f 10/46/31 11/47/31 12/48/31
f 12/48/31 13/49/31 14/50/31
f 14/50/31 15/51/31 16/33/31
f 16/33/31 17/52/31 18/53/31
f 18/53/31 19/54/31 20/55/31
f 20/55/31 21/56/31 22/57/31
f 22/57/31 23/58/31 24/34/31
f 24/34/31 25/59/31 26/60/31
f 26/60/31 27/61/31 28/62/31
f 28/62/31 29/63/31 30/64/31
f 30/64/31 31/65/31 32/35/31
f 32/35/31 2/38/31 4/40/31
f 4/40/31 6/42/31 8/44/31
f 8/44/31 10/46/31 12/48/31
f 12/48/31 14/50/31 16/33/31
f 16/33/31 18/53/31 20/55/31
f 20/55/31 22/57/31 24/34/31
f 24/34/31 26/60/31 28/62/31
f 28/62/31 30/64/31 32/35/31
f 32/35/31 4/40/31 8/44/31
f 8/44/31 12/48/31 16/33/31
f 16/33/31 20/55/31 24/34/31
f 24/34/31 28/62/31 32/35/31
f 32/35/31 8/44/31 16/33/31
