# Blender 4.1.1
# www.blender.org
mtllib column-damaged.mtl
o column-damaged
v -1.700000 0.150000 -0.250000
v -1.700000 -0.000000 -0.250000
v -1.700000 0.150000 0.250000
v -1.700000 0.000000 0.250000
v -1.750000 0.000000 0.300000
v -1.750000 -0.000000 -0.300000
v -2.250000 0.000000 0.300000
v -2.250000 -0.000000 -0.300000
v -2.300000 0.000000 0.250000
v -2.300000 -0.000000 -0.250000
v -2.250000 0.150000 -0.300000
v -1.750000 0.150000 -0.300000
v -2.300000 0.150000 -0.250000
v -2.300000 0.100000 0.100000
v -2.300000 0.150000 0.050000
v -2.300000 0.150000 0.150000
v -2.300000 0.150000 0.250000
v -1.750000 0.150000 0.300000
v -2.250000 0.150000 0.300000
v -2.250000 0.150000 0.100000
v -1.893111 0.613358 0.099806
v -1.863913 0.553626 0.139212
v -1.883801 0.610255 0.159099
v -1.844026 0.596996 0.119324
v -1.806250 0.584405 -0.028125
v -1.806250 0.584405 0.028125
v -1.844026 0.596996 -0.065901
v -1.844026 0.596996 0.065901
v -1.844026 0.596996 -0.119324
v -1.883801 0.610255 -0.159099
v -1.937224 0.628062 -0.159099
v -1.937224 0.628062 0.159099
v -1.975000 0.640655 -0.196875
v -1.975000 0.640655 0.196875
v -2.031250 0.659405 -0.196875
v -2.031250 0.659405 0.196875
v -2.069026 0.671996 -0.159099
v -2.069026 0.671996 0.159099
v -2.122449 0.689804 -0.159099
v -2.122449 0.689804 0.159099
v -2.162224 0.703062 -0.119324
v -2.162224 0.703062 0.119324
v -2.162224 0.703062 0.065901
v -2.162224 0.703062 -0.065901
v -2.200000 0.715654 0.028125
v -2.200000 0.715654 -0.028125
v -1.750000 0.250000 0.029289
v -1.750000 0.200000 0.079289
v -1.800000 0.250000 0.079289
v -2.079289 0.200000 -0.250000
v -2.029289 0.250000 -0.250000
v -2.079289 0.250000 -0.200000
v -2.129289 0.250000 -0.250000
v -1.750000 0.250000 0.129289
v -2.250000 0.150000 -0.229289
v -2.229289 0.150000 -0.250000
v -2.250000 0.250000 -0.229289
v -2.229289 0.250000 -0.250000
v -2.250000 0.150000 0.229289
v -2.250000 0.250000 0.229289
v -2.229289 0.150000 0.250000
v -2.229289 0.250000 0.250000
v -1.770711 0.150000 0.250000
v -1.770711 0.250000 0.250000
v -1.770711 0.250000 -0.250000
v -1.770711 0.150000 -0.250000
v -1.750000 0.250000 -0.229289
v -1.750000 0.150000 -0.229289
v -1.750000 0.250000 0.229289
v -1.750000 0.150000 0.229289
v -1.844026 0.250000 0.065901
v -1.844026 0.250000 0.119324
v -1.937224 0.250000 -0.159099
v -1.883801 0.250000 -0.159099
v -2.162224 0.250000 0.065901
v -2.162224 0.250000 0.119324
v -1.883801 0.250000 0.159099
v -2.162224 0.250000 -0.119324
v -2.162224 0.250000 -0.065901
v -2.122449 0.250000 -0.159099
v -2.069026 0.250000 -0.159099
v -1.844026 0.250000 -0.119324
v -1.844026 0.250000 -0.065901
v -2.122449 0.250000 0.159099
v -1.937224 0.250000 0.159099
v -2.069026 0.250000 0.159099
v -1.806250 0.250000 -0.028125
v -1.806250 0.250000 0.028125
v -1.975000 0.250000 0.196875
v -2.200000 0.250000 -0.028125
v -2.200000 0.250000 0.028125
v -2.031250 0.250000 -0.196875
v -1.975000 0.250000 -0.196875
v -2.031250 0.250000 0.196875
vn 0.9239 -0.0000 0.3826
vn 0.9239 -0.0000 -0.3827
vn 0.9239 -0.0000 -0.3826
vn 0.9239 -0.0000 0.3827
vn -0.0000 -1.0000 -0.0000
vn -0.3827 -0.0000 -0.9239
vn 0.3827 -0.0000 -0.9239
vn -0.9239 -0.0000 0.3826
vn -0.9239 -0.0000 -0.3827
vn -0.9239 -0.0000 -0.3826
vn -0.9239 -0.0000 0.3827
vn -1.0000 -0.0000 -0.0000
vn 0.3827 -0.0000 0.9239
vn -0.3827 -0.0000 0.9239
vn 0.3827 -0.0001 -0.9239
vn 0.3827 0.0001 0.9239
vn -0.3827 0.0001 -0.9239
vn -0.3827 -0.0001 0.9239
vn -0.0000 1.0000 -0.0000
vn -0.9239 0.2706 -0.2706
vn 0.9215 0.3677 -0.1254
vn 0.5830 0.6264 0.5175
vn 0.6417 0.6155 0.4576
vn 0.6417 0.6155 0.4575
vn 0.5831 0.6263 0.5174
vn -0.1825 0.4777 0.8593
vn 0.3162 0.9487 -0.0000
vn 0.9487 -0.3162 -0.0000
vn -0.3162 -0.9487 -0.0000
vn -0.0000 -0.9239 -0.3827
vn -0.0000 -0.9239 0.3827
vn -0.2706 -0.9239 -0.2706
vn -0.5774 0.5774 -0.5773
vn -0.7071 0.7071 0.0001
vn -0.7071 0.7071 -0.0001
vn -0.5774 0.5774 0.5773
vn 0.7071 0.7071 -0.0000
vn 0.5774 0.5774 0.5773
vn 0.0001 0.7071 -0.7071
vn -0.5773 0.5774 -0.5773
vn -0.0000 0.7071 -0.7071
vn 0.5773 0.5773 -0.5774
vn -0.0001 0.7071 -0.7071
vn 0.5774 0.5773 -0.5774
vn -0.0000 -0.0000 -1.0000
vn 1.0000 -0.0000 -0.0000
vn 0.9795 -0.0000 0.2014
vn 0.3163 -0.0000 -0.9486
vn -0.9360 -0.0000 0.3520
vn 0.9795 -0.0000 0.2015
vn 0.7071 -0.0000 0.7071
vn 0.1453 -0.0000 0.9894
vn -0.9360 -0.0000 -0.3520
vn -0.4508 -0.0000 -0.8926
vn 0.9126 -0.0000 -0.4088
vn -0.4508 -0.0000 0.8926
vn -0.9239 0.0001 0.3827
vn -0.9360 -0.0000 0.3521
vn -0.0000 -0.0000 1.0000
vn 0.3164 -0.0000 -0.9486
vn 0.3164 0.0001 -0.9486
vn -0.9360 -0.0000 -0.3521
vn 0.9126 -0.0000 0.4088
vn 0.3164 -0.0000 0.9486
vn -0.7071 -0.0000 -0.7071
vn 0.7071 -0.0000 -0.7071
vn -0.7071 -0.0000 0.7071
vn -0.3827 0.0002 -0.9239
vn 0.3163 -0.0000 0.9486
vt 0.093750 0.225000
vt 0.093750 0.025000
vt 0.093750 0.158333
vt 0.093750 0.070270
vt 0.093750 0.094592
vt 0.093750 0.068937
vt 0.093750 0.075964
vt 0.093750 0.081372
vt 0.093750 0.062621
vt 0.093750 0.057213
vt 0.093750 0.049160
vt 0.093750 0.043751
vt 0.093750 0.036103
vt 0.093750 0.030408
vt 0.968750 0.225000
vt 0.968750 0.158333
vt 0.968750 0.125000
vt 0.968750 0.075000
vt 0.968750 0.025000
vt 0.968750 0.075964
vt 0.968750 0.062621
vt 0.968750 0.070270
vt 0.968750 0.030408
vt 0.968750 0.094592
vt 0.968750 0.036103
vt 0.968750 0.043751
vt 0.968750 0.053186
vt 0.968750 0.043811
vt 0.968750 0.041106
vt 0.968750 0.027704
vt 0.968750 0.050482
vt 0.968750 0.034376
vt 0.968750 0.037080
s 0
usemtl colormap.001
f 3/1/1 2/2/2 1/1/2
f 2/2/3 3/1/4 4/2/4
f 5/2/5 2/2/5 4/2/5
f 2/2/5 5/2/5 6/2/5
f 6/2/5 5/2/5 7/2/5
f 6/2/5 7/2/5 8/2/5
f 8/2/5 7/2/5 9/2/5
f 8/2/5 9/2/5 10/2/5
f 11/1/6 6/2/7 8/2/6
f 6/2/7 11/1/6 12/1/7
f 9/2/8 13/1/9 10/2/9
f 13/1/10 9/2/11 14/3/12
f 13/1/10 14/3/12 15/1/12
f 14/3/12 9/2/8 16/1/12
f 16/1/12 9/2/11 17/1/11
f 18/1/13 7/2/14 5/2/13
f 7/2/14 18/1/13 19/1/14
f 12/1/7 2/2/2 6/2/7
f 2/2/2 12/1/15 1/1/2
f 3/1/4 5/2/16 4/2/4
f 5/2/13 3/1/4 18/1/13
f 13/1/9 8/2/17 10/2/9
f 8/2/6 13/1/9 11/1/6
f 19/1/14 9/2/11 7/2/14
f 9/2/11 19/1/18 17/1/11
f 20/1/19 13/1/19 15/1/19
f 13/1/19 20/1/19 11/1/19
f 19/1/9 11/1/11 20/1/20
f 19/1/19 20/1/19 16/1/19
f 19/1/19 16/1/19 17/1/19
f 18/1/19 11/1/19 19/1/19
f 18/1/19 12/1/19 11/1/19
f 3/1/19 12/1/19 18/1/19
f 12/1/19 3/1/19 1/1/19
f 23/4/21 22/5/22 21/6/23
f 21/6/24 22/5/25 24/7/26
f 27/7/27 26/8/27 25/8/27
f 26/8/27 27/7/27 28/7/27
f 28/7/28 27/7/28 29/7/28
f 28/7/29 29/7/29 24/7/29
f 24/7/27 29/7/27 30/4/27
f 24/7/27 30/4/27 21/6/27
f 21/6/27 30/4/27 31/9/27
f 32/9/27 21/6/27 31/9/27
f 21/6/27 32/9/27 23/4/27
f 32/9/27 31/9/27 33/10/27
f 32/9/27 33/10/27 34/10/27
f 34/10/27 33/10/27 35/11/27
f 34/10/27 35/11/27 36/11/27
f 36/11/27 35/11/27 37/12/27
f 36/11/27 37/12/27 38/12/27
f 38/12/27 37/12/27 39/13/27
f 38/12/27 39/13/27 40/13/27
f 40/13/27 39/13/27 41/14/27
f 40/13/27 41/14/27 42/14/27
f 42/14/30 41/14/31 43/14/32
f 44/14/32 43/14/30 41/14/31
f 43/14/27 44/14/27 45/2/27
f 45/2/27 44/14/27 46/2/27
f 16/15/33 20/15/34 14/16/34
f 14/16/35 20/15/35 15/15/36
f 49/17/37 48/18/37 47/17/38
f 52/17/39 51/17/40 50/18/41
f 53/17/42 52/17/41 50/18/43
f 49/17/37 54/17/44 48/18/37
f 57/17/9 56/19/6 55/19/9
f 56/19/6 57/17/9 58/17/6
f 59/19/11 57/17/9 55/19/9
f 57/17/9 59/19/11 60/17/11
f 61/19/14 60/17/11 59/19/11
f 60/17/11 61/19/14 62/17/14
f 64/17/13 61/19/14 63/19/13
f 61/19/14 64/17/13 62/17/14
f 67/17/2 66/19/7 65/17/7
f 66/19/7 67/17/2 68/19/2
f 50/18/45 58/17/6 53/17/45
f 50/18/45 56/19/6 58/17/6
f 56/19/6 50/18/45 66/19/7
f 50/18/45 65/17/7 66/19/7
f 65/17/7 50/18/45 51/17/45
f 65/17/19 47/17/19 67/17/19
f 47/17/19 65/17/19 49/17/19
f 49/17/19 65/17/19 51/17/19
f 62/17/19 49/17/19 51/17/19
f 62/17/19 51/17/19 52/17/19
f 62/17/19 52/17/19 53/17/19
f 62/17/19 53/17/19 58/17/19
f 62/17/19 58/17/19 57/17/19
f 62/17/19 57/17/19 60/17/19
f 64/17/19 49/17/19 62/17/19
f 69/17/19 49/17/19 64/17/19
f 49/17/19 69/17/19 54/17/19
f 69/17/4 63/19/13 70/19/4
f 63/19/13 69/17/4 64/17/13
f 47/17/46 68/19/2 67/17/2
f 68/19/2 47/17/46 48/18/46
f 68/19/2 48/18/46 70/19/4
f 70/19/4 48/18/46 54/17/46
f 70/19/1 54/17/46 69/17/1
f 24/20/47 71/15/46 28/20/46
f 71/15/46 24/20/47 72/15/4
f 31/21/45 74/15/7 73/15/45
f 74/15/7 31/21/45 30/22/48
f 76/15/11 43/23/12 75/15/12
f 43/23/12 76/15/11 42/23/49
f 24/20/50 77/15/13 72/15/4
f 77/15/13 24/20/50 22/24/51
f 23/22/52 77/15/13 22/24/51
f 79/15/12 41/23/53 78/15/9
f 41/23/53 79/15/12 44/23/12
f 39/25/54 81/15/45 80/15/6
f 81/15/45 39/25/54 37/26/45
f 27/20/46 82/15/2 29/20/55
f 82/15/2 27/20/46 83/15/46
f 40/25/56 76/15/57 84/15/14
f 76/15/11 40/25/56 42/23/58
f 23/22/52 85/15/59 77/15/13
f 85/15/59 23/22/52 32/21/59
f 30/22/60 82/15/2 74/15/7
f 82/15/2 30/22/61 29/20/55
f 80/15/6 41/23/62 39/25/54
f 41/23/62 80/15/17 78/15/9
f 38/26/59 84/15/14 86/15/59
f 84/15/14 38/26/59 40/25/56
f 26/27/63 87/17/2 25/27/55
f 87/17/2 26/27/63 88/17/4
f 32/28/51 89/17/13 85/17/51
f 89/17/13 32/28/51 34/29/64
f 46/19/62 79/17/65 90/17/9
f 79/17/65 46/19/62 44/30/65
f 25/27/55 83/17/66 27/31/66
f 83/17/66 25/27/55 87/17/2
f 91/17/11 46/19/53 90/17/9
f 46/19/53 91/17/11 45/19/49
f 75/17/67 45/19/58 91/17/11
f 45/19/58 75/17/67 43/30/67
f 37/32/65 92/17/68 81/17/65
f 92/17/6 37/32/65 35/33/54
f 31/28/66 93/17/7 33/29/60
f 93/17/7 31/28/66 73/17/66
f 35/33/54 93/17/7 92/17/6
f 93/17/7 35/33/54 33/29/48
f 26/27/63 71/17/51 88/17/4
f 71/17/51 26/27/63 28/31/51
f 34/29/69 94/17/14 89/17/13
f 94/17/14 34/29/69 36/33/56
f 94/17/14 38/32/67 86/17/67
f 38/32/67 94/17/14 36/33/56
f 3/1/1 2/2/2 1/1/2
f 2/2/3 3/1/4 4/2/4
f 5/2/5 2/2/5 4/2/5
f 2/2/5 5/2/5 6/2/5
f 6/2/5 5/2/5 7/2/5
f 6/2/5 7/2/5 8/2/5
f 8/2/5 7/2/5 9/2/5
f 8/2/5 9/2/5 10/2/5
f 11/1/6 6/2/7 8/2/6
f 6/2/7 11/1/6 12/1/7
f 9/2/8 13/1/9 10/2/9
f 13/1/10 9/2/11 14/3/12
f 13/1/10 14/3/12 15/1/12
f 14/3/12 9/2/8 16/1/12
f 16/1/12 9/2/11 17/1/11
f 18/1/13 7/2/14 5/2/13
f 7/2/14 18/1/13 19/1/14
f 12/1/7 2/2/2 6/2/7
f 2/2/2 12/1/15 1/1/2
f 3/1/4 5/2/16 4/2/4
f 5/2/13 3/1/4 18/1/13
f 13/1/9 8/2/17 10/2/9
f 8/2/6 13/1/9 11/1/6
f 19/1/14 9/2/11 7/2/14
f 9/2/11 19/1/18 17/1/11
f 20/1/19 13/1/19 15/1/19
f 13/1/19 20/1/19 11/1/19
f 19/1/9 11/1/11 20/1/20
f 19/1/19 20/1/19 16/1/19
f 19/1/19 16/1/19 17/1/19
f 18/1/19 11/1/19 19/1/19
f 18/1/19 12/1/19 11/1/19
f 3/1/19 12/1/19 18/1/19
f 12/1/19 3/1/19 1/1/19
f 23/4/21 22/5/22 21/6/23
f 21/6/24 22/5/25 24/7/26
f 27/7/27 26/8/27 25/8/27
f 26/8/27 27/7/27 28/7/27
f 28/7/28 27/7/28 29/7/28
f 28/7/29 29/7/29 24/7/29
f 24/7/27 29/7/27 30/4/27
f 24/7/27 30/4/27 21/6/27
f 21/6/27 30/4/27 31/9/27
f 32/9/27 21/6/27 31/9/27
f 21/6/27 32/9/27 23/4/27
f 32/9/27 31/9/27 33/10/27
f 32/9/27 33/10/27 34/10/27
f 34/10/27 33/10/27 35/11/27
f 34/10/27 35/11/27 36/11/27
f 36/11/27 35/11/27 37/12/27
f 36/11/27 37/12/27 38/12/27
f 38/12/27 37/12/27 39/13/27
f 38/12/27 39/13/27 40/13/27
f 40/13/27 39/13/27 41/14/27
f 40/13/27 41/14/27 42/14/27
f 42/14/30 41/14/31 43/14/32
f 44/14/32 43/14/30 41/14/31
f 43/14/27 44/14/27 45/2/27
f 45/2/27 44/14/27 46/2/27
f 16/15/33 20/15/34 14/16/34
f 14/16/35 20/15/35 15/15/36
f 49/17/37 48/18/37 47/17/38
f 52/17/39 51/17/40 50/18/41
f 53/17/42 52/17/41 50/18/43
f 49/17/37 54/17/44 48/18/37
f 57/17/9 56/19/6 55/19/9
f 56/19/6 57/17/9 58/17/6
f 59/19/11 57/17/9 55/19/9
f 57/17/9 59/19/11 60/17/11
f 61/19/14 60/17/11 59/19/11
f 60/17/11 61/19/14 62/17/14
f 64/17/13 61/19/14 63/19/13
f 61/19/14 64/17/13 62/17/14
f 67/17/2 66/19/7 65/17/7
f 66/19/7 67/17/2 68/19/2
f 50/18/45 58/17/6 53/17/45
f 50/18/45 56/19/6 58/17/6
f 56/19/6 50/18/45 66/19/7
f 50/18/45 65/17/7 66/19/7
f 65/17/7 50/18/45 51/17/45
f 65/17/19 47/17/19 67/17/19
f 47/17/19 65/17/19 49/17/19
f 49/17/19 65/17/19 51/17/19
f 62/17/19 49/17/19 51/17/19
f 62/17/19 51/17/19 52/17/19
f 62/17/19 52/17/19 53/17/19
f 62/17/19 53/17/19 58/17/19
f 62/17/19 58/17/19 57/17/19
f 62/17/19 57/17/19 60/17/19
f 64/17/19 49/17/19 62/17/19
f 69/17/19 49/17/19 64/17/19
f 49/17/19 69/17/19 54/17/19
f 69/17/4 63/19/13 70/19/4
f 63/19/13 69/17/4 64/17/13
f 47/17/46 68/19/2 67/17/2
f 68/19/2 47/17/46 48/18/46
f 68/19/2 48/18/46 70/19/4
f 70/19/4 48/18/46 54/17/46
f 70/19/1 54/17/46 69/17/1
f 24/20/47 71/15/46 28/20/46
f 71/15/46 24/20/47 72/15/4
f 31/21/45 74/15/7 73/15/45
f 74/15/7 31/21/45 30/22/48
f 76/15/11 43/23/12 75/15/12
f 43/23/12 76/15/11 42/23/49
f 24/20/50 77/15/13 72/15/4
f 77/15/13 24/20/50 22/24/51
f 23/22/52 77/15/13 22/24/51
f 79/15/12 41/23/53 78/15/9
f 41/23/53 79/15/12 44/23/12
f 39/25/54 81/15/45 80/15/6
f 81/15/45 39/25/54 37/26/45
f 27/20/46 82/15/2 29/20/55
f 82/15/2 27/20/46 83/15/46
f 40/25/56 76/15/57 84/15/14
f 76/15/11 40/25/56 42/23/58
f 23/22/52 85/15/59 77/15/13
f 85/15/59 23/22/52 32/21/59
f 30/22/60 82/15/2 74/15/7
f 82/15/2 30/22/61 29/20/55
f 80/15/6 41/23/62 39/25/54
f 41/23/62 80/15/17 78/15/9
f 38/26/59 84/15/14 86/15/59
f 84/15/14 38/26/59 40/25/56
f 26/27/63 87/17/2 25/27/55
f 87/17/2 26/27/63 88/17/4
f 32/28/51 89/17/13 85/17/51
f 89/17/13 32/28/51 34/29/64
f 46/19/62 79/17/65 90/17/9
f 79/17/65 46/19/62 44/30/65
f 25/27/55 83/17/66 27/31/66
f 83/17/66 25/27/55 87/17/2
f 91/17/11 46/19/53 90/17/9
f 46/19/53 91/17/11 45/19/49
f 75/17/67 45/19/58 91/17/11
f 45/19/58 75/17/67 43/30/67
f 37/32/65 92/17/68 81/17/65
f 92/17/6 37/32/65 35/33/54
f 31/28/66 93/17/7 33/29/60
f 93/17/7 31/28/66 73/17/66
f 35/33/54 93/17/7 92/17/6
f 93/17/7 35/33/54 33/29/48
f 26/27/63 71/17/51 88/17/4
f 71/17/51 26/27/63 28/31/51
f 34/29/69 94/17/14 89/17/13
f 94/17/14 34/29/69 36/33/56
f 94/17/14 38/32/67 86/17/67
f 38/32/67 94/17/14 36/33/56
