# Blender 4.1.1
# www.blender.org
mtllib column-damaged.mtl
o column-damaged
v 0.300000 -0.250000 -0.150000
v 0.300000 -0.250000 0.000000
v 0.300000 0.250000 -0.150000
v 0.300000 0.250000 0.000000
v 0.250000 0.300000 0.000000
v 0.250000 -0.300000 0.000000
v -0.250000 0.300000 0.000000
v -0.250000 -0.300000 0.000000
v -0.300000 0.250000 0.000000
v -0.300000 -0.250000 0.000000
v -0.250000 -0.300000 -0.150000
v 0.250000 -0.300000 -0.150000
v -0.300000 -0.250000 -0.150000
v -0.300000 0.100000 -0.100000
v -0.300000 0.050000 -0.150000
v -0.300000 0.150000 -0.150000
v -0.300000 0.250000 -0.150000
v 0.250000 0.300000 -0.150000
v -0.250000 0.300000 -0.150000
v -0.250000 0.100000 -0.150000
v 0.106890 0.099806 -0.613358
v 0.136087 0.139212 -0.553626
v 0.116199 0.159099 -0.610255
v 0.155974 0.119324 -0.596996
v 0.193750 -0.028125 -0.584405
v 0.193750 0.028125 -0.584405
v 0.155974 -0.065901 -0.596996
v 0.155974 0.065901 -0.596996
v 0.155974 -0.119324 -0.596996
v 0.116199 -0.159099 -0.610255
v 0.062776 -0.159099 -0.628062
v 0.062776 0.159099 -0.628062
v 0.025000 -0.196875 -0.640655
v 0.025000 0.196875 -0.640655
v -0.031250 -0.196875 -0.659405
v -0.031250 0.196875 -0.659405
v -0.069026 -0.159099 -0.671996
v -0.069026 0.159099 -0.671996
v -0.122449 -0.159099 -0.689804
v -0.122449 0.159099 -0.689804
v -0.162224 -0.119324 -0.703062
v -0.162224 0.119324 -0.703062
v -0.162224 0.065901 -0.703062
v -0.162224 -0.065901 -0.703062
v -0.200000 0.028125 -0.715654
v -0.200000 -0.028125 -0.715654
v 0.250000 0.029289 -0.250000
v 0.250000 0.079289 -0.200000
v 0.200000 0.079289 -0.250000
v -0.079289 -0.250000 -0.200000
v -0.029289 -0.250000 -0.250000
v -0.079289 -0.200000 -0.250000
v -0.129289 -0.250000 -0.250000
v 0.250000 0.129289 -0.250000
v -0.250000 -0.229289 -0.150000
v -0.229289 -0.250000 -0.150000
v -0.250000 -0.229289 -0.250000
v -0.229289 -0.250000 -0.250000
v -0.250000 0.229289 -0.150000
v -0.250000 0.229289 -0.250000
v -0.229289 0.250000 -0.150000
v -0.229289 0.250000 -0.250000
v 0.229289 0.250000 -0.150000
v 0.229289 0.250000 -0.250000
v 0.229289 -0.250000 -0.250000
v 0.229289 -0.250000 -0.150000
v 0.250000 -0.229289 -0.250000
v 0.250000 -0.229289 -0.150000
v 0.250000 0.229289 -0.250000
v 0.250000 0.229289 -0.150000
v 0.155974 0.065901 -0.250000
v 0.155974 0.119324 -0.250000
v 0.062776 -0.159099 -0.250000
v 0.116199 -0.159099 -0.250000
v -0.162224 0.065901 -0.250000
v -0.162224 0.119324 -0.250000
v 0.116199 0.159099 -0.250000
v -0.162224 -0.119324 -0.250000
v -0.162224 -0.065901 -0.250000
v -0.122449 -0.159099 -0.250000
v -0.069026 -0.159099 -0.250000
v 0.155974 -0.119324 -0.250000
v 0.155974 -0.065901 -0.250000
v -0.122449 0.159099 -0.250000
v 0.062776 0.159099 -0.250000
v -0.069026 0.159099 -0.250000
v 0.193750 -0.028125 -0.250000
v 0.193750 0.028125 -0.250000
v 0.025000 0.196875 -0.250000
v -0.200000 -0.028125 -0.250000
v -0.200000 0.028125 -0.250000
v -0.031250 -0.196875 -0.250000
v 0.025000 -0.196875 -0.250000
v -0.031250 0.196875 -0.250000
vn 0.9239 0.3827 -0.0000
vn 0.9239 -0.3827 -0.0000
vn -0.0000 -0.0000 1.0000
vn -0.3827 -0.9239 -0.0000
vn 0.3827 -0.9239 -0.0000
vn -0.9239 0.3827 -0.0000
vn -0.9239 -0.3827 -0.0000
vn -1.0000 -0.0000 -0.0000
vn 0.3827 0.9239 -0.0000
vn -0.3827 0.9239 -0.0000
vn 0.3827 -0.9239 0.0001
vn 0.3827 0.9239 -0.0001
vn -0.3827 -0.9239 -0.0001
vn -0.3827 0.9239 0.0001
vn -0.0000 -0.0000 -1.0000
vn -0.0000 -0.0000 -0.0000
vn 0.9215 -0.1254 -0.3677
vn 0.5830 0.5175 -0.6264
vn 0.6417 0.4576 -0.6155
vn 0.6417 0.4575 -0.6155
vn 0.5831 0.5174 -0.6263
vn -0.1825 0.8594 -0.4777
vn 0.3162 -0.0000 -0.9487
vn -0.5774 -0.5774 -0.5774
vn -0.7071 -0.0000 -0.7071
vn -0.5774 0.5774 -0.5774
vn 0.7071 -0.0000 -0.7071
vn 0.5773 0.5774 -0.5774
vn -0.0000 -0.7071 -0.7071
vn 0.5774 -0.5774 -0.5774
vn -0.0000 -1.0000 -0.0000
vn 1.0000 -0.0000 -0.0000
vn 0.9795 0.2014 -0.0000
vn 0.3163 -0.9486 -0.0000
vn -0.9360 0.3520 -0.0000
vn 0.9795 0.2015 -0.0000
vn 0.7071 0.7071 -0.0000
vn 0.1453 0.9894 -0.0000
vn -0.9360 -0.3520 -0.0000
vn -0.4508 -0.8926 -0.0000
vn 0.9126 -0.4088 -0.0000
vn -0.4508 0.8926 -0.0000
vn -0.9239 0.3827 -0.0001
vn -0.9360 0.3521 -0.0000
vn -0.0000 1.0000 -0.0000
vn 0.3164 -0.9486 -0.0000
vn 0.3164 -0.9486 -0.0001
vn -0.9360 -0.3521 -0.0000
vn 0.9126 0.4088 -0.0000
vn 0.3164 0.9486 -0.0000
vn -0.7071 -0.7071 -0.0000
vn 0.7071 -0.7071 -0.0000
vn -0.7071 0.7071 -0.0000
vn -0.3827 -0.9239 -0.0002
vn 0.3826 -0.9239 -0.0000
vn 0.3163 0.9486 -0.0000
vt 0.093750 0.225000
vt 0.093750 0.025000
vt 0.093750 0.158333
vt 0.093750 0.070270
vt 0.093750 0.094592
vt 0.093750 0.068937
vt 0.093750 0.075964
vt 0.093750 0.081372
vt 0.093750 0.062621
vt 0.093750 0.057213
vt 0.093750 0.049160
vt 0.093750 0.043751
vt 0.093750 0.036103
vt 0.093750 0.030408
vt 0.968750 0.225000
vt 0.968750 0.158333
vt 0.968750 0.125000
vt 0.968750 0.075000
vt 0.968750 0.025000
vt 0.968750 0.075964
vt 0.968750 0.062621
vt 0.968750 0.070270
vt 0.968750 0.030408
vt 0.968750 0.094592
vt 0.968750 0.036103
vt 0.968750 0.043751
vt 0.968750 0.053186
vt 0.968750 0.043811
vt 0.968750 0.041106
vt 0.968750 0.027704
vt 0.968750 0.050482
vt 0.968750 0.034376
vt 0.968750 0.037080
s 0
usemtl colormap.001
f 3/1/1 2/2/2 1/1/2
f 2/2/2 3/1/1 4/2/1
f 5/2/3 2/2/3 4/2/3
f 2/2/3 5/2/3 6/2/3
f 6/2/3 5/2/3 7/2/3
f 6/2/3 7/2/3 8/2/3
f 8/2/3 7/2/3 9/2/3
f 8/2/3 9/2/3 10/2/3
f 11/1/4 6/2/5 8/2/4
f 6/2/5 11/1/4 12/1/5
f 9/2/6 13/1/7 10/2/7
f 13/1/7 9/2/6 14/3/8
f 13/1/7 14/3/8 15/1/8
f 14/3/8 9/2/6 16/1/8
f 16/1/8 9/2/6 17/1/6
f 18/1/9 7/2/10 5/2/9
f 7/2/10 18/1/9 19/1/10
f 12/1/5 2/2/2 6/2/5
f 2/2/2 12/1/11 1/1/2
f 3/1/1 5/2/12 4/2/1
f 5/2/9 3/1/1 18/1/9
f 13/1/7 8/2/13 10/2/7
f 8/2/4 13/1/7 11/1/4
f 19/1/10 9/2/6 7/2/10
f 9/2/6 19/1/14 17/1/6
f 20/1/15 13/1/15 15/1/15
f 13/1/15 20/1/15 11/1/15
f 19/1/16 11/1/16 20/1/16
f 19/1/15 20/1/15 16/1/15
f 19/1/15 16/1/15 17/1/15
f 18/1/15 11/1/15 19/1/15
f 18/1/15 12/1/15 11/1/15
f 3/1/15 12/1/15 18/1/15
f 12/1/15 3/1/15 1/1/15
f 23/4/17 22/5/18 21/6/19
f 21/6/20 22/5/21 24/7/22
f 27/7/23 26/8/23 25/8/23
f 26/8/23 27/7/23 28/7/23
f 28/7/23 27/7/23 29/7/23
f 28/7/23 29/7/23 24/7/23
f 24/7/23 29/7/23 30/4/23
f 24/7/23 30/4/23 21/6/23
f 21/6/23 30/4/23 31/9/23
f 32/9/23 21/6/23 31/9/23
f 21/6/23 32/9/23 23/4/23
f 32/9/23 31/9/23 33/10/23
f 32/9/23 33/10/23 34/10/23
f 34/10/23 33/10/23 35/11/23
f 34/10/23 35/11/23 36/11/23
f 36/11/23 35/11/23 37/12/23
f 36/11/23 37/12/23 38/12/23
f 38/12/23 37/12/23 39/13/23
f 38/12/23 39/13/23 40/13/23
f 40/13/23 39/13/23 41/14/23
f 40/13/23 41/14/23 42/14/23
f 42/14/16 41/14/16 43/14/16
f 44/14/16 43/14/16 41/14/16
f 43/14/23 44/14/23 45/2/23
f 45/2/23 44/14/23 46/2/23
f 16/15/24 20/15/25 14/16/25
f 14/16/25 20/15/25 15/15/26
f 49/17/27 48/18/27 47/17/28
f 52/17/29 51/17/24 50/18/29
f 53/17/30 52/17/29 50/18/29
f 49/17/27 54/17/30 48/18/27
f 57/17/7 56/19/4 55/19/7
f 56/19/4 57/17/7 58/17/4
f 59/19/6 57/17/7 55/19/7
f 57/17/7 59/19/6 60/17/6
f 61/19/10 60/17/6 59/19/6
f 60/17/6 61/19/10 62/17/10
f 64/17/9 61/19/10 63/19/9
f 61/19/10 64/17/9 62/17/10
f 67/17/2 66/19/5 65/17/5
f 66/19/5 67/17/2 68/19/2
f 50/18/31 58/17/4 53/17/31
f 50/18/31 56/19/4 58/17/4
f 56/19/4 50/18/31 66/19/5
f 50/18/31 65/17/5 66/19/5
f 65/17/5 50/18/31 51/17/31
f 65/17/15 47/17/15 67/17/15
f 47/17/15 65/17/15 49/17/15
f 49/17/15 65/17/15 51/17/15
f 62/17/15 49/17/15 51/17/15
f 62/17/15 51/17/15 52/17/15
f 62/17/15 52/17/15 53/17/15
f 62/17/15 53/17/15 58/17/15
f 62/17/15 58/17/15 57/17/15
f 62/17/15 57/17/15 60/17/15
f 64/17/15 49/17/15 62/17/15
f 69/17/15 49/17/15 64/17/15
f 49/17/15 69/17/15 54/17/15
f 69/17/1 63/19/9 70/19/1
f 63/19/9 69/17/1 64/17/9
f 47/17/32 68/19/2 67/17/2
f 68/19/2 47/17/32 48/18/32
f 68/19/2 48/18/32 70/19/1
f 70/19/1 48/18/32 54/17/32
f 70/19/1 54/17/32 69/17/1
f 24/20/33 71/15/32 28/20/32
f 71/15/32 24/20/33 72/15/1
f 31/21/31 74/15/5 73/15/31
f 74/15/5 31/21/31 30/22/34
f 76/15/6 43/23/8 75/15/8
f 43/23/8 76/15/6 42/23/35
f 24/20/36 77/15/9 72/15/1
f 77/15/9 24/20/36 22/24/37
f 23/22/38 77/15/9 22/24/37
f 79/15/8 41/23/39 78/15/7
f 41/23/39 79/15/8 44/23/8
f 39/25/40 81/15/31 80/15/4
f 81/15/31 39/25/40 37/26/31
f 27/20/32 82/15/2 29/20/41
f 82/15/2 27/20/32 83/15/32
f 40/25/42 76/15/43 84/15/10
f 76/15/6 40/25/42 42/23/44
f 23/22/38 85/15/45 77/15/9
f 85/15/45 23/22/38 32/21/45
f 30/22/46 82/15/2 74/15/5
f 82/15/2 30/22/47 29/20/41
f 80/15/4 41/23/48 39/25/40
f 41/23/48 80/15/13 78/15/7
f 38/26/45 84/15/10 86/15/45
f 84/15/10 38/26/45 40/25/42
f 26/27/49 87/17/2 25/27/41
f 87/17/2 26/27/49 88/17/1
f 32/28/37 89/17/9 85/17/37
f 89/17/9 32/28/37 34/29/50
f 46/19/48 79/17/51 90/17/7
f 79/17/51 46/19/48 44/30/51
f 25/27/41 83/17/52 27/31/52
f 83/17/52 25/27/41 87/17/2
f 91/17/6 46/19/39 90/17/7
f 46/19/39 91/17/6 45/19/35
f 75/17/53 45/19/44 91/17/6
f 45/19/44 75/17/53 43/30/53
f 37/32/51 92/17/54 81/17/51
f 92/17/4 37/32/51 35/33/40
f 31/28/52 93/17/5 33/29/46
f 93/17/5 31/28/52 73/17/52
f 35/33/40 93/17/5 92/17/4
f 93/17/55 35/33/40 33/29/34
f 26/27/49 71/17/37 88/17/1
f 71/17/37 26/27/49 28/31/37
f 34/29/56 94/17/10 89/17/9
f 94/17/10 34/29/56 36/33/42
f 94/17/10 38/32/53 86/17/53
f 38/32/53 94/17/10 36/33/42
f 3/1/1 2/2/2 1/1/2
f 2/2/2 3/1/1 4/2/1
f 5/2/3 2/2/3 4/2/3
f 2/2/3 5/2/3 6/2/3
f 6/2/3 5/2/3 7/2/3
f 6/2/3 7/2/3 8/2/3
f 8/2/3 7/2/3 9/2/3
f 8/2/3 9/2/3 10/2/3
f 11/1/4 6/2/5 8/2/4
f 6/2/5 11/1/4 12/1/5
f 9/2/6 13/1/7 10/2/7
f 13/1/7 9/2/6 14/3/8
f 13/1/7 14/3/8 15/1/8
f 14/3/8 9/2/6 16/1/8
f 16/1/8 9/2/6 17/1/6
f 18/1/9 7/2/10 5/2/9
f 7/2/10 18/1/9 19/1/10
f 12/1/5 2/2/2 6/2/5
f 2/2/2 12/1/11 1/1/2
f 3/1/1 5/2/12 4/2/1
f 5/2/9 3/1/1 18/1/9
f 13/1/7 8/2/13 10/2/7
f 8/2/4 13/1/7 11/1/4
f 19/1/10 9/2/6 7/2/10
f 9/2/6 19/1/14 17/1/6
f 20/1/15 13/1/15 15/1/15
f 13/1/15 20/1/15 11/1/15
f 19/1/16 11/1/16 20/1/16
f 19/1/15 20/1/15 16/1/15
f 19/1/15 16/1/15 17/1/15
f 18/1/15 11/1/15 19/1/15
f 18/1/15 12/1/15 11/1/15
f 3/1/15 12/1/15 18/1/15
f 12/1/15 3/1/15 1/1/15
f 23/4/17 22/5/18 21/6/19
f 21/6/20 22/5/21 24/7/22
f 27/7/23 26/8/23 25/8/23
f 26/8/23 27/7/23 28/7/23
f 28/7/23 27/7/23 29/7/23
f 28/7/23 29/7/23 24/7/23
f 24/7/23 29/7/23 30/4/23
f 24/7/23 30/4/23 21/6/23
f 21/6/23 30/4/23 31/9/23
f 32/9/23 21/6/23 31/9/23
f 21/6/23 32/9/23 23/4/23
f 32/9/23 31/9/23 33/10/23
f 32/9/23 33/10/23 34/10/23
f 34/10/23 33/10/23 35/11/23
f 34/10/23 35/11/23 36/11/23
f 36/11/23 35/11/23 37/12/23
f 36/11/23 37/12/23 38/12/23
f 38/12/23 37/12/23 39/13/23
f 38/12/23 39/13/23 40/13/23
f 40/13/23 39/13/23 41/14/23
f 40/13/23 41/14/23 42/14/23
f 42/14/16 41/14/16 43/14/16
f 44/14/16 43/14/16 41/14/16
f 43/14/23 44/14/23 45/2/23
f 45/2/23 44/14/23 46/2/23
f 16/15/24 20/15/25 14/16/25
f 14/16/25 20/15/25 15/15/26
f 49/17/27 48/18/27 47/17/28
f 52/17/29 51/17/24 50/18/29
f 53/17/30 52/17/29 50/18/29
f 49/17/27 54/17/30 48/18/27
f 57/17/7 56/19/4 55/19/7
f 56/19/4 57/17/7 58/17/4
f 59/19/6 57/17/7 55/19/7
f 57/17/7 59/19/6 60/17/6
f 61/19/10 60/17/6 59/19/6
f 60/17/6 61/19/10 62/17/10
f 64/17/9 61/19/10 63/19/9
f 61/19/10 64/17/9 62/17/10
f 67/17/2 66/19/5 65/17/5
f 66/19/5 67/17/2 68/19/2
f 50/18/31 58/17/4 53/17/31
f 50/18/31 56/19/4 58/17/4
f 56/19/4 50/18/31 66/19/5
f 50/18/31 65/17/5 66/19/5
f 65/17/5 50/18/31 51/17/31
f 65/17/15 47/17/15 67/17/15
f 47/17/15 65/17/15 49/17/15
f 49/17/15 65/17/15 51/17/15
f 62/17/15 49/17/15 51/17/15
f 62/17/15 51/17/15 52/17/15
f 62/17/15 52/17/15 53/17/15
f 62/17/15 53/17/15 58/17/15
f 62/17/15 58/17/15 57/17/15
f 62/17/15 57/17/15 60/17/15
f 64/17/15 49/17/15 62/17/15
f 69/17/15 49/17/15 64/17/15
f 49/17/15 69/17/15 54/17/15
f 69/17/1 63/19/9 70/19/1
f 63/19/9 69/17/1 64/17/9
f 47/17/32 68/19/2 67/17/2
f 68/19/2 47/17/32 48/18/32
f 68/19/2 48/18/32 70/19/1
f 70/19/1 48/18/32 54/17/32
f 70/19/1 54/17/32 69/17/1
f 24/20/33 71/15/32 28/20/32
f 71/15/32 24/20/33 72/15/1
f 31/21/31 74/15/5 73/15/31
f 74/15/5 31/21/31 30/22/34
f 76/15/6 43/23/8 75/15/8
f 43/23/8 76/15/6 42/23/35
f 24/20/36 77/15/9 72/15/1
f 77/15/9 24/20/36 22/24/37
f 23/22/38 77/15/9 22/24/37
f 79/15/8 41/23/39 78/15/7
f 41/23/39 79/15/8 44/23/8
f 39/25/40 81/15/31 80/15/4
f 81/15/31 39/25/40 37/26/31
f 27/20/32 82/15/2 29/20/41
f 82/15/2 27/20/32 83/15/32
f 40/25/42 76/15/43 84/15/10
f 76/15/6 40/25/42 42/23/44
f 23/22/38 85/15/45 77/15/9
f 85/15/45 23/22/38 32/21/45
f 30/22/46 82/15/2 74/15/5
f 82/15/2 30/22/47 29/20/41
f 80/15/4 41/23/48 39/25/40
f 41/23/48 80/15/13 78/15/7
f 38/26/45 84/15/10 86/15/45
f 84/15/10 38/26/45 40/25/42
f 26/27/49 87/17/2 25/27/41
f 87/17/2 26/27/49 88/17/1
f 32/28/37 89/17/9 85/17/37
f 89/17/9 32/28/37 34/29/50
f 46/19/48 79/17/51 90/17/7
f 79/17/51 46/19/48 44/30/51
f 25/27/41 83/17/52 27/31/52
f 83/17/52 25/27/41 87/17/2
f 91/17/6 46/19/39 90/17/7
f 46/19/39 91/17/6 45/19/35
f 75/17/53 45/19/44 91/17/6
f 45/19/44 75/17/53 43/30/53
f 37/32/51 92/17/54 81/17/51
f 92/17/4 37/32/51 35/33/40
f 31/28/52 93/17/5 33/29/46
f 93/17/5 31/28/52 73/17/52
f 35/33/40 93/17/5 92/17/4
f 93/17/55 35/33/40 33/29/34
f 26/27/49 71/17/37 88/17/1
f 71/17/37 26/27/49 28/31/37
f 34/29/56 94/17/10 89/17/9
f 94/17/10 34/29/56 36/33/42
f 94/17/10 38/32/53 86/17/53
f 38/32/53 94/17/10 36/33/42
