# Blender 4.1.1
# www.blender.org
mtllib @deco.mtl
o trophy
v -19.196493 6.819096 -0.218555
v -19.652235 6.819096 -0.598694
v -19.196493 7.439095 -0.218555
v -19.652235 7.439095 -0.598694
v -20.114229 6.819096 0.881703
v -20.569971 6.819096 0.501564
v -19.523172 6.819096 0.828244
v -19.143034 6.819096 0.372502
v -20.623430 6.819096 -0.089493
v -20.243292 6.819096 -0.545235
v -19.523172 7.439095 0.828244
v -20.114229 7.439095 0.881703
v -19.143034 7.439095 0.372502
v -20.569971 7.439095 0.501564
v -20.623430 7.439095 -0.089493
v -20.243292 7.439095 -0.545235
v -19.232376 5.359553 0.344621
v -19.656189 5.442137 0.212359
v -19.279383 5.359553 -0.175095
v -19.672586 5.442137 0.031063
v -19.954086 5.442137 0.368547
v -20.093878 5.442137 0.251946
v -19.963022 5.889095 0.397183
v -20.120445 5.889095 0.265876
v -20.487082 5.359553 0.458104
v -20.534088 5.359553 -0.061612
v -20.110275 5.442137 0.070650
v -19.812378 5.442137 -0.085538
v -19.993673 5.442137 -0.069141
v -19.680117 5.359553 -0.509351
v -20.199833 5.359553 -0.462345
v -19.646019 5.889095 0.017133
v -19.803442 5.889095 -0.114174
v -19.059349 5.052095 -0.290459
v -18.995214 5.052095 0.418633
v -19.627554 5.889095 0.221296
v -19.451269 5.052095 0.965387
v -19.566633 5.359553 0.745354
v -20.007603 5.889095 -0.095708
v -20.160360 5.052095 1.029522
v -20.707115 5.052095 0.573468
v -20.086348 5.359553 0.792361
v -20.771250 5.052095 -0.135624
v -20.315195 5.052095 -0.682378
v -19.606104 5.052095 -0.746513
v -20.138910 5.889095 0.061713
v -20.247215 7.439095 1.307835
v -20.965326 7.439095 0.708850
v -19.315887 7.439095 1.223599
v -18.716902 7.439095 0.505487
v -21.049562 7.439095 -0.222478
v -20.450577 7.439095 -0.940590
v -18.801138 7.439095 -0.425841
v -19.519249 7.439095 -1.024826
v -19.772791 5.442137 0.352150
v -19.758862 5.889095 0.378718
v -19.315887 7.144595 1.223599
v -20.247215 7.144595 1.307835
v -18.716902 7.144595 0.505487
v -19.519249 7.144595 -1.024826
v -18.801138 7.144595 -0.425840
v -21.049562 7.144595 -0.222478
v -20.450577 7.144595 -0.940590
v -20.965326 7.144595 0.708850
v -19.486486 6.865595 0.898214
v -19.546000 6.028595 0.784708
v -20.137766 6.865595 0.957120
v -20.099586 6.028595 0.834778
v -20.247215 7.144595 1.307835
v -19.315887 7.144595 1.223599
v -18.716902 7.144595 0.505487
v -19.067617 6.865595 0.396038
v -20.220465 6.028595 -0.501699
v -19.666878 6.028595 -0.551769
v -19.240028 6.028595 -0.195729
v -19.189959 6.028595 0.357858
v -19.126522 6.865595 -0.255240
v -19.628698 6.865595 -0.674111
v -20.279976 6.865595 -0.615205
v -18.801138 7.144595 -0.425840
v -19.519249 7.144595 -1.024826
v -20.450577 7.144595 -0.940590
v -20.526436 6.028595 0.478738
v -20.576506 6.028595 -0.074849
v -20.965326 7.144595 0.708850
v -20.639942 6.865595 0.538249
v -21.049562 7.144595 -0.222478
v -20.698847 6.865595 -0.113029
v -19.801111 6.850096 -0.585229
v -19.838263 6.850096 -0.995972
v -20.094414 6.850096 -0.558701
v -20.131565 6.850096 -0.969444
v -20.103762 6.388155 -0.662040
v -20.118372 6.496542 -0.823592
v -19.810457 6.388155 -0.688568
v -19.825069 6.496542 -0.850120
v -20.094414 7.144595 -0.558701
v -20.158092 7.144595 -1.262747
v -19.801111 7.144595 -0.585229
v -19.864790 7.144595 -1.289275
v -20.113913 6.116073 -0.774283
v -19.820610 6.116073 -0.800811
v -20.137131 6.288299 -1.030989
v -19.843828 6.288299 -1.057517
v -20.158092 6.850096 -1.262747
v -20.128136 6.658754 -0.931538
v -20.152645 6.546053 -1.202515
v -20.086525 6.350096 -0.471476
v -20.086525 6.055595 -0.471476
v -19.859343 6.546053 -1.229043
v -19.864790 6.850096 -1.289275
v -19.793222 6.055595 -0.498005
v -19.793222 6.350096 -0.498005
v -19.834833 6.658754 -0.958066
v -19.922636 6.288299 1.340526
v -19.629333 6.288299 1.313998
v -19.945854 6.116073 1.083820
v -19.652552 6.116073 1.057292
v -19.901674 7.144595 1.572284
v -19.965353 7.144595 0.868238
v -19.608372 7.144595 1.545756
v -19.672050 7.144595 0.841710
v -19.928202 6.850096 1.278981
v -19.634899 6.850096 1.252453
v -19.965353 6.850096 0.868238
v -19.672050 6.850096 0.841710
v -19.973242 6.055595 0.781014
v -19.679939 6.055595 0.754486
v -19.613819 6.546053 1.485524
v -19.907122 6.546053 1.512052
v -19.608372 6.850096 1.545756
v -19.901674 6.850096 1.572284
v -19.638329 6.658754 1.214547
v -19.931631 6.658754 1.241076
v -19.648090 6.496542 1.106601
v -19.941395 6.496542 1.133130
v -19.956005 6.388155 0.971578
v -19.662703 6.388155 0.945049
v -19.679939 6.350096 0.754486
v -19.973242 6.350096 0.781014
vn -0.8856 -0.0000 0.4644
vn -0.2979 -0.0000 0.9546
vn -0.0000 1.0000 -0.0000
vn 0.2979 -0.0000 -0.9546
vn -0.4643 -0.0000 -0.8857
vn -0.9546 -0.0000 -0.2979
vn -0.8857 -0.0000 0.4643
vn 0.8856 -0.0000 -0.4644
vn 0.9546 -0.0000 0.2979
vn 0.8857 -0.0000 -0.4643
vn 0.4644 -0.0000 0.8856
vn -0.4644 -0.0000 -0.8856
vn 0.4643 -0.0000 0.8857
vn 0.5048 0.8216 -0.2647
vn 0.1746 0.9831 0.0545
vn 0.5442 0.8216 0.1698
vn 0.5049 0.8216 -0.2647
vn 0.1620 0.9831 -0.0849
vn -0.2972 -0.0669 0.9525
vn -0.8836 -0.0670 0.4633
vn -0.2972 -0.0670 0.9525
vn -0.8837 -0.0670 0.4633
vn -0.1620 0.9831 0.0849
vn -0.5442 0.8216 -0.1698
vn -0.5049 0.8216 0.2647
vn -0.1746 0.9831 -0.0545
vn 0.1698 0.8216 -0.5442
vn -0.0849 0.9831 -0.1620
vn 0.0545 0.9831 -0.1746
vn -0.2647 0.8216 -0.5049
vn 0.8837 -0.0670 -0.4633
vn 0.2972 -0.0669 -0.9525
vn 0.8836 -0.0670 -0.4633
vn 0.2972 -0.0670 -0.9525
vn 0.7425 0.6285 0.2317
vn 0.6889 0.6285 -0.3611
vn 0.8837 -0.0669 -0.4633
vn 0.9524 -0.0670 0.2972
vn 0.9524 -0.0670 0.2973
vn 0.2647 0.8216 0.5049
vn 0.3612 0.6285 0.6889
vn 0.2647 0.8216 0.5048
vn -0.4633 -0.0669 -0.8837
vn -0.4633 -0.0670 -0.8837
vn -0.1698 0.8216 0.5442
vn -0.6889 0.6285 0.3612
vn -0.2317 0.6285 0.7425
vn -0.6888 0.6285 0.3612
vn -0.1699 0.8216 0.5441
vn 0.1699 0.8216 -0.5442
vn -0.0000 -1.0000 -0.0000
vn -0.9525 -0.0669 -0.2972
vn -0.9525 -0.0670 -0.2972
vn -0.3611 0.6285 -0.6889
vn 0.2317 0.6285 -0.7425
vn -0.8837 -0.0669 0.4633
vn -0.9524 -0.0670 -0.2973
vn 0.0849 0.9831 0.1620
vn -0.0545 0.9831 0.1746
vn -0.1699 0.8216 0.5442
vn 0.4633 -0.0669 0.8837
vn 0.9525 -0.0670 0.2972
vn 0.4633 -0.0670 0.8837
vn -0.2647 0.8216 -0.5048
vn -0.7425 0.6285 -0.2317
vn -0.3612 0.6285 -0.6889
vn -0.6889 0.6285 0.3611
vn 0.6888 0.6285 -0.3612
vn 0.1699 0.8216 -0.5441
vn 0.6889 0.6285 -0.3612
vn 0.3611 0.6285 0.6889
vn 0.2979 -0.0002 -0.9546
vn -0.4644 0.0001 -0.8856
vn -0.9546 -0.0001 -0.2979
vn -0.2476 -0.5562 0.7933
vn 0.3727 -0.5965 0.7108
vn 0.3859 -0.5562 0.7360
vn -0.2391 -0.5965 0.7662
vn -0.2476 -0.5563 0.7933
vn 0.2808 -0.7964 0.5357
vn -0.1801 -0.7964 0.5773
vn 0.3859 -0.5563 0.7360
vn 0.5773 -0.7964 0.1802
vn 0.2809 -0.7964 0.5356
vn 0.7933 -0.5563 0.2475
vn -0.3728 -0.5964 -0.7108
vn 0.0867 -0.9567 -0.2779
vn -0.1352 -0.9567 -0.2579
vn -0.3727 -0.5964 -0.7109
vn 0.2391 -0.5964 -0.7662
vn 0.7360 -0.5563 -0.3859
vn 0.7662 -0.5965 0.2391
vn 0.7108 -0.5965 -0.3727
vn 0.7360 -0.5562 -0.3859
vn 0.7933 -0.5562 0.2476
vn 0.2476 -0.5563 -0.7933
vn 0.7109 -0.5965 -0.3727
vn 0.2391 -0.5965 -0.7662
vn 0.2475 -0.5562 -0.7933
vn -0.3859 -0.5562 -0.7360
vn 0.2476 -0.5562 -0.7933
vn -0.3859 -0.5563 -0.7360
vn -0.3727 -0.5965 -0.7108
vn 0.5356 -0.7964 -0.2809
vn 0.2475 -0.5563 -0.7933
vn 0.1802 -0.7964 -0.5773
vn 0.7933 -0.5563 0.2476
vn 0.5357 -0.7964 -0.2808
vn 0.5773 -0.7964 0.1801
vn 0.0868 -0.9567 -0.2779
vn 0.7109 -0.5964 -0.3728
vn 0.2578 -0.9567 -0.1352
vn 0.7109 -0.5964 -0.3727
vn 0.1801 -0.7964 -0.5773
vn -0.2808 -0.7964 -0.5357
vn -0.7662 -0.5964 -0.2392
vn -0.2579 -0.9567 0.1352
vn -0.7109 -0.5964 0.3728
vn -0.7662 -0.5964 -0.2391
vn -0.2779 -0.9567 -0.0867
vn -0.5773 -0.7964 -0.1801
vn -0.7360 -0.5563 0.3859
vn -0.5357 -0.7964 0.2808
vn -0.7360 -0.5562 0.3859
vn -0.7933 -0.5562 -0.2476
vn -0.7662 -0.5965 -0.2391
vn -0.7108 -0.5965 0.3727
vn -0.5773 -0.7964 -0.1802
vn -0.2809 -0.7964 -0.5356
vn 0.3727 -0.5965 0.7109
vn 0.7933 -0.5562 0.2475
vn -0.7662 -0.5964 -0.2390
vn -0.1352 -0.9567 -0.2578
vn -0.2779 -0.9567 -0.0868
vn -0.7109 -0.5965 0.3727
vn -0.2475 -0.5562 0.7933
vn 0.1352 -0.9567 0.2578
vn 0.7662 -0.5964 0.2391
vn 0.3727 -0.5964 0.7109
vn 0.7662 -0.5964 0.2390
vn 0.2779 -0.9567 0.0868
vn -0.7933 -0.5563 -0.2476
vn -0.3727 -0.5965 -0.7109
vn -0.7933 -0.5562 -0.2475
vn -0.5356 -0.7964 0.2809
vn -0.1802 -0.7964 0.5773
vn -0.0867 -0.9567 0.2779
vn -0.2391 -0.5964 0.7662
vn 0.3728 -0.5964 0.7108
vn 0.1352 -0.9567 0.2579
vn 0.2779 -0.9567 0.0867
vn 0.7108 -0.5964 -0.3728
vn 0.2579 -0.9567 -0.1352
vn -0.7109 -0.5964 0.3727
vn -0.0868 -0.9567 0.2779
vn -0.2578 -0.9567 0.1352
vn 0.0345 0.9239 0.3812
vn 0.0637 0.7071 0.7042
vn -0.0637 -0.7071 -0.7042
vn -0.0345 -0.9239 -0.3812
vn -0.9959 -0.0000 0.0901
vn -0.0637 -0.7071 -0.7043
vn -0.0832 -0.3827 -0.9201
vn -0.0832 -0.3826 -0.9201
vn -0.0896 -0.0981 -0.9911
vn -0.0897 -0.0981 -0.9911
vn 0.9959 -0.0000 -0.0901
vn -0.0896 -0.0980 -0.9911
vn -0.0901 -0.0000 -0.9959
vn -0.0897 -0.0980 -0.9911
vn 0.0832 0.3827 0.9201
vn 0.0637 0.7071 0.7043
vn 0.0883 0.1951 0.9768
vn 0.0832 0.3826 0.9201
vn -0.0345 -0.9239 -0.3811
vn -0.0176 -0.9808 -0.1943
vn 0.0176 0.9808 0.1943
vn 0.0345 0.9239 0.3811
vn 0.0345 -0.9239 0.3812
vn 0.0637 -0.7071 0.7042
vn 0.0176 -0.9808 0.1943
vn 0.0345 -0.9239 0.3811
vn 0.0832 -0.3827 0.9201
vn 0.0637 -0.7071 0.7043
vn 0.0897 -0.0981 0.9911
vn 0.0832 -0.3826 0.9201
vn 0.0896 -0.0981 0.9911
vn -0.0637 0.7071 -0.7043
vn -0.0832 0.3827 -0.9201
vn -0.0637 0.7071 -0.7042
vn -0.0345 0.9239 -0.3812
vn -0.0345 0.9239 -0.3811
vn -0.0176 0.9808 -0.1943
vn -0.0832 0.3826 -0.9201
vn -0.0883 0.1951 -0.9768
vn 0.0901 -0.0000 0.9959
vn 0.0896 -0.0980 0.9911
vn 0.0897 -0.0980 0.9911
vt 0.343750 0.225000
vt 0.343750 0.173052
vt 0.343750 0.300761
vt 0.343750 0.307680
vt 0.343750 0.345130
vt 0.343750 0.275000
vt 0.343750 0.475000
vt 0.343750 0.450325
vt 0.343750 0.347222
vt 0.343750 0.413889
vt 0.343750 0.325000
vt 0.343750 0.425000
vt 0.343750 0.397957
vt 0.343750 0.355538
vt 0.343750 0.365491
vt 0.343750 0.346369
vt 0.343750 0.330554
vt 0.343750 0.380386
vt 0.343750 0.370037
vt 0.343750 0.352043
s 0
usemtl colormap.007
f 3/1/1 2/2/2 1/2/1
f 2/2/2 3/1/1 4/1/2
f 7/2/3 6/2/3 5/2/3
f 6/2/3 7/2/3 8/2/3
f 6/2/3 8/2/3 9/2/3
f 9/2/3 8/2/3 1/2/3
f 9/2/3 1/2/3 10/2/3
f 10/2/3 1/2/3 2/2/3
f 5/2/4 11/1/5 7/2/5
f 11/1/5 5/2/4 12/1/4
f 13/1/6 1/2/7 8/2/6
f 1/2/7 13/1/6 3/1/7
f 14/1/8 5/2/4 6/2/8
f 5/2/4 14/1/8 12/1/4
f 15/1/9 6/2/10 9/2/9
f 6/2/10 15/1/9 14/1/10
f 16/1/11 9/2/9 10/2/11
f 9/2/9 16/1/11 15/1/9
f 7/2/12 13/1/6 8/2/6
f 13/1/6 7/2/12 11/1/12
f 16/1/13 2/2/2 4/1/2
f 2/2/2 16/1/13 10/2/13
f 19/3/14 18/4/15 17/3/16
f 18/4/15 19/3/17 20/4/18
f 23/5/19 22/4/20 21/4/21
f 22/4/22 23/5/19 24/5/22
f 22/4/23 26/3/24 25/3/25
f 26/3/24 22/4/23 27/4/26
f 30/3/27 29/4/28 28/4/29
f 29/4/28 30/3/27 31/3/30
f 20/4/31 33/5/32 32/5/31
f 33/5/32 20/4/33 28/4/34
f 19/3/17 35/6/35 34/6/36
f 35/6/35 19/3/17 17/3/16
f 32/5/37 18/4/38 20/4/31
f 18/4/39 32/5/37 36/5/39
f 35/6/35 38/3/40 37/6/41
f 38/3/42 35/6/35 17/3/16
f 28/4/34 39/5/43 33/5/34
f 39/5/43 28/4/34 29/4/44
f 42/3/45 41/6/46 40/6/47
f 41/6/48 42/3/49 25/3/25
f 19/3/17 28/4/29 20/4/18
f 28/4/29 19/3/17 30/3/50
f 41/6/51 37/6/51 40/6/51
f 37/6/51 41/6/51 35/6/51
f 35/6/51 41/6/51 43/6/51
f 35/6/51 43/6/51 34/6/51
f 34/6/51 43/6/51 44/6/51
f 34/6/51 44/6/51 45/6/51
f 46/5/52 29/4/44 27/4/53
f 29/4/44 46/5/52 39/5/44
f 44/6/54 30/3/27 45/6/55
f 30/3/27 44/6/54 31/3/30
f 24/5/56 27/4/53 22/4/22
f 27/4/57 24/5/56 46/5/57
f 49/7/3 48/7/3 47/7/3
f 48/7/3 49/7/3 12/7/3
f 49/7/3 11/7/3 12/7/3
f 48/7/3 12/7/3 14/7/3
f 11/7/3 49/7/3 50/7/3
f 11/7/3 50/7/3 13/7/3
f 48/7/3 14/7/3 51/7/3
f 51/7/3 14/7/3 15/7/3
f 51/7/3 15/7/3 16/7/3
f 51/7/3 16/7/3 52/7/3
f 13/7/3 50/7/3 53/7/3
f 13/7/3 53/7/3 3/7/3
f 52/7/3 16/7/3 4/7/3
f 3/7/3 53/7/3 4/7/3
f 52/7/3 4/7/3 54/7/3
f 4/7/3 53/7/3 54/7/3
f 17/3/16 55/4/58 38/3/42
f 55/4/58 17/3/16 18/4/15
f 38/3/42 21/4/59 42/3/45
f 21/4/59 38/3/40 55/4/58
f 21/4/59 25/3/25 42/3/60
f 25/3/25 21/4/59 22/4/23
f 56/5/61 18/4/62 36/5/62
f 18/4/39 56/5/63 55/4/63
f 29/4/28 26/3/24 27/4/26
f 26/3/24 29/4/28 31/3/64
f 31/3/64 43/6/65 26/3/24
f 43/6/65 31/3/30 44/6/66
f 25/3/25 43/6/65 41/6/67
f 43/6/65 25/3/25 26/3/24
f 34/6/68 30/3/69 19/3/17
f 30/3/27 34/6/70 45/6/55
f 38/3/40 40/6/47 37/6/71
f 40/6/47 38/3/40 42/3/45
f 23/5/19 55/4/63 56/5/63
f 55/4/63 23/5/21 21/4/21
f 47/7/2 57/8/13 49/7/13
f 57/8/13 47/7/2 58/8/2
f 49/7/11 59/8/9 50/7/9
f 59/8/9 49/7/11 57/8/11
f 54/7/4 61/8/8 60/8/4
f 61/8/8 54/7/72 53/7/8
f 53/7/10 59/8/9 61/8/10
f 59/8/9 53/7/10 50/7/9
f 51/7/6 63/8/73 62/8/6
f 63/8/12 51/7/74 52/7/12
f 63/8/5 54/7/4 60/8/4
f 54/7/4 63/8/5 52/7/5
f 48/7/1 58/8/2 47/7/2
f 58/8/2 48/7/1 64/8/1
f 48/7/7 62/8/6 64/8/7
f 62/8/6 48/7/7 51/7/6
f 67/9/75 66/10/76 65/9/77
f 66/10/76 67/9/75 68/10/78
f 67/9/79 70/11/80 69/11/81
f 70/11/80 67/9/75 65/9/82
f 65/9/82 71/11/83 70/11/84
f 71/11/83 65/9/77 72/9/85
f 73/10/86 33/12/87 39/12/88
f 33/12/87 73/10/89 74/10/90
f 77/9/91 76/10/92 75/10/93
f 76/10/92 77/9/94 72/9/95
f 78/9/96 75/10/97 74/10/98
f 75/10/97 78/9/99 77/9/94
f 74/10/98 79/9/100 78/9/101
f 79/9/102 74/10/98 73/10/103
f 78/9/101 80/11/104 77/9/94
f 80/11/104 78/9/105 81/11/106
f 72/9/107 80/11/108 71/11/109
f 80/11/108 72/9/95 77/9/91
f 33/12/110 75/10/111 32/12/112
f 75/10/113 33/12/110 74/10/90
f 79/9/100 81/11/114 78/9/101
f 81/11/114 79/9/102 82/11/115
f 84/10/116 24/12/117 83/10/118
f 24/12/117 84/10/119 46/12/120
f 87/11/121 86/9/122 85/11/123
f 86/9/124 87/11/121 88/9/125
f 86/9/122 84/10/126 83/10/127
f 84/10/126 86/9/124 88/9/125
f 87/11/128 79/9/100 88/9/125
f 79/9/102 87/11/128 82/11/129
f 72/9/107 66/10/130 76/10/92
f 66/10/130 72/9/131 65/9/77
f 84/10/132 39/12/133 46/12/134
f 39/12/133 84/10/119 73/10/89
f 67/9/79 83/10/135 68/10/78
f 83/10/135 67/9/136 86/9/124
f 56/12/137 76/10/138 66/10/139
f 76/10/140 56/12/137 36/12/141
f 88/9/142 73/10/143 84/10/126
f 73/10/143 88/9/144 79/9/100
f 85/11/145 67/9/79 69/11/146
f 67/9/75 85/11/145 86/9/124
f 23/12/147 66/10/139 68/10/148
f 66/10/149 23/12/147 56/12/150
f 36/12/151 75/10/113 76/10/138
f 75/10/152 36/12/151 32/12/153
f 83/10/154 23/12/155 68/10/148
f 23/12/155 83/10/118 24/12/156
f 91/13/51 90/13/51 89/13/51
f 90/13/51 91/13/51 92/13/51
f 95/14/157 94/15/158 93/14/157
f 94/15/158 95/14/157 96/15/158
f 99/12/3 98/12/3 97/12/3
f 98/12/3 99/12/3 100/12/3
f 103/16/159 102/17/160 101/17/160
f 102/17/160 103/16/159 104/16/159
f 97/12/161 92/13/161 91/13/161
f 92/13/161 97/12/161 105/13/161
f 105/13/161 97/12/161 98/12/161
f 105/13/161 106/18/161 92/13/161
f 107/19/161 106/18/161 105/13/161
f 107/19/161 94/15/161 106/18/161
f 107/19/161 93/14/161 94/15/161
f 103/16/161 93/14/161 107/19/161
f 103/16/161 108/20/161 93/14/161
f 101/17/161 108/20/161 103/16/161
f 108/20/161 101/17/161 109/11/161
f 104/16/162 107/19/163 110/19/163
f 107/19/163 104/16/162 103/16/162
f 107/19/164 111/13/165 110/19/164
f 111/13/166 107/19/164 105/13/165
f 102/17/167 113/20/167 112/11/167
f 113/20/167 102/17/167 104/16/167
f 113/20/167 104/16/167 95/14/167
f 95/14/167 104/16/167 110/19/167
f 95/14/167 110/19/167 96/15/167
f 96/15/167 110/19/167 114/18/167
f 114/18/167 110/19/167 111/13/167
f 114/18/167 111/13/167 90/13/167
f 99/12/167 90/13/167 111/13/167
f 99/12/167 111/13/167 100/12/167
f 90/13/167 99/12/167 89/13/167
f 105/13/168 100/12/169 111/13/170
f 100/12/169 105/13/168 98/12/169
f 106/18/171 96/15/172 114/18/171
f 96/15/172 106/18/171 94/15/172
f 92/13/173 114/18/174 90/13/173
f 114/18/174 92/13/173 106/18/174
f 101/17/175 112/11/176 109/11/176
f 112/11/176 101/17/175 102/17/175
f 113/20/177 93/14/178 108/20/177
f 93/14/178 113/20/177 95/14/178
f 117/17/179 116/16/180 115/16/180
f 116/16/180 117/17/179 118/17/179
f 121/12/3 120/12/3 119/12/3
f 120/12/3 121/12/3 122/12/3
f 125/13/51 124/13/51 123/13/51
f 124/13/51 125/13/51 126/13/51
f 127/11/181 118/17/182 117/17/182
f 118/17/182 127/11/181 128/11/181
f 130/19/183 116/16/184 129/19/183
f 116/16/184 130/19/183 115/16/184
f 132/13/185 129/19/186 131/13/187
f 129/19/186 132/13/187 130/19/186
f 135/15/188 134/18/189 133/18/189
f 134/18/189 135/15/188 136/15/188
f 135/15/190 137/14/191 136/15/190
f 137/14/191 135/15/190 138/14/191
f 122/12/167 124/13/167 126/13/167
f 124/13/167 122/12/167 131/13/167
f 131/13/167 122/12/167 121/12/167
f 131/13/167 133/18/167 124/13/167
f 129/19/167 133/18/167 131/13/167
f 129/19/167 135/15/167 133/18/167
f 129/19/167 138/14/167 135/15/167
f 116/16/167 138/14/167 129/19/167
f 116/16/167 139/20/167 138/14/167
f 118/17/167 139/20/167 116/16/167
f 139/20/167 118/17/167 128/11/167
f 138/14/192 140/20/193 137/14/192
f 140/20/193 138/14/192 139/20/193
f 134/18/194 124/13/195 133/18/194
f 124/13/195 134/18/194 123/13/195
f 117/17/161 140/20/161 127/11/161
f 140/20/161 117/17/161 115/16/161
f 140/20/161 115/16/161 137/14/161
f 137/14/161 115/16/161 130/19/161
f 137/14/161 130/19/161 136/15/161
f 136/15/161 130/19/161 134/18/161
f 134/18/161 130/19/161 132/13/161
f 134/18/161 132/13/161 123/13/161
f 120/12/161 123/13/161 132/13/161
f 120/12/161 132/13/161 119/12/161
f 123/13/161 120/12/161 125/13/161
f 119/12/196 131/13/197 121/12/196
f 131/13/197 119/12/196 132/13/198
f 3/1/1 2/2/2 1/2/1
f 2/2/2 3/1/1 4/1/2
f 7/2/3 6/2/3 5/2/3
f 6/2/3 7/2/3 8/2/3
f 6/2/3 8/2/3 9/2/3
f 9/2/3 8/2/3 1/2/3
f 9/2/3 1/2/3 10/2/3
f 10/2/3 1/2/3 2/2/3
f 5/2/4 11/1/5 7/2/5
f 11/1/5 5/2/4 12/1/4
f 13/1/6 1/2/7 8/2/6
f 1/2/7 13/1/6 3/1/7
f 14/1/8 5/2/4 6/2/8
f 5/2/4 14/1/8 12/1/4
f 15/1/9 6/2/10 9/2/9
f 6/2/10 15/1/9 14/1/10
f 16/1/11 9/2/9 10/2/11
f 9/2/9 16/1/11 15/1/9
f 7/2/12 13/1/6 8/2/6
f 13/1/6 7/2/12 11/1/12
f 16/1/13 2/2/2 4/1/2
f 2/2/2 16/1/13 10/2/13
f 19/3/14 18/4/15 17/3/16
f 18/4/15 19/3/17 20/4/18
f 23/5/19 22/4/20 21/4/21
f 22/4/22 23/5/19 24/5/22
f 22/4/23 26/3/24 25/3/25
f 26/3/24 22/4/23 27/4/26
f 30/3/27 29/4/28 28/4/29
f 29/4/28 30/3/27 31/3/30
f 20/4/31 33/5/32 32/5/31
f 33/5/32 20/4/33 28/4/34
f 19/3/17 35/6/35 34/6/36
f 35/6/35 19/3/17 17/3/16
f 32/5/37 18/4/38 20/4/31
f 18/4/39 32/5/37 36/5/39
f 35/6/35 38/3/40 37/6/41
f 38/3/42 35/6/35 17/3/16
f 28/4/34 39/5/43 33/5/34
f 39/5/43 28/4/34 29/4/44
f 42/3/45 41/6/46 40/6/47
f 41/6/48 42/3/49 25/3/25
f 19/3/17 28/4/29 20/4/18
f 28/4/29 19/3/17 30/3/50
f 41/6/51 37/6/51 40/6/51
f 37/6/51 41/6/51 35/6/51
f 35/6/51 41/6/51 43/6/51
f 35/6/51 43/6/51 34/6/51
f 34/6/51 43/6/51 44/6/51
f 34/6/51 44/6/51 45/6/51
f 46/5/52 29/4/44 27/4/53
f 29/4/44 46/5/52 39/5/44
f 44/6/54 30/3/27 45/6/55
f 30/3/27 44/6/54 31/3/30
f 24/5/56 27/4/53 22/4/22
f 27/4/57 24/5/56 46/5/57
f 49/7/3 48/7/3 47/7/3
f 48/7/3 49/7/3 12/7/3
f 49/7/3 11/7/3 12/7/3
f 48/7/3 12/7/3 14/7/3
f 11/7/3 49/7/3 50/7/3
f 11/7/3 50/7/3 13/7/3
f 48/7/3 14/7/3 51/7/3
f 51/7/3 14/7/3 15/7/3
f 51/7/3 15/7/3 16/7/3
f 51/7/3 16/7/3 52/7/3
f 13/7/3 50/7/3 53/7/3
f 13/7/3 53/7/3 3/7/3
f 52/7/3 16/7/3 4/7/3
f 3/7/3 53/7/3 4/7/3
f 52/7/3 4/7/3 54/7/3
f 4/7/3 53/7/3 54/7/3
f 17/3/16 55/4/58 38/3/42
f 55/4/58 17/3/16 18/4/15
f 38/3/42 21/4/59 42/3/45
f 21/4/59 38/3/40 55/4/58
f 21/4/59 25/3/25 42/3/60
f 25/3/25 21/4/59 22/4/23
f 56/5/61 18/4/62 36/5/62
f 18/4/39 56/5/63 55/4/63
f 29/4/28 26/3/24 27/4/26
f 26/3/24 29/4/28 31/3/64
f 31/3/64 43/6/65 26/3/24
f 43/6/65 31/3/30 44/6/66
f 25/3/25 43/6/65 41/6/67
f 43/6/65 25/3/25 26/3/24
f 34/6/68 30/3/69 19/3/17
f 30/3/27 34/6/70 45/6/55
f 38/3/40 40/6/47 37/6/71
f 40/6/47 38/3/40 42/3/45
f 23/5/19 55/4/63 56/5/63
f 55/4/63 23/5/21 21/4/21
f 47/7/2 57/8/13 49/7/13
f 57/8/13 47/7/2 58/8/2
f 49/7/11 59/8/9 50/7/9
f 59/8/9 49/7/11 57/8/11
f 54/7/4 61/8/8 60/8/4
f 61/8/8 54/7/72 53/7/8
f 53/7/10 59/8/9 61/8/10
f 59/8/9 53/7/10 50/7/9
f 51/7/6 63/8/73 62/8/6
f 63/8/12 51/7/74 52/7/12
f 63/8/5 54/7/4 60/8/4
f 54/7/4 63/8/5 52/7/5
f 48/7/1 58/8/2 47/7/2
f 58/8/2 48/7/1 64/8/1
f 48/7/7 62/8/6 64/8/7
f 62/8/6 48/7/7 51/7/6
f 67/9/75 66/10/76 65/9/77
f 66/10/76 67/9/75 68/10/78
f 67/9/79 70/11/80 69/11/81
f 70/11/80 67/9/75 65/9/82
f 65/9/82 71/11/83 70/11/84
f 71/11/83 65/9/77 72/9/85
f 73/10/86 33/12/87 39/12/88
f 33/12/87 73/10/89 74/10/90
f 77/9/91 76/10/92 75/10/93
f 76/10/92 77/9/94 72/9/95
f 78/9/96 75/10/97 74/10/98
f 75/10/97 78/9/99 77/9/94
f 74/10/98 79/9/100 78/9/101
f 79/9/102 74/10/98 73/10/103
f 78/9/101 80/11/104 77/9/94
f 80/11/104 78/9/105 81/11/106
f 72/9/107 80/11/108 71/11/109
f 80/11/108 72/9/95 77/9/91
f 33/12/110 75/10/111 32/12/112
f 75/10/113 33/12/110 74/10/90
f 79/9/100 81/11/114 78/9/101
f 81/11/114 79/9/102 82/11/115
f 84/10/116 24/12/117 83/10/118
f 24/12/117 84/10/119 46/12/120
f 87/11/121 86/9/122 85/11/123
f 86/9/124 87/11/121 88/9/125
f 86/9/122 84/10/126 83/10/127
f 84/10/126 86/9/124 88/9/125
f 87/11/128 79/9/100 88/9/125
f 79/9/102 87/11/128 82/11/129
f 72/9/107 66/10/130 76/10/92
f 66/10/130 72/9/131 65/9/77
f 84/10/132 39/12/133 46/12/134
f 39/12/133 84/10/119 73/10/89
f 67/9/79 83/10/135 68/10/78
f 83/10/135 67/9/136 86/9/124
f 56/12/137 76/10/138 66/10/139
f 76/10/140 56/12/137 36/12/141
f 88/9/142 73/10/143 84/10/126
f 73/10/143 88/9/144 79/9/100
f 85/11/145 67/9/79 69/11/146
f 67/9/75 85/11/145 86/9/124
f 23/12/147 66/10/139 68/10/148
f 66/10/149 23/12/147 56/12/150
f 36/12/151 75/10/113 76/10/138
f 75/10/152 36/12/151 32/12/153
f 83/10/154 23/12/155 68/10/148
f 23/12/155 83/10/118 24/12/156
f 91/13/51 90/13/51 89/13/51
f 90/13/51 91/13/51 92/13/51
f 95/14/157 94/15/158 93/14/157
f 94/15/158 95/14/157 96/15/158
f 99/12/3 98/12/3 97/12/3
f 98/12/3 99/12/3 100/12/3
f 103/16/159 102/17/160 101/17/160
f 102/17/160 103/16/159 104/16/159
f 97/12/161 92/13/161 91/13/161
f 92/13/161 97/12/161 105/13/161
f 105/13/161 97/12/161 98/12/161
f 105/13/161 106/18/161 92/13/161
f 107/19/161 106/18/161 105/13/161
f 107/19/161 94/15/161 106/18/161
f 107/19/161 93/14/161 94/15/161
f 103/16/161 93/14/161 107/19/161
f 103/16/161 108/20/161 93/14/161
f 101/17/161 108/20/161 103/16/161
f 108/20/161 101/17/161 109/11/161
f 104/16/162 107/19/163 110/19/163
f 107/19/163 104/16/162 103/16/162
f 107/19/164 111/13/165 110/19/164
f 111/13/166 107/19/164 105/13/165
f 102/17/167 113/20/167 112/11/167
f 113/20/167 102/17/167 104/16/167
f 113/20/167 104/16/167 95/14/167
f 95/14/167 104/16/167 110/19/167
f 95/14/167 110/19/167 96/15/167
f 96/15/167 110/19/167 114/18/167
f 114/18/167 110/19/167 111/13/167
f 114/18/167 111/13/167 90/13/167
f 99/12/167 90/13/167 111/13/167
f 99/12/167 111/13/167 100/12/167
f 90/13/167 99/12/167 89/13/167
f 105/13/168 100/12/169 111/13/170
f 100/12/169 105/13/168 98/12/169
f 106/18/171 96/15/172 114/18/171
f 96/15/172 106/18/171 94/15/172
f 92/13/173 114/18/174 90/13/173
f 114/18/174 92/13/173 106/18/174
f 101/17/175 112/11/176 109/11/176
f 112/11/176 101/17/175 102/17/175
f 113/20/177 93/14/178 108/20/177
f 93/14/178 113/20/177 95/14/178
f 117/17/179 116/16/180 115/16/180
f 116/16/180 117/17/179 118/17/179
f 121/12/3 120/12/3 119/12/3
f 120/12/3 121/12/3 122/12/3
f 125/13/51 124/13/51 123/13/51
f 124/13/51 125/13/51 126/13/51
f 127/11/181 118/17/182 117/17/182
f 118/17/182 127/11/181 128/11/181
f 130/19/183 116/16/184 129/19/183
f 116/16/184 130/19/183 115/16/184
f 132/13/185 129/19/186 131/13/187
f 129/19/186 132/13/187 130/19/186
f 135/15/188 134/18/189 133/18/189
f 134/18/189 135/15/188 136/15/188
f 135/15/190 137/14/191 136/15/190
f 137/14/191 135/15/190 138/14/191
f 122/12/167 124/13/167 126/13/167
f 124/13/167 122/12/167 131/13/167
f 131/13/167 122/12/167 121/12/167
f 131/13/167 133/18/167 124/13/167
f 129/19/167 133/18/167 131/13/167
f 129/19/167 135/15/167 133/18/167
f 129/19/167 138/14/167 135/15/167
f 116/16/167 138/14/167 129/19/167
f 116/16/167 139/20/167 138/14/167
f 118/17/167 139/20/167 116/16/167
f 139/20/167 118/17/167 128/11/167
f 138/14/192 140/20/193 137/14/192
f 140/20/193 138/14/192 139/20/193
f 134/18/194 124/13/195 133/18/194
f 124/13/195 134/18/194 123/13/195
f 117/17/161 140/20/161 127/11/161
f 140/20/161 117/17/161 115/16/161
f 140/20/161 115/16/161 137/14/161
f 137/14/161 115/16/161 130/19/161
f 137/14/161 130/19/161 136/15/161
f 136/15/161 130/19/161 134/18/161
f 134/18/161 130/19/161 132/13/161
f 134/18/161 132/13/161 123/13/161
f 120/12/161 123/13/161 132/13/161
f 120/12/161 132/13/161 119/12/161
f 123/13/161 120/12/161 125/13/161
f 119/12/196 131/13/197 121/12/196
f 131/13/197 119/12/196 132/13/198
