# Blender 4.1.1
# www.blender.org
mtllib bed-single.mtl
o bed-single
v 0.414642 1.360830 -1.152858
v 0.414642 1.360830 -0.252858
v 0.364642 1.360830 -1.202858
v 0.364642 1.360830 -0.202858
v -0.035358 1.360830 -1.202858
v -0.035358 1.360830 -0.202858
v -0.085358 1.360830 -1.152858
v -0.085358 1.360830 -0.252858
v 0.364642 1.260830 -0.202858
v -0.035358 1.260830 -0.202858
v -0.085358 1.260830 -1.152858
v -0.035358 1.260830 -1.202858
v 0.364642 1.260830 -1.202858
v -0.085358 1.260830 -0.252858
v 0.414642 1.260830 -0.252858
v 0.414642 1.260830 -1.152858
v 0.014642 1.260830 -0.302858
v 0.014642 1.260830 -1.102858
v 0.314642 1.260830 -0.302858
v 0.314642 1.260830 -1.102858
v 0.014642 1.060830 -1.052858
v 0.014642 1.060830 -0.352858
v 0.314642 1.060830 -1.052858
v 0.314642 1.060830 -0.352858
v 0.314642 1.360830 -0.902858
v 0.014642 1.360830 -0.902858
v 0.314642 1.410830 -0.902858
v 0.014642 1.410830 -0.902858
v 0.314642 1.410830 -1.102858
v 0.014642 1.410830 -1.102858
v 0.314642 1.360830 -1.102858
v 0.014642 1.360830 -1.102858
vn -0.0000 1.0000 -0.0000
vn 0.3827 -0.0000 0.9239
vn -0.3827 -0.0000 0.9239
vn -0.9239 -0.0000 -0.3827
vn -0.3827 -0.0000 -0.9239
vn 0.3827 -0.0000 -0.9239
vn -0.9239 -0.0000 0.3827
vn 0.9239 -0.0000 0.3827
vn 0.9239 -0.0000 -0.3827
vn -0.0000 -1.0000 -0.0000
vn 0.3827 -0.0001 -0.9239
vn -0.3827 -0.0001 0.9239
vn -1.0000 -0.0000 -0.0000
vn -0.0000 -0.2425 -0.9701
vn -0.0000 -0.2425 0.9701
vn 1.0000 -0.0000 -0.0000
vn 0.5773 0.5774 0.5774
vn -0.0000 -0.0000 1.0000
vn -0.5774 0.5773 0.5774
vn -0.5773 0.5774 -0.5774
vn 0.5773 0.5774 -0.5774
vn -0.5773 0.5774 0.5774
vn 0.5774 0.5774 0.5773
vn 0.5774 0.5774 -0.5773
vn -0.0000 -0.0000 -1.0000
vn 0.5774 0.5773 -0.5774
vn -0.5774 0.5774 -0.5773
vn -0.5774 0.5774 0.5773
vt 0.343750 0.225000
vt 0.343750 0.158333
vt 0.218750 0.025000
vt 0.218750 0.158333
vt 0.218750 0.475000
vt 0.218750 0.275000
vt 0.468750 0.025000
s 0
usemtl colormap.002
f 3/1/1 2/1/1 1/1/1
f 2/1/1 3/1/1 4/1/1
f 4/1/1 3/1/1 5/1/1
f 4/1/1 5/1/1 6/1/1
f 6/1/1 5/1/1 7/1/1
f 6/1/1 7/1/1 8/1/1
f 4/1/2 10/2/3 9/2/2
f 10/2/3 4/1/2 6/1/3
f 7/1/4 12/2/5 11/2/4
f 12/2/5 7/1/4 5/1/5
f 5/1/5 13/2/6 12/2/5
f 13/2/6 5/1/5 3/1/6
f 14/2/7 7/1/4 11/2/4
f 7/1/4 14/2/7 8/1/7
f 2/1/8 9/2/2 15/2/8
f 9/2/2 2/1/8 4/1/2
f 2/1/8 16/2/9 1/1/9
f 16/2/9 2/1/8 15/2/8
f 11/2/10 10/2/10 14/2/10
f 12/2/10 10/2/10 11/2/10
f 17/2/10 10/2/10 12/2/10
f 12/2/10 18/2/10 17/2/10
f 19/2/10 10/2/10 17/2/10
f 12/2/10 20/2/10 18/2/10
f 19/2/10 9/2/10 10/2/10
f 9/2/10 19/2/10 20/2/10
f 13/2/10 20/2/10 12/2/10
f 13/2/10 9/2/10 20/2/10
f 13/2/10 15/2/10 9/2/10
f 15/2/10 13/2/10 16/2/10
f 1/1/9 13/2/6 3/1/11
f 13/2/6 1/1/9 16/2/9
f 10/2/3 8/1/7 14/2/7
f 8/1/7 10/2/3 6/1/12
f 21/3/13 17/4/13 18/4/13
f 17/4/13 21/3/13 22/3/13
f 18/4/14 23/3/14 21/3/14
f 23/3/14 18/4/14 20/4/14
f 24/3/10 21/3/10 23/3/10
f 21/3/10 24/3/10 22/3/10
f 19/4/15 22/3/15 24/3/15
f 22/3/15 19/4/15 17/4/15
f 19/4/16 23/3/16 20/4/16
f 23/3/16 19/4/16 24/3/16
f 27/5/17 26/6/18 25/6/18
f 26/6/18 27/5/17 28/5/19
f 30/5/20 27/5/17 29/5/21
f 27/5/17 30/5/20 28/5/22
f 27/5/23 31/6/16 29/5/24
f 31/6/16 27/5/23 25/6/16
f 30/5/20 31/6/25 32/6/25
f 31/6/25 30/5/20 29/5/26
f 26/6/13 30/5/27 32/6/13
f 30/5/27 26/6/13 28/5/28
f 25/7/10 32/7/10 31/7/10
f 32/7/10 25/7/10 26/7/10
f 3/1/1 2/1/1 1/1/1
f 2/1/1 3/1/1 4/1/1
f 4/1/1 3/1/1 5/1/1
f 4/1/1 5/1/1 6/1/1
f 6/1/1 5/1/1 7/1/1
f 6/1/1 7/1/1 8/1/1
f 4/1/2 10/2/3 9/2/2
f 10/2/3 4/1/2 6/1/3
f 7/1/4 12/2/5 11/2/4
f 12/2/5 7/1/4 5/1/5
f 5/1/5 13/2/6 12/2/5
f 13/2/6 5/1/5 3/1/6
f 14/2/7 7/1/4 11/2/4
f 7/1/4 14/2/7 8/1/7
f 2/1/8 9/2/2 15/2/8
f 9/2/2 2/1/8 4/1/2
f 2/1/8 16/2/9 1/1/9
f 16/2/9 2/1/8 15/2/8
f 11/2/10 10/2/10 14/2/10
f 12/2/10 10/2/10 11/2/10
f 17/2/10 10/2/10 12/2/10
f 12/2/10 18/2/10 17/2/10
f 19/2/10 10/2/10 17/2/10
f 12/2/10 20/2/10 18/2/10
f 19/2/10 9/2/10 10/2/10
f 9/2/10 19/2/10 20/2/10
f 13/2/10 20/2/10 12/2/10
f 13/2/10 9/2/10 20/2/10
f 13/2/10 15/2/10 9/2/10
f 15/2/10 13/2/10 16/2/10
f 1/1/9 13/2/6 3/1/11
f 13/2/6 1/1/9 16/2/9
f 10/2/3 8/1/7 14/2/7
f 8/1/7 10/2/3 6/1/12
f 21/3/13 17/4/13 18/4/13
f 17/4/13 21/3/13 22/3/13
f 18/4/14 23/3/14 21/3/14
f 23/3/14 18/4/14 20/4/14
f 24/3/10 21/3/10 23/3/10
f 21/3/10 24/3/10 22/3/10
f 19/4/15 22/3/15 24/3/15
f 22/3/15 19/4/15 17/4/15
f 19/4/16 23/3/16 20/4/16
f 23/3/16 19/4/16 24/3/16
f 27/5/17 26/6/18 25/6/18
f 26/6/18 27/5/17 28/5/19
f 30/5/20 27/5/17 29/5/21
f 27/5/17 30/5/20 28/5/22
f 27/5/23 31/6/16 29/5/24
f 31/6/16 27/5/23 25/6/16
f 30/5/20 31/6/25 32/6/25
f 31/6/25 30/5/20 29/5/26
f 26/6/13 30/5/27 32/6/13
f 30/5/27 26/6/13 28/5/28
f 25/7/10 32/7/10 31/7/10
f 32/7/10 25/7/10 26/7/10
