# Blender 4.1.1
# www.blender.org
mtllib patch-grass-large.mtl
o patch-grass-large
v -0.700000 -0.000000 0.000000
v -0.700000 -0.200000 0.000000
v -0.673205 0.100000 0.000000
v -0.673205 -0.300000 0.000000
v -0.600000 0.173205 0.000000
v -0.600000 -0.373205 0.000000
v -0.500000 0.200000 0.000000
v -0.500000 -0.400000 0.000000
v -0.500000 0.400000 0.000000
v -0.473205 0.500000 0.000000
v -0.473205 -0.500000 0.000000
v -0.400000 0.573205 0.000000
v -0.400000 -0.573205 0.000000
v -0.300000 0.600000 0.000000
v -0.300000 -0.600000 0.000000
v -0.200000 -0.573205 0.000000
v -0.126795 -0.500000 0.000000
v -0.100000 -0.400000 0.000000
v -0.100000 0.600000 0.000000
v -0.073205 -0.300000 0.000000
v -0.000000 -0.226795 0.000000
v 0.000000 0.573205 0.000000
v 0.073205 0.500000 0.000000
v 0.100000 0.400000 0.000000
v 0.100000 -0.200000 0.000000
v 0.200000 0.373205 0.000000
v 0.273205 0.300000 0.000000
v 0.300000 0.200000 0.000000
v 0.500000 -0.200000 0.000000
v 0.500000 0.200000 0.000000
v 0.600000 -0.173205 0.000000
v 0.600000 0.173205 0.000000
v 0.673205 0.100000 0.000000
v 0.673205 -0.100000 0.000000
v 0.700000 -0.000000 0.000000
vn -0.0000 -0.0000 -1.0000
vn -0.0000 -0.0000 -0.0000
vt 0.093750 0.275000
s 0
usemtl colormap.018
f 3/1/1 2/1/1 1/1/1
f 3/1/1 4/1/1 2/1/1
f 5/1/1 4/1/1 3/1/1
f 5/1/1 6/1/1 4/1/1
f 7/1/1 6/1/1 5/1/1
f 6/1/1 7/1/1 8/1/1
f 9/1/2 8/1/2 7/1/2
f 10/1/1 8/1/1 9/1/1
f 10/1/1 11/1/1 8/1/1
f 12/1/1 11/1/1 10/1/1
f 12/1/1 13/1/1 11/1/1
f 14/1/1 13/1/1 12/1/1
f 14/1/1 15/1/1 13/1/1
f 14/1/1 16/1/1 15/1/1
f 14/1/1 17/1/1 16/1/1
f 14/1/1 18/1/1 17/1/1
f 19/1/1 18/1/1 14/1/1
f 19/1/1 20/1/1 18/1/1
f 19/1/1 21/1/1 20/1/1
f 22/1/1 21/1/1 19/1/1
f 23/1/1 21/1/1 22/1/1
f 24/1/1 21/1/1 23/1/1
f 24/1/1 25/1/1 21/1/1
f 26/1/1 25/1/1 24/1/1
f 27/1/1 25/1/1 26/1/1
f 28/1/1 25/1/1 27/1/1
f 28/1/1 29/1/1 25/1/1
f 30/1/1 29/1/1 28/1/1
f 30/1/1 31/1/1 29/1/1
f 32/1/1 31/1/1 30/1/1
f 33/1/1 31/1/1 32/1/1
f 33/1/1 34/1/1 31/1/1
f 34/1/1 33/1/1 35/1/1
f 3/1/1 2/1/1 1/1/1
f 3/1/1 4/1/1 2/1/1
f 5/1/1 4/1/1 3/1/1
f 5/1/1 6/1/1 4/1/1
f 7/1/1 6/1/1 5/1/1
f 6/1/1 7/1/1 8/1/1
f 9/1/2 8/1/2 7/1/2
f 10/1/1 8/1/1 9/1/1
f 10/1/1 11/1/1 8/1/1
f 12/1/1 11/1/1 10/1/1
f 12/1/1 13/1/1 11/1/1
f 14/1/1 13/1/1 12/1/1
f 14/1/1 15/1/1 13/1/1
f 14/1/1 16/1/1 15/1/1
f 14/1/1 17/1/1 16/1/1
f 14/1/1 18/1/1 17/1/1
f 19/1/1 18/1/1 14/1/1
f 19/1/1 20/1/1 18/1/1
f 19/1/1 21/1/1 20/1/1
f 22/1/1 21/1/1 19/1/1
f 23/1/1 21/1/1 22/1/1
f 24/1/1 21/1/1 23/1/1
f 24/1/1 25/1/1 21/1/1
f 26/1/1 25/1/1 24/1/1
f 27/1/1 25/1/1 26/1/1
f 28/1/1 25/1/1 27/1/1
f 28/1/1 29/1/1 25/1/1
f 30/1/1 29/1/1 28/1/1
f 30/1/1 31/1/1 29/1/1
f 32/1/1 31/1/1 30/1/1
f 33/1/1 31/1/1 32/1/1
f 33/1/1 34/1/1 31/1/1
f 34/1/1 33/1/1 35/1/1
