# Blender 4.1.1
# www.blender.org
mtllib @column.002.mtl
o column.001
v -0.298437 0.850000 -2.250000
v -0.298437 1.000000 -2.250000
v -0.298437 0.850000 -1.750000
v -0.298437 1.000000 -1.750000
v 0.251563 0.850000 -2.300000
v 0.301563 0.850000 -2.250000
v 0.251563 1.000000 -2.300000
v 0.301563 1.000000 -2.250000
v 0.301563 0.850000 -1.750000
v 0.251563 0.850000 -1.700000
v -0.248438 0.850000 -1.700000
v -0.248438 0.850000 -2.300000
v 0.301563 1.000000 -1.750000
v 0.251563 1.000000 -1.700000
v -0.248438 1.000000 -2.300000
v -0.248438 1.000000 -1.700000
v -0.298437 -0.000000 -2.250000
v -0.248438 -0.000000 -2.300000
v -0.298437 0.150000 -2.250000
v -0.248438 0.150000 -2.300000
v -0.248438 0.000000 -1.700000
v -0.298437 0.000000 -1.750000
v -0.248438 0.150000 -1.700000
v -0.298437 0.150000 -1.750000
v 0.301563 0.000000 -1.750000
v 0.251563 0.000000 -1.700000
v 0.301563 0.150000 -1.750000
v 0.251563 0.150000 -1.700000
v 0.251563 -0.000000 -2.300000
v 0.251563 0.150000 -2.300000
v 0.301563 0.150000 -2.250000
v 0.301563 -0.000000 -2.250000
v -0.272273 0.708579 -2.200000
v -0.301563 0.779289 -2.200000
v -0.272273 0.708579 -1.800000
v -0.301563 0.779289 -1.800000
v -0.130852 0.708579 -1.800000
v -0.130852 0.708579 -2.200000
v -0.201563 0.679289 -1.800000
v -0.201563 0.679289 -2.200000
v 0.198437 0.679289 -1.800000
v 0.198437 0.679289 -2.200000
v 0.127727 0.708579 -1.800000
v 0.127727 0.708579 -2.200000
v 0.098438 0.779289 -2.200000
v 0.098438 0.779289 -1.800000
v 0.269148 0.850000 -2.200000
v 0.298438 0.779289 -2.200000
v 0.269148 0.850000 -1.800000
v 0.298438 0.779289 -1.800000
v -0.272273 0.850000 -2.200000
v -0.272273 0.850000 -1.800000
v 0.269148 0.708579 -1.800000
v 0.269148 0.708579 -2.200000
v -0.101562 0.779289 -1.800000
v -0.101562 0.779289 -2.200000
v 0.251563 0.250000 -2.229289
v 0.251563 0.250000 -1.770711
v 0.230852 0.250000 -2.250000
v 0.230852 0.250000 -1.750000
v -0.227727 0.250000 -2.250000
v -0.227727 0.250000 -1.750000
v -0.248438 0.250000 -2.229289
v -0.248438 0.250000 -1.770711
v -0.248438 0.150000 -1.770711
v -0.227727 0.150000 -1.750000
v -0.248438 0.150000 -2.229289
v -0.227727 0.150000 -2.250000
v 0.251563 0.150000 -1.770711
v 0.230852 0.150000 -1.750000
v 0.251563 0.150000 -2.229289
v 0.230852 0.150000 -2.250000
v -0.160661 0.250000 -1.934099
v -0.160661 0.850000 -1.934099
v -0.160661 0.250000 -1.880676
v -0.160661 0.850000 -1.880676
v -0.067464 0.250000 -1.840901
v -0.120887 0.250000 -1.840901
v -0.067464 0.850000 -1.840901
v -0.120887 0.850000 -1.840901
v -0.160661 0.250000 -2.119324
v -0.120887 0.250000 -2.159099
v -0.160661 0.850000 -2.119324
v -0.120887 0.850000 -2.159099
v -0.160661 0.250000 -2.065901
v -0.160661 0.850000 -2.065901
v -0.067464 0.250000 -2.159099
v -0.067464 0.850000 -2.159099
v 0.064338 0.250000 -2.159099
v 0.117762 0.250000 -2.159099
v 0.064338 0.850000 -2.159099
v 0.117762 0.850000 -2.159099
v 0.157537 0.850000 -2.119324
v 0.157537 0.250000 -2.119324
v 0.157537 0.250000 -1.880676
v 0.117762 0.250000 -1.840901
v 0.157537 0.850000 -1.880676
v 0.117762 0.850000 -1.840901
v 0.064338 0.250000 -1.840901
v 0.064338 0.850000 -1.840901
v 0.157537 0.850000 -1.934099
v 0.157537 0.250000 -1.934099
v 0.157537 0.850000 -2.065901
v 0.157537 0.250000 -2.065901
v -0.029688 0.250000 -2.196875
v -0.029688 0.850000 -2.196875
v 0.026562 0.250000 -1.803125
v -0.029688 0.250000 -1.803125
v 0.026562 0.850000 -1.803125
v -0.029688 0.850000 -1.803125
v 0.195312 0.250000 -1.971875
v 0.195312 0.850000 -1.971875
v -0.198437 0.250000 -2.028125
v -0.198437 0.850000 -2.028125
v 0.195312 0.850000 -2.028125
v 0.195312 0.250000 -2.028125
v -0.198437 0.250000 -1.971875
v -0.198437 0.850000 -1.971875
v 0.026562 0.850000 -2.196875
v 0.026562 0.250000 -2.196875
vn -0.9239 -0.0000 0.3827
vn -0.9239 -0.0000 -0.3827
vn 0.3827 -0.0000 -0.9239
vn 0.9239 -0.0000 -0.3827
vn -0.0000 -1.0000 -0.0000
vn 0.9239 -0.0000 0.3827
vn 0.3827 -0.0000 0.9239
vn -0.3827 -0.0000 -0.9239
vn -0.0000 1.0000 -0.0000
vn -0.3827 -0.0000 0.9239
vn -0.3827 0.0001 -0.9239
vn -0.3827 -0.0001 0.9239
vn 0.3827 0.0001 0.9239
vn 0.3827 -0.0001 -0.9239
vn -0.7071 -0.7071 -0.0000
vn -1.0000 -0.0000 -0.0000
vn 0.7071 -0.7071 -0.0000
vn -0.0000 -1.0000 0.0001
vn -0.0000 -1.0000 -0.0002
vn -0.5556 -0.8315 -0.0000
vn 0.9239 0.3827 -0.0000
vn 1.0000 -0.0000 0.0001
vn 1.0000 -0.0000 -0.0000
vn -0.9239 0.3827 -0.0000
vn -0.7071 -0.7071 0.0001
vn -0.0000 -0.0000 1.0000
vn 0.5556 -0.8315 -0.0000
vn 1.0000 -0.0000 -0.0001
vn -0.0000 -0.0000 -1.0000
vn -0.7071 -0.0000 -0.7071
vn 0.7071 -0.0000 0.7071
vn 0.7071 -0.0000 -0.7071
vn 0.9239 0.0001 -0.3827
vn -0.7071 -0.0000 0.7071
vn -0.9239 0.0001 0.3827
vt 0.093750 0.025000
vt 0.093750 0.225000
vt 0.968750 0.042157
vt 0.968750 0.083579
vt 0.968750 0.025000
vt 0.968750 0.125000
vt 0.968750 0.225000
s 0
usemtl colormap
f 3/1/1 2/2/2 1/1/2
f 2/2/2 3/1/1 4/2/1
f 7/2/3 6/1/4 5/1/3
f 6/1/4 7/2/3 8/2/4
f 10/1/5 6/1/5 9/1/5
f 6/1/5 10/1/5 5/1/5
f 5/1/5 10/1/5 11/1/5
f 5/1/5 11/1/5 12/1/5
f 12/1/5 11/1/5 3/1/5
f 12/1/5 3/1/5 1/1/5
f 13/2/6 6/1/4 8/2/4
f 6/1/4 13/2/6 9/1/6
f 13/2/6 10/1/7 9/1/6
f 10/1/7 13/2/6 14/2/7
f 15/2/8 5/1/3 12/1/8
f 5/1/3 15/2/8 7/2/3
f 2/2/2 12/1/8 1/1/2
f 12/1/8 2/2/2 15/2/8
f 7/2/9 13/2/9 8/2/9
f 13/2/9 7/2/9 14/2/9
f 14/2/9 7/2/9 15/2/9
f 14/2/9 15/2/9 16/2/9
f 16/2/9 15/2/9 2/2/9
f 16/2/9 2/2/9 4/2/9
f 16/2/10 3/1/1 11/1/10
f 3/1/1 16/2/10 4/2/1
f 14/2/7 11/1/10 10/1/7
f 11/1/10 14/2/7 16/2/10
f 19/2/2 18/1/11 17/1/2
f 18/1/8 19/2/2 20/2/8
f 23/2/10 22/1/1 21/1/10
f 22/1/1 23/2/12 24/2/1
f 27/2/6 26/1/13 25/1/6
f 26/1/7 27/2/6 28/2/7
f 20/2/8 29/1/3 18/1/8
f 29/1/3 20/2/8 30/2/3
f 27/2/6 32/1/4 31/2/4
f 32/1/4 27/2/6 25/1/6
f 30/2/9 27/2/9 31/2/9
f 27/2/9 30/2/9 28/2/9
f 28/2/9 30/2/9 20/2/9
f 28/2/9 20/2/9 23/2/9
f 23/2/9 20/2/9 19/2/9
f 23/2/9 19/2/9 24/2/9
f 26/1/5 32/1/5 25/1/5
f 32/1/5 26/1/5 29/1/5
f 29/1/5 26/1/5 21/1/5
f 29/1/5 21/1/5 18/1/5
f 18/1/5 21/1/5 22/1/5
f 18/1/5 22/1/5 17/1/5
f 22/1/1 19/2/2 17/1/2
f 19/2/2 22/1/1 24/2/1
f 30/2/3 32/1/4 29/1/3
f 32/1/4 30/2/14 31/2/4
f 28/2/7 21/1/10 26/1/7
f 21/1/10 28/2/7 23/2/10
f 35/3/15 34/4/16 33/3/15
f 34/4/16 35/3/15 36/4/16
f 39/5/5 38/3/17 37/3/17
f 38/3/17 39/5/5 40/5/18
f 43/3/15 42/5/5 41/5/19
f 42/5/5 43/3/15 44/3/15
f 43/3/15 45/4/20 44/3/15
f 45/4/20 43/3/15 46/4/20
f 49/6/21 48/4/22 47/6/21
f 48/4/23 49/6/21 50/4/23
f 36/4/16 51/6/24 34/4/16
f 51/6/24 36/4/16 52/6/24
f 35/3/15 40/5/5 39/5/5
f 40/5/5 35/3/15 33/3/25
f 41/5/5 54/3/17 53/3/17
f 54/3/17 41/5/5 42/5/5
f 53/3/26 43/3/26 41/5/26
f 43/3/26 53/3/26 50/4/26
f 43/3/26 50/4/26 46/4/26
f 46/4/26 50/4/26 49/6/26
f 46/4/26 49/6/26 55/4/26
f 55/4/26 49/6/26 36/4/26
f 36/4/26 49/6/26 52/6/26
f 35/3/26 55/4/26 36/4/26
f 35/3/26 37/3/26 55/4/26
f 37/3/26 35/3/26 39/5/26
f 55/4/27 38/3/17 56/4/27
f 38/3/17 55/4/27 37/3/17
f 50/4/23 54/3/17 48/4/23
f 54/3/17 50/4/28 53/3/17
f 55/4/27 45/4/20 46/4/20
f 45/4/20 55/4/27 56/4/27
f 33/3/29 38/3/29 40/5/29
f 38/3/29 33/3/29 34/4/29
f 38/3/29 34/4/29 56/4/29
f 56/4/29 34/4/29 51/6/29
f 56/4/29 51/6/29 45/4/29
f 45/4/29 51/6/29 48/4/29
f 48/4/29 51/6/29 47/6/29
f 54/3/29 45/4/29 48/4/29
f 54/3/29 44/3/29 45/4/29
f 44/3/29 54/3/29 42/5/29
f 59/6/9 58/6/9 57/6/9
f 58/6/9 59/6/9 60/6/9
f 60/6/9 59/6/9 61/6/9
f 60/6/9 61/6/9 62/6/9
f 62/6/9 61/6/9 63/6/9
f 62/6/9 63/6/9 64/6/9
f 66/5/10 64/6/1 65/5/1
f 64/6/1 66/5/10 62/6/10
f 63/6/2 68/5/8 67/5/2
f 68/5/8 63/6/2 61/6/8
f 65/5/1 63/6/2 67/5/2
f 63/6/2 65/5/1 64/6/1
f 58/6/6 70/5/7 69/5/6
f 70/5/7 58/6/6 60/6/7
f 58/6/6 71/5/4 57/6/4
f 71/5/4 58/6/6 69/5/6
f 61/6/8 72/5/3 68/5/8
f 72/5/3 61/6/8 59/6/3
f 60/6/7 66/5/10 70/5/7
f 66/5/10 60/6/7 62/6/10
f 57/6/4 72/5/3 59/6/3
f 72/5/3 57/6/4 71/5/4
f 75/7/1 74/5/16 73/7/16
f 74/5/16 75/7/1 76/5/1
f 79/5/26 78/7/10 77/7/26
f 78/7/10 79/5/26 80/5/10
f 83/5/2 82/7/11 81/7/2
f 82/7/8 83/5/2 84/5/8
f 78/7/10 76/5/1 75/7/1
f 76/5/1 78/7/10 80/5/10
f 85/7/16 83/5/2 81/7/2
f 83/5/2 85/7/16 86/5/16
f 84/5/8 87/7/29 82/7/8
f 87/7/29 84/5/8 88/5/29
f 91/5/29 90/7/3 89/7/29
f 90/7/3 91/5/29 92/5/3
f 93/5/4 90/7/3 92/5/3
f 90/7/3 93/5/4 94/7/4
f 97/5/6 96/7/13 95/7/6
f 96/7/7 97/5/6 98/5/7
f 98/5/7 99/7/26 96/7/7
f 99/7/26 98/5/7 100/5/26
f 97/5/6 102/7/23 101/5/23
f 102/7/23 97/5/6 95/7/6
f 103/5/23 94/7/4 93/5/4
f 94/7/4 103/5/23 104/7/23
f 88/5/30 105/6/8 87/6/30
f 105/6/8 88/5/30 106/5/8
f 109/5/7 108/6/10 107/6/7
f 108/6/10 109/5/7 110/5/10
f 112/5/6 102/6/31 111/6/6
f 102/6/31 112/5/6 101/5/31
f 114/5/2 85/6/30 113/6/2
f 85/6/30 114/5/2 86/5/30
f 115/5/4 104/6/32 103/5/32
f 104/6/32 115/5/4 116/6/33
f 73/6/34 118/5/1 117/6/35
f 118/5/1 73/6/34 74/5/34
f 117/6/1 114/5/2 113/6/2
f 114/5/2 117/6/1 118/5/1
f 91/5/32 120/6/3 119/5/3
f 120/6/3 91/5/32 89/6/32
f 106/5/8 120/6/3 105/6/8
f 120/6/3 106/5/8 119/5/3
f 108/6/10 79/5/34 77/6/34
f 79/5/34 108/6/10 110/5/10
f 100/5/31 107/6/7 99/6/31
f 107/6/7 100/5/31 109/5/7
f 112/5/6 116/6/4 115/5/4
f 116/6/4 112/5/6 111/6/6
f 3/1/1 2/2/2 1/1/2
f 2/2/2 3/1/1 4/2/1
f 7/2/3 6/1/4 5/1/3
f 6/1/4 7/2/3 8/2/4
f 10/1/5 6/1/5 9/1/5
f 6/1/5 10/1/5 5/1/5
f 5/1/5 10/1/5 11/1/5
f 5/1/5 11/1/5 12/1/5
f 12/1/5 11/1/5 3/1/5
f 12/1/5 3/1/5 1/1/5
f 13/2/6 6/1/4 8/2/4
f 6/1/4 13/2/6 9/1/6
f 13/2/6 10/1/7 9/1/6
f 10/1/7 13/2/6 14/2/7
f 15/2/8 5/1/3 12/1/8
f 5/1/3 15/2/8 7/2/3
f 2/2/2 12/1/8 1/1/2
f 12/1/8 2/2/2 15/2/8
f 7/2/9 13/2/9 8/2/9
f 13/2/9 7/2/9 14/2/9
f 14/2/9 7/2/9 15/2/9
f 14/2/9 15/2/9 16/2/9
f 16/2/9 15/2/9 2/2/9
f 16/2/9 2/2/9 4/2/9
f 16/2/10 3/1/1 11/1/10
f 3/1/1 16/2/10 4/2/1
f 14/2/7 11/1/10 10/1/7
f 11/1/10 14/2/7 16/2/10
f 19/2/2 18/1/11 17/1/2
f 18/1/8 19/2/2 20/2/8
f 23/2/10 22/1/1 21/1/10
f 22/1/1 23/2/12 24/2/1
f 27/2/6 26/1/13 25/1/6
f 26/1/7 27/2/6 28/2/7
f 20/2/8 29/1/3 18/1/8
f 29/1/3 20/2/8 30/2/3
f 27/2/6 32/1/4 31/2/4
f 32/1/4 27/2/6 25/1/6
f 30/2/9 27/2/9 31/2/9
f 27/2/9 30/2/9 28/2/9
f 28/2/9 30/2/9 20/2/9
f 28/2/9 20/2/9 23/2/9
f 23/2/9 20/2/9 19/2/9
f 23/2/9 19/2/9 24/2/9
f 26/1/5 32/1/5 25/1/5
f 32/1/5 26/1/5 29/1/5
f 29/1/5 26/1/5 21/1/5
f 29/1/5 21/1/5 18/1/5
f 18/1/5 21/1/5 22/1/5
f 18/1/5 22/1/5 17/1/5
f 22/1/1 19/2/2 17/1/2
f 19/2/2 22/1/1 24/2/1
f 30/2/3 32/1/4 29/1/3
f 32/1/4 30/2/14 31/2/4
f 28/2/7 21/1/10 26/1/7
f 21/1/10 28/2/7 23/2/10
f 35/3/15 34/4/16 33/3/15
f 34/4/16 35/3/15 36/4/16
f 39/5/5 38/3/17 37/3/17
f 38/3/17 39/5/5 40/5/18
f 43/3/15 42/5/5 41/5/19
f 42/5/5 43/3/15 44/3/15
f 43/3/15 45/4/20 44/3/15
f 45/4/20 43/3/15 46/4/20
f 49/6/21 48/4/22 47/6/21
f 48/4/23 49/6/21 50/4/23
f 36/4/16 51/6/24 34/4/16
f 51/6/24 36/4/16 52/6/24
f 35/3/15 40/5/5 39/5/5
f 40/5/5 35/3/15 33/3/25
f 41/5/5 54/3/17 53/3/17
f 54/3/17 41/5/5 42/5/5
f 53/3/26 43/3/26 41/5/26
f 43/3/26 53/3/26 50/4/26
f 43/3/26 50/4/26 46/4/26
f 46/4/26 50/4/26 49/6/26
f 46/4/26 49/6/26 55/4/26
f 55/4/26 49/6/26 36/4/26
f 36/4/26 49/6/26 52/6/26
f 35/3/26 55/4/26 36/4/26
f 35/3/26 37/3/26 55/4/26
f 37/3/26 35/3/26 39/5/26
f 55/4/27 38/3/17 56/4/27
f 38/3/17 55/4/27 37/3/17
f 50/4/23 54/3/17 48/4/23
f 54/3/17 50/4/28 53/3/17
f 55/4/27 45/4/20 46/4/20
f 45/4/20 55/4/27 56/4/27
f 33/3/29 38/3/29 40/5/29
f 38/3/29 33/3/29 34/4/29
f 38/3/29 34/4/29 56/4/29
f 56/4/29 34/4/29 51/6/29
f 56/4/29 51/6/29 45/4/29
f 45/4/29 51/6/29 48/4/29
f 48/4/29 51/6/29 47/6/29
f 54/3/29 45/4/29 48/4/29
f 54/3/29 44/3/29 45/4/29
f 44/3/29 54/3/29 42/5/29
f 59/6/9 58/6/9 57/6/9
f 58/6/9 59/6/9 60/6/9
f 60/6/9 59/6/9 61/6/9
f 60/6/9 61/6/9 62/6/9
f 62/6/9 61/6/9 63/6/9
f 62/6/9 63/6/9 64/6/9
f 66/5/10 64/6/1 65/5/1
f 64/6/1 66/5/10 62/6/10
f 63/6/2 68/5/8 67/5/2
f 68/5/8 63/6/2 61/6/8
f 65/5/1 63/6/2 67/5/2
f 63/6/2 65/5/1 64/6/1
f 58/6/6 70/5/7 69/5/6
f 70/5/7 58/6/6 60/6/7
f 58/6/6 71/5/4 57/6/4
f 71/5/4 58/6/6 69/5/6
f 61/6/8 72/5/3 68/5/8
f 72/5/3 61/6/8 59/6/3
f 60/6/7 66/5/10 70/5/7
f 66/5/10 60/6/7 62/6/10
f 57/6/4 72/5/3 59/6/3
f 72/5/3 57/6/4 71/5/4
f 75/7/1 74/5/16 73/7/16
f 74/5/16 75/7/1 76/5/1
f 79/5/26 78/7/10 77/7/26
f 78/7/10 79/5/26 80/5/10
f 83/5/2 82/7/11 81/7/2
f 82/7/8 83/5/2 84/5/8
f 78/7/10 76/5/1 75/7/1
f 76/5/1 78/7/10 80/5/10
f 85/7/16 83/5/2 81/7/2
f 83/5/2 85/7/16 86/5/16
f 84/5/8 87/7/29 82/7/8
f 87/7/29 84/5/8 88/5/29
f 91/5/29 90/7/3 89/7/29
f 90/7/3 91/5/29 92/5/3
f 93/5/4 90/7/3 92/5/3
f 90/7/3 93/5/4 94/7/4
f 97/5/6 96/7/13 95/7/6
f 96/7/7 97/5/6 98/5/7
f 98/5/7 99/7/26 96/7/7
f 99/7/26 98/5/7 100/5/26
f 97/5/6 102/7/23 101/5/23
f 102/7/23 97/5/6 95/7/6
f 103/5/23 94/7/4 93/5/4
f 94/7/4 103/5/23 104/7/23
f 88/5/30 105/6/8 87/6/30
f 105/6/8 88/5/30 106/5/8
f 109/5/7 108/6/10 107/6/7
f 108/6/10 109/5/7 110/5/10
f 112/5/6 102/6/31 111/6/6
f 102/6/31 112/5/6 101/5/31
f 114/5/2 85/6/30 113/6/2
f 85/6/30 114/5/2 86/5/30
f 115/5/4 104/6/32 103/5/32
f 104/6/32 115/5/4 116/6/33
f 73/6/34 118/5/1 117/6/35
f 118/5/1 73/6/34 74/5/34
f 117/6/1 114/5/2 113/6/2
f 114/5/2 117/6/1 118/5/1
f 91/5/32 120/6/3 119/5/3
f 120/6/3 91/5/32 89/6/32
f 106/5/8 120/6/3 105/6/8
f 120/6/3 106/5/8 119/5/3
f 108/6/10 79/5/34 77/6/34
f 79/5/34 108/6/10 110/5/10
f 100/5/31 107/6/7 99/6/31
f 107/6/7 100/5/31 109/5/7
f 112/5/6 116/6/4 115/5/4
f 116/6/4 112/5/6 111/6/6
