# Blender 4.1.1
# www.blender.org
mtllib @column.001.mtl
o column
v 19.208563 4.058013 -1.250000
v 19.208563 5.108013 -1.250000
v 19.208563 4.058013 1.250000
v 19.208563 5.108013 1.250000
v 21.958563 4.058013 -1.500000
v 22.208563 4.058013 -1.250000
v 21.958563 5.108013 -1.500000
v 22.208563 5.108013 -1.250000
v 22.208563 4.058013 1.250000
v 21.958563 4.058013 1.500000
v 19.458563 4.058013 1.500000
v 19.458563 4.058013 -1.500000
v 22.208563 5.108013 1.250000
v 21.958563 5.108013 1.500000
v 19.458563 5.108013 -1.500000
v 19.458563 5.108013 1.500000
v 19.208563 -1.891988 -1.250000
v 19.458563 -1.891988 -1.500000
v 19.208563 -0.841987 -1.250000
v 19.458563 -0.841987 -1.500000
v 19.458563 -1.891987 1.500000
v 19.208563 -1.891987 1.250000
v 19.458563 -0.841987 1.500000
v 19.208563 -0.841987 1.250000
v 22.208563 -1.891987 1.250000
v 21.958563 -1.891987 1.500000
v 22.208563 -0.841987 1.250000
v 21.958563 -0.841987 1.500000
v 21.958563 -1.891988 -1.500000
v 21.958563 -0.841987 -1.500000
v 22.208563 -0.841987 -1.250000
v 22.208563 -1.891988 -1.250000
v 19.339384 3.068063 -1.000000
v 19.192938 3.563038 -1.000000
v 19.339384 3.068063 1.000000
v 19.192938 3.563038 1.000000
v 20.046492 3.068063 1.000000
v 20.046492 3.068063 -1.000000
v 19.692938 2.863038 1.000000
v 19.692938 2.863038 -1.000000
v 21.692938 2.863038 1.000000
v 21.692938 2.863038 -1.000000
v 21.339384 3.068063 1.000000
v 21.339384 3.068063 -1.000000
v 21.192938 3.563038 -1.000000
v 21.192938 3.563038 1.000000
v 22.046492 4.058013 -1.000000
v 22.192938 3.563038 -1.000000
v 22.046492 4.058013 1.000000
v 22.192938 3.563038 1.000000
v 19.339384 4.058013 -1.000000
v 19.339384 4.058013 1.000000
v 22.046492 3.068063 1.000000
v 22.046492 3.068063 -1.000000
v 20.192938 3.563038 1.000000
v 20.192938 3.563038 -1.000000
v 21.958563 -0.141988 -1.146447
v 21.958563 -0.141987 1.146446
v 21.855009 -0.141988 -1.250000
v 21.855009 -0.141987 1.250000
v 19.562117 -0.141988 -1.250000
v 19.562117 -0.141987 1.250000
v 19.458563 -0.141988 -1.146447
v 19.458563 -0.141987 1.146446
v 19.458563 -0.841987 1.146446
v 19.562117 -0.841987 1.250000
v 19.458563 -0.841987 -1.146447
v 19.562117 -0.841987 -1.250000
v 21.958563 -0.841987 1.146446
v 21.855009 -0.841987 1.250000
v 21.958563 -0.841987 -1.146447
v 21.855009 -0.841987 -1.250000
v 19.897442 -0.141987 0.329505
v 19.897442 4.058013 0.329504
v 19.897442 -0.141987 0.596621
v 19.897442 4.058013 0.596621
v 20.363434 -0.141987 0.795495
v 20.096317 -0.141987 0.795495
v 20.363434 4.058013 0.795494
v 20.096317 4.058013 0.795494
v 19.897442 -0.141987 -0.596622
v 20.096317 -0.141988 -0.795495
v 19.897442 4.058013 -0.596622
v 20.096317 4.058013 -0.795495
v 19.897442 -0.141987 -0.329505
v 19.897442 4.058013 -0.329505
v 20.363434 -0.141988 -0.795495
v 20.363434 4.058013 -0.795495
v 21.022442 -0.141988 -0.795495
v 21.289558 -0.141988 -0.795495
v 21.022442 4.058013 -0.795495
v 21.289558 4.058013 -0.795495
v 21.488434 4.058013 -0.596622
v 21.488434 -0.141987 -0.596622
v 21.488434 -0.141987 0.596621
v 21.289558 -0.141987 0.795495
v 21.488434 4.058013 0.596621
v 21.289558 4.058013 0.795494
v 21.022442 -0.141987 0.795495
v 21.022442 4.058013 0.795494
v 21.488434 4.058013 0.329504
v 21.488434 -0.141987 0.329505
v 21.488434 4.058013 -0.329505
v 21.488434 -0.141987 -0.329505
v 20.552313 -0.141988 -0.984375
v 20.552313 4.058013 -0.984375
v 20.833563 -0.141987 0.984375
v 20.552313 -0.141987 0.984375
v 20.833563 4.058013 0.984375
v 20.552313 4.058013 0.984375
v 21.677313 -0.141987 0.140625
v 21.677313 4.058013 0.140625
v 19.708563 -0.141987 -0.140625
v 19.708563 4.058013 -0.140625
v 21.677313 4.058013 -0.140625
v 21.677313 -0.141987 -0.140625
v 19.708563 -0.141987 0.140625
v 19.708563 4.058013 0.140625
v 20.833563 4.058013 -0.984375
v 20.833563 -0.141988 -0.984375
vn -0.9239 -0.0213 0.3821
vn -0.9239 0.0127 -0.3824
vn -0.9239 -0.0000 -0.3827
vn -0.9239 0.0213 -0.3821
vn -0.9239 -0.0127 0.3824
vn -0.9239 -0.0000 0.3827
vn 0.3828 0.0119 -0.9237
vn 0.9232 -0.0270 -0.3834
vn 0.3827 -0.0000 -0.9239
vn 0.9237 -0.0119 -0.3828
vn 0.3834 0.0270 -0.9232
vn 0.9239 -0.0000 -0.3827
vn -0.0000 -1.0000 -0.0000
vn 0.9239 0.0213 0.3821
vn 0.9239 -0.0127 -0.3824
vn 0.9239 -0.0213 -0.3821
vn 0.9239 0.0127 0.3824
vn 0.9239 -0.0000 0.3827
vn 0.9237 0.0119 0.3828
vn 0.3834 -0.0270 0.9232
vn 0.3828 -0.0119 0.9237
vn 0.9232 0.0270 0.3834
vn 0.3827 -0.0000 0.9239
vn -0.3824 0.0128 -0.9239
vn 0.3821 -0.0213 -0.9239
vn -0.3827 -0.0000 -0.9239
vn 0.3824 -0.0128 -0.9239
vn -0.3821 0.0213 -0.9239
vn -0.9237 0.0119 -0.3828
vn -0.3834 -0.0270 -0.9232
vn -0.3828 -0.0119 -0.9237
vn -0.9232 0.0270 -0.3834
vn -0.0000 1.0000 -0.0000
vn -0.3828 0.0119 0.9237
vn -0.9232 -0.0270 0.3834
vn -0.3827 -0.0000 0.9239
vn -0.9237 -0.0119 0.3828
vn -0.3834 0.0270 0.9232
vn 0.3824 0.0128 0.9239
vn -0.3821 -0.0213 0.9239
vn -0.3824 -0.0128 0.9239
vn 0.3821 0.0213 0.9239
vn -0.3834 -0.0269 -0.9232
vn -0.3834 0.0269 0.9232
vn 0.3834 -0.0269 0.9232
vn 0.3834 0.0269 -0.9232
vn -0.7774 -0.6290 -0.0063
vn -0.9944 0.1045 0.0156
vn -0.7774 -0.6290 -0.0000
vn -0.9945 0.1048 0.0063
vn -0.7775 -0.6287 -0.0156
vn -0.9945 0.1048 -0.0000
vn 0.1325 -0.9912 -0.0031
vn 0.7945 -0.6073 0.0012
vn 0.7945 -0.6073 -0.0000
vn 0.7945 -0.6073 0.0031
vn 0.1325 -0.9912 -0.0012
vn 0.1325 -0.9912 0.0001
vn -0.7945 -0.6073 -0.0031
vn -0.1325 -0.9912 0.0012
vn -0.1325 -0.9912 -0.0002
vn -0.1325 -0.9912 0.0031
vn -0.7945 -0.6073 -0.0012
vn -0.7945 -0.6073 -0.0000
vn -0.6397 -0.7686 -0.0000
vn -0.6399 -0.7680 -0.0272
vn 0.9589 0.2837 -0.0000
vn 0.9944 -0.1045 0.0157
vn 0.9945 -0.1048 0.0063
vn 0.9945 -0.1048 -0.0000
vn -0.9945 -0.1048 -0.0063
vn -0.9589 0.2837 -0.0000
vn -0.9945 -0.1048 -0.0000
vn -0.9944 -0.1045 -0.0156
vn -0.1325 -0.9912 -0.0000
vn -0.7945 -0.6073 0.0001
vn 0.1325 -0.9912 -0.0000
vn -0.0000 -0.0000 1.0000
vn 0.6399 -0.7680 0.0272
vn 0.7775 -0.6287 0.0156
vn 0.6397 -0.7686 -0.0000
vn 0.7774 -0.6290 0.0063
vn 0.7774 -0.6290 -0.0000
vn 0.9945 0.1048 -0.0063
vn 0.9945 0.1048 -0.0000
vn 0.9944 0.1045 -0.0157
vn 0.5556 -0.8315 -0.0000
vn -0.5556 -0.8315 -0.0000
vn -0.0000 -0.0000 -1.0000
vn -0.3831 -0.0189 0.9235
vn -0.9238 0.0079 0.3828
vn -0.9235 0.0189 0.3831
vn -0.3828 -0.0079 0.9238
vn -0.9238 0.0079 -0.3828
vn -0.3831 -0.0189 -0.9235
vn -0.3828 -0.0079 -0.9238
vn -0.9235 0.0189 -0.3831
vn -0.9239 -0.0162 0.3823
vn -0.9239 0.0099 -0.3825
vn -0.9239 0.0162 -0.3823
vn -0.9239 -0.0099 0.3825
vn 0.9238 0.0079 0.3828
vn 0.3830 -0.0189 0.9235
vn 0.3828 -0.0079 0.9238
vn 0.9235 0.0189 0.3830
vn 0.9239 0.0162 0.3823
vn 0.9239 -0.0099 -0.3825
vn 0.9239 -0.0162 -0.3823
vn 0.9239 0.0099 0.3825
vn -0.3825 0.0100 -0.9239
vn 0.3823 -0.0162 -0.9239
vn 0.3825 -0.0100 -0.9239
vn -0.3823 0.0162 -0.9239
vn 0.3825 0.0100 0.9239
vn -0.3823 -0.0162 0.9239
vn -0.3825 -0.0100 0.9239
vn 0.3823 0.0162 0.9239
vn 0.9235 0.0189 -0.3830
vn 0.3828 -0.0079 -0.9238
vn 0.3830 -0.0189 -0.9235
vn 0.9238 0.0079 -0.3828
vn -0.9239 -0.0063 0.3826
vn -1.0000 -0.0000 -0.0000
vn -0.9239 -0.0024 0.3826
vn -0.3826 -0.0063 0.9239
vn -0.3826 -0.0024 0.9239
vn -0.9239 0.0025 -0.3827
vn -0.3827 -0.0065 -0.9238
vn -0.3827 -0.0025 -0.9239
vn -0.9238 0.0067 -0.3828
vn -0.3827 -0.0066 0.9238
vn -0.9239 0.0026 0.3827
vn -0.9238 0.0066 0.3828
vn -0.3827 -0.0026 0.9239
vn -0.9239 0.0024 -0.3826
vn -0.9239 0.0063 -0.3826
vn -0.3826 0.0024 -0.9239
vn -0.3826 0.0063 -0.9239
vn 0.3826 -0.0063 -0.9239
vn 0.3826 -0.0024 -0.9239
vn 0.9238 0.0066 -0.3828
vn 0.3827 -0.0026 -0.9239
vn 0.3828 -0.0066 -0.9238
vn 0.9239 0.0026 -0.3827
vn 0.9239 0.0025 0.3827
vn 0.3828 -0.0065 0.9238
vn 0.3827 -0.0025 0.9239
vn 0.9238 0.0067 0.3828
vn 0.3826 0.0024 0.9239
vn 0.3826 0.0063 0.9239
vn 0.9239 0.0063 0.3826
vn 1.0000 -0.0000 -0.0000
vn 0.9239 0.0024 0.3826
vn 0.9239 -0.0024 -0.3826
vn 0.9239 -0.0063 -0.3826
vn -0.7071 -0.0000 -0.7071
vn -0.3827 -0.0063 -0.9238
vn -0.3827 -0.0024 -0.9239
vn 0.3826 0.0025 0.9239
vn -0.3826 -0.0067 0.9239
vn -0.3826 -0.0025 0.9239
vn 0.3826 0.0067 0.9239
vn 0.9239 0.0024 0.3827
vn 0.7071 -0.0000 0.7071
vn 0.9238 0.0063 0.3828
vn -0.9239 0.0024 -0.3827
vn -0.9238 0.0063 -0.3827
vn 0.9238 0.0063 -0.3828
vn 0.7071 -0.0000 -0.7071
vn 0.9239 0.0024 -0.3827
vn 0.9239 0.0001 -0.3827
vn -0.7071 -0.0000 0.7071
vn -0.9239 0.0024 0.3827
vn -0.9239 0.0001 0.3827
vn -0.9238 0.0063 0.3827
vn -0.9239 -0.0066 0.3826
vn -0.9239 0.0026 -0.3826
vn -0.9239 0.0066 -0.3826
vn -0.9239 -0.0026 0.3826
vn 0.3827 -0.0024 -0.9239
vn 0.3827 -0.0063 -0.9238
vn -0.3826 0.0025 -0.9239
vn 0.3826 -0.0067 -0.9239
vn 0.3826 -0.0025 -0.9239
vn -0.3826 0.0067 -0.9239
vn -0.3827 -0.0063 0.9238
vn -0.3827 -0.0024 0.9239
vn 0.3828 -0.0063 0.9238
vn 0.3827 -0.0024 0.9239
vn 0.9239 0.0066 0.3826
vn 0.9239 -0.0026 -0.3826
vn 0.9239 -0.0066 -0.3826
vn 0.9239 0.0026 0.3826
vt 0.093750 0.025000
vt 0.093750 0.225000
vt 0.968750 0.042157
vt 0.968750 0.083579
vt 0.968750 0.025000
vt 0.968750 0.125000
vt 0.968750 0.225000
s 0
usemtl colormap.002
f 3/1/1 2/2/2 1/1/3
f 2/2/4 3/1/5 4/2/6
f 7/2/7 6/1/8 5/1/9
f 6/1/10 7/2/11 8/2/12
f 10/1/13 6/1/13 9/1/13
f 6/1/13 10/1/13 5/1/13
f 5/1/13 10/1/13 11/1/13
f 5/1/13 11/1/13 12/1/13
f 12/1/13 11/1/13 3/1/13
f 12/1/13 3/1/13 1/1/13
f 13/2/14 6/1/15 8/2/12
f 6/1/16 13/2/17 9/1/18
f 13/2/19 10/1/20 9/1/18
f 10/1/21 13/2/22 14/2/23
f 15/2/24 5/1/25 12/1/26
f 5/1/27 15/2/28 7/2/9
f 2/2/29 12/1/30 1/1/3
f 12/1/31 2/2/32 15/2/26
f 7/2/33 13/2/33 8/2/33
f 13/2/33 7/2/33 14/2/33
f 14/2/33 7/2/33 15/2/33
f 14/2/33 15/2/33 16/2/33
f 16/2/33 15/2/33 2/2/33
f 16/2/33 2/2/33 4/2/33
f 16/2/34 3/1/35 11/1/36
f 3/1/37 16/2/38 4/2/6
f 14/2/39 11/1/40 10/1/23
f 11/1/41 14/2/42 16/2/36
f 19/2/29 18/1/43 17/1/3
f 18/1/31 19/2/32 20/2/26
f 23/2/34 22/1/35 21/1/36
f 22/1/37 23/2/44 24/2/6
f 27/2/19 26/1/45 25/1/18
f 26/1/21 27/2/22 28/2/23
f 20/2/24 29/1/25 18/1/26
f 29/1/27 20/2/28 30/2/9
f 27/2/14 32/1/15 31/2/12
f 32/1/16 27/2/17 25/1/18
f 30/2/33 27/2/33 31/2/33
f 27/2/33 30/2/33 28/2/33
f 28/2/33 30/2/33 20/2/33
f 28/2/33 20/2/33 23/2/33
f 23/2/33 20/2/33 19/2/33
f 23/2/33 19/2/33 24/2/33
f 26/1/13 32/1/13 25/1/13
f 32/1/13 26/1/13 29/1/13
f 29/1/13 26/1/13 21/1/13
f 29/1/13 21/1/13 18/1/13
f 18/1/13 21/1/13 22/1/13
f 18/1/13 22/1/13 17/1/13
f 22/1/1 19/2/2 17/1/3
f 19/2/4 22/1/5 24/2/6
f 30/2/7 32/1/8 29/1/9
f 32/1/10 30/2/46 31/2/12
f 28/2/39 21/1/40 26/1/23
f 21/1/41 28/2/42 23/2/36
f 35/3/47 34/4/48 33/3/49
f 34/4/50 35/3/51 36/4/52
f 39/5/53 38/3/54 37/3/55
f 38/3/56 39/5/57 40/5/58
f 43/3/59 42/5/60 41/5/61
f 42/5/62 43/3/63 44/3/64
f 43/3/47 45/4/65 44/3/49
f 45/4/66 43/3/51 46/4/65
f 49/6/67 48/4/68 47/6/67
f 48/4/69 49/6/67 50/4/70
f 36/4/71 51/6/72 34/4/73
f 51/6/72 36/4/74 52/6/72
f 35/3/59 40/5/60 39/5/75
f 40/5/62 35/3/63 33/3/76
f 41/5/53 54/3/54 53/3/55
f 54/3/56 41/5/57 42/5/77
f 53/3/78 43/3/78 41/5/78
f 43/3/78 53/3/78 50/4/78
f 43/3/78 50/4/78 46/4/78
f 46/4/78 50/4/78 49/6/78
f 46/4/78 49/6/78 55/4/78
f 55/4/78 49/6/78 36/4/78
f 36/4/78 49/6/78 52/6/78
f 35/3/78 55/4/78 36/4/78
f 35/3/78 37/3/78 55/4/78
f 37/3/78 35/3/78 39/5/78
f 55/4/79 38/3/80 56/4/81
f 38/3/82 55/4/81 37/3/83
f 50/4/84 54/3/80 48/4/85
f 54/3/82 50/4/86 53/3/83
f 55/4/87 45/4/88 46/4/88
f 45/4/88 55/4/87 56/4/87
f 33/3/89 38/3/89 40/5/89
f 38/3/89 33/3/89 34/4/89
f 38/3/89 34/4/89 56/4/89
f 56/4/89 34/4/89 51/6/89
f 56/4/89 51/6/89 45/4/89
f 45/4/89 51/6/89 48/4/89
f 48/4/89 51/6/89 47/6/89
f 54/3/89 45/4/89 48/4/89
f 54/3/89 44/3/89 45/4/89
f 44/3/89 54/3/89 42/5/89
f 59/6/33 58/6/33 57/6/33
f 58/6/33 59/6/33 60/6/33
f 60/6/33 59/6/33 61/6/33
f 60/6/33 61/6/33 62/6/33
f 62/6/33 61/6/33 63/6/33
f 62/6/33 63/6/33 64/6/33
f 66/5/90 64/6/91 65/5/6
f 64/6/92 66/5/93 62/6/36
f 63/6/94 68/5/95 67/5/3
f 68/5/96 63/6/97 61/6/26
f 65/5/98 63/6/99 67/5/3
f 63/6/100 65/5/101 64/6/6
f 58/6/102 70/5/103 69/5/18
f 70/5/104 58/6/105 60/6/23
f 58/6/106 71/5/107 57/6/12
f 71/5/108 58/6/109 69/5/18
f 61/6/110 72/5/111 68/5/26
f 72/5/112 61/6/113 59/6/9
f 60/6/114 66/5/115 70/5/23
f 66/5/116 60/6/117 62/6/36
f 57/6/118 72/5/119 59/6/9
f 72/5/120 57/6/121 71/5/12
f 75/7/122 74/5/123 73/7/123
f 74/5/123 75/7/124 76/5/6
f 79/5/78 78/7/125 77/7/78
f 78/7/126 79/5/78 80/5/36
f 83/5/127 82/7/128 81/7/3
f 82/7/129 83/5/130 84/5/26
f 78/7/131 76/5/132 75/7/6
f 76/5/133 78/7/134 80/5/36
f 85/7/123 83/5/135 81/7/3
f 83/5/136 85/7/123 86/5/123
f 84/5/137 87/7/89 82/7/26
f 87/7/89 84/5/138 88/5/89
f 91/5/89 90/7/139 89/7/89
f 90/7/140 91/5/89 92/5/9
f 93/5/141 90/7/142 92/5/9
f 90/7/143 93/5/144 94/7/12
f 97/5/145 96/7/146 95/7/18
f 96/7/147 97/5/148 98/5/23
f 98/5/149 99/7/78 96/7/23
f 99/7/78 98/5/150 100/5/78
f 97/5/151 102/7/152 101/5/152
f 102/7/152 97/5/153 95/7/18
f 103/5/152 94/7/154 93/5/12
f 94/7/155 103/5/152 104/7/152
f 88/5/156 105/6/157 87/6/156
f 105/6/158 88/5/156 106/5/26
f 109/5/159 108/6/160 107/6/23
f 108/6/161 109/5/162 110/5/36
f 112/5/163 102/6/164 111/6/18
f 102/6/164 112/5/165 101/5/164
f 114/5/166 85/6/156 113/6/3
f 85/6/156 114/5/167 86/5/156
f 115/5/168 104/6/169 103/5/169
f 104/6/169 115/5/170 116/6/171
f 73/6/172 118/5/173 117/6/174
f 118/5/175 73/6/172 74/5/172
f 117/6/176 114/5/177 113/6/3
f 114/5/178 117/6/179 118/5/6
f 91/5/169 120/6/180 119/5/9
f 120/6/181 91/5/169 89/6/169
f 106/5/182 120/6/183 105/6/26
f 120/6/184 106/5/185 119/5/9
f 108/6/186 79/5/172 77/6/172
f 79/5/172 108/6/187 110/5/36
f 100/5/164 107/6/188 99/6/164
f 107/6/189 100/5/164 109/5/23
f 112/5/190 116/6/191 115/5/12
f 116/6/192 112/5/193 111/6/18
f 3/1/1 2/2/2 1/1/3
f 2/2/4 3/1/5 4/2/6
f 7/2/7 6/1/8 5/1/9
f 6/1/10 7/2/11 8/2/12
f 10/1/13 6/1/13 9/1/13
f 6/1/13 10/1/13 5/1/13
f 5/1/13 10/1/13 11/1/13
f 5/1/13 11/1/13 12/1/13
f 12/1/13 11/1/13 3/1/13
f 12/1/13 3/1/13 1/1/13
f 13/2/14 6/1/15 8/2/12
f 6/1/16 13/2/17 9/1/18
f 13/2/19 10/1/20 9/1/18
f 10/1/21 13/2/22 14/2/23
f 15/2/24 5/1/25 12/1/26
f 5/1/27 15/2/28 7/2/9
f 2/2/29 12/1/30 1/1/3
f 12/1/31 2/2/32 15/2/26
f 7/2/33 13/2/33 8/2/33
f 13/2/33 7/2/33 14/2/33
f 14/2/33 7/2/33 15/2/33
f 14/2/33 15/2/33 16/2/33
f 16/2/33 15/2/33 2/2/33
f 16/2/33 2/2/33 4/2/33
f 16/2/34 3/1/35 11/1/36
f 3/1/37 16/2/38 4/2/6
f 14/2/39 11/1/40 10/1/23
f 11/1/41 14/2/42 16/2/36
f 19/2/29 18/1/43 17/1/3
f 18/1/31 19/2/32 20/2/26
f 23/2/34 22/1/35 21/1/36
f 22/1/37 23/2/44 24/2/6
f 27/2/19 26/1/45 25/1/18
f 26/1/21 27/2/22 28/2/23
f 20/2/24 29/1/25 18/1/26
f 29/1/27 20/2/28 30/2/9
f 27/2/14 32/1/15 31/2/12
f 32/1/16 27/2/17 25/1/18
f 30/2/33 27/2/33 31/2/33
f 27/2/33 30/2/33 28/2/33
f 28/2/33 30/2/33 20/2/33
f 28/2/33 20/2/33 23/2/33
f 23/2/33 20/2/33 19/2/33
f 23/2/33 19/2/33 24/2/33
f 26/1/13 32/1/13 25/1/13
f 32/1/13 26/1/13 29/1/13
f 29/1/13 26/1/13 21/1/13
f 29/1/13 21/1/13 18/1/13
f 18/1/13 21/1/13 22/1/13
f 18/1/13 22/1/13 17/1/13
f 22/1/1 19/2/2 17/1/3
f 19/2/4 22/1/5 24/2/6
f 30/2/7 32/1/8 29/1/9
f 32/1/10 30/2/46 31/2/12
f 28/2/39 21/1/40 26/1/23
f 21/1/41 28/2/42 23/2/36
f 35/3/47 34/4/48 33/3/49
f 34/4/50 35/3/51 36/4/52
f 39/5/53 38/3/54 37/3/55
f 38/3/56 39/5/57 40/5/58
f 43/3/59 42/5/60 41/5/61
f 42/5/62 43/3/63 44/3/64
f 43/3/47 45/4/65 44/3/49
f 45/4/66 43/3/51 46/4/65
f 49/6/67 48/4/68 47/6/67
f 48/4/69 49/6/67 50/4/70
f 36/4/71 51/6/72 34/4/73
f 51/6/72 36/4/74 52/6/72
f 35/3/59 40/5/60 39/5/75
f 40/5/62 35/3/63 33/3/76
f 41/5/53 54/3/54 53/3/55
f 54/3/56 41/5/57 42/5/77
f 53/3/78 43/3/78 41/5/78
f 43/3/78 53/3/78 50/4/78
f 43/3/78 50/4/78 46/4/78
f 46/4/78 50/4/78 49/6/78
f 46/4/78 49/6/78 55/4/78
f 55/4/78 49/6/78 36/4/78
f 36/4/78 49/6/78 52/6/78
f 35/3/78 55/4/78 36/4/78
f 35/3/78 37/3/78 55/4/78
f 37/3/78 35/3/78 39/5/78
f 55/4/79 38/3/80 56/4/81
f 38/3/82 55/4/81 37/3/83
f 50/4/84 54/3/80 48/4/85
f 54/3/82 50/4/86 53/3/83
f 55/4/87 45/4/88 46/4/88
f 45/4/88 55/4/87 56/4/87
f 33/3/89 38/3/89 40/5/89
f 38/3/89 33/3/89 34/4/89
f 38/3/89 34/4/89 56/4/89
f 56/4/89 34/4/89 51/6/89
f 56/4/89 51/6/89 45/4/89
f 45/4/89 51/6/89 48/4/89
f 48/4/89 51/6/89 47/6/89
f 54/3/89 45/4/89 48/4/89
f 54/3/89 44/3/89 45/4/89
f 44/3/89 54/3/89 42/5/89
f 59/6/33 58/6/33 57/6/33
f 58/6/33 59/6/33 60/6/33
f 60/6/33 59/6/33 61/6/33
f 60/6/33 61/6/33 62/6/33
f 62/6/33 61/6/33 63/6/33
f 62/6/33 63/6/33 64/6/33
f 66/5/90 64/6/91 65/5/6
f 64/6/92 66/5/93 62/6/36
f 63/6/94 68/5/95 67/5/3
f 68/5/96 63/6/97 61/6/26
f 65/5/98 63/6/99 67/5/3
f 63/6/100 65/5/101 64/6/6
f 58/6/102 70/5/103 69/5/18
f 70/5/104 58/6/105 60/6/23
f 58/6/106 71/5/107 57/6/12
f 71/5/108 58/6/109 69/5/18
f 61/6/110 72/5/111 68/5/26
f 72/5/112 61/6/113 59/6/9
f 60/6/114 66/5/115 70/5/23
f 66/5/116 60/6/117 62/6/36
f 57/6/118 72/5/119 59/6/9
f 72/5/120 57/6/121 71/5/12
f 75/7/122 74/5/123 73/7/123
f 74/5/123 75/7/124 76/5/6
f 79/5/78 78/7/125 77/7/78
f 78/7/126 79/5/78 80/5/36
f 83/5/127 82/7/128 81/7/3
f 82/7/129 83/5/130 84/5/26
f 78/7/131 76/5/132 75/7/6
f 76/5/133 78/7/134 80/5/36
f 85/7/123 83/5/135 81/7/3
f 83/5/136 85/7/123 86/5/123
f 84/5/137 87/7/89 82/7/26
f 87/7/89 84/5/138 88/5/89
f 91/5/89 90/7/139 89/7/89
f 90/7/140 91/5/89 92/5/9
f 93/5/141 90/7/142 92/5/9
f 90/7/143 93/5/144 94/7/12
f 97/5/145 96/7/146 95/7/18
f 96/7/147 97/5/148 98/5/23
f 98/5/149 99/7/78 96/7/23
f 99/7/78 98/5/150 100/5/78
f 97/5/151 102/7/152 101/5/152
f 102/7/152 97/5/153 95/7/18
f 103/5/152 94/7/154 93/5/12
f 94/7/155 103/5/152 104/7/152
f 88/5/156 105/6/157 87/6/156
f 105/6/158 88/5/156 106/5/26
f 109/5/159 108/6/160 107/6/23
f 108/6/161 109/5/162 110/5/36
f 112/5/163 102/6/164 111/6/18
f 102/6/164 112/5/165 101/5/164
f 114/5/166 85/6/156 113/6/3
f 85/6/156 114/5/167 86/5/156
f 115/5/168 104/6/169 103/5/169
f 104/6/169 115/5/170 116/6/171
f 73/6/172 118/5/173 117/6/174
f 118/5/175 73/6/172 74/5/172
f 117/6/176 114/5/177 113/6/3
f 114/5/178 117/6/179 118/5/6
f 91/5/169 120/6/180 119/5/9
f 120/6/181 91/5/169 89/6/169
f 106/5/182 120/6/183 105/6/26
f 120/6/184 106/5/185 119/5/9
f 108/6/186 79/5/172 77/6/172
f 79/5/172 108/6/187 110/5/36
f 100/5/164 107/6/188 99/6/164
f 107/6/189 100/5/164 109/5/23
f 112/5/190 116/6/191 115/5/12
f 116/6/192 112/5/193 111/6/18
