# Blender 4.1.1
# www.blender.org
mtllib @column.008.mtl
o column.003
v 1.532740 4.058013 -21.910196
v 1.532740 5.108013 -21.910196
v -0.967260 4.058013 -21.910196
v -0.967260 5.108013 -21.910196
v 1.782740 4.058013 -19.160196
v 1.532740 4.058013 -18.910196
v 1.782740 5.108013 -19.160196
v 1.532740 5.108013 -18.910196
v -0.967260 4.058013 -18.910196
v -1.217260 4.058013 -19.160196
v -1.217260 4.058013 -21.660196
v 1.782740 4.058013 -21.660196
v -0.967260 5.108013 -18.910196
v -1.217260 5.108013 -19.160196
v 1.782740 5.108013 -21.660196
v -1.217260 5.108013 -21.660196
v 1.532740 -1.891988 -21.910196
v 1.782740 -1.891988 -21.660196
v 1.532740 -0.841987 -21.910196
v 1.782740 -0.841987 -21.660196
v -1.217260 -1.891987 -21.660196
v -0.967260 -1.891987 -21.910196
v -1.217260 -0.841987 -21.660196
v -0.967260 -0.841987 -21.910196
v -0.967260 -1.891987 -18.910196
v -1.217260 -1.891987 -19.160196
v -0.967260 -0.841987 -18.910196
v -1.217260 -0.841987 -19.160196
v 1.782740 -1.891988 -19.160196
v 1.782740 -0.841987 -19.160196
v 1.532740 -0.841987 -18.910196
v 1.532740 -1.891988 -18.910196
v 1.282740 3.068063 -21.779375
v 1.282740 3.563038 -21.925821
v -0.717260 3.068063 -21.779375
v -0.717260 3.563038 -21.925821
v -0.717260 3.068063 -21.072268
v 1.282740 3.068063 -21.072268
v -0.717260 2.863038 -21.425821
v 1.282740 2.863038 -21.425821
v -0.717260 2.863038 -19.425821
v 1.282740 2.863038 -19.425821
v -0.717260 3.068063 -19.779375
v 1.282740 3.068063 -19.779375
v 1.282740 3.563038 -19.925821
v -0.717260 3.563038 -19.925821
v 1.282740 4.058013 -19.072268
v 1.282740 3.563038 -18.925821
v -0.717260 4.058013 -19.072268
v -0.717260 3.563038 -18.925821
v 1.282740 4.058013 -21.779375
v -0.717260 4.058013 -21.779375
v -0.717260 3.068063 -19.072268
v 1.282740 3.068063 -19.072268
v -0.717260 3.563038 -20.925821
v 1.282740 3.563038 -20.925821
v 1.429186 -0.141988 -19.160196
v -0.863707 -0.141987 -19.160196
v 1.532740 -0.141988 -19.263750
v -0.967260 -0.141987 -19.263750
v 1.532740 -0.141988 -21.556643
v -0.967260 -0.141987 -21.556643
v 1.429186 -0.141988 -21.660196
v -0.863707 -0.141987 -21.660196
v -0.863707 -0.841987 -21.660196
v -0.967260 -0.841987 -21.556643
v 1.429186 -0.841987 -21.660196
v 1.532740 -0.841987 -21.556643
v -0.863707 -0.841987 -19.160196
v -0.967260 -0.841987 -19.263750
v 1.429186 -0.841987 -19.160196
v 1.532740 -0.841987 -19.263750
v -0.046765 -0.141987 -21.221317
v -0.046765 4.058013 -21.221317
v -0.313882 -0.141987 -21.221315
v -0.313881 4.058013 -21.221315
v -0.512755 -0.141987 -20.755325
v -0.512755 -0.141987 -21.022442
v -0.512755 4.058013 -20.755325
v -0.512755 4.058013 -21.022442
v 0.879361 -0.141987 -21.221317
v 1.078235 -0.141988 -21.022444
v 0.879362 4.058013 -21.221317
v 1.078235 4.058013 -21.022444
v 0.612245 -0.141987 -21.221317
v 0.612245 4.058013 -21.221317
v 1.078235 -0.141988 -20.755325
v 1.078235 4.058013 -20.755325
v 1.078235 -0.141988 -20.096317
v 1.078235 -0.141988 -19.829201
v 1.078235 4.058013 -20.096317
v 1.078235 4.058013 -19.829201
v 0.879362 4.058013 -19.630327
v 0.879361 -0.141987 -19.630327
v -0.313882 -0.141987 -19.630325
v -0.512755 -0.141987 -19.829199
v -0.313881 4.058013 -19.630325
v -0.512755 4.058013 -19.829199
v -0.512755 -0.141987 -20.096317
v -0.512755 4.058013 -20.096317
v -0.046765 4.058013 -19.630325
v -0.046765 -0.141987 -19.630325
v 0.612245 4.058013 -19.630325
v 0.612245 -0.141987 -19.630325
v 1.267115 -0.141988 -20.566446
v 1.267115 4.058013 -20.566446
v -0.701635 -0.141987 -20.285196
v -0.701635 -0.141987 -20.566446
v -0.701635 4.058013 -20.285196
v -0.701635 4.058013 -20.566446
v 0.142115 -0.141987 -19.441446
v 0.142115 4.058013 -19.441446
v 0.423365 -0.141987 -21.410196
v 0.423365 4.058013 -21.410196
v 0.423365 4.058013 -19.441446
v 0.423365 -0.141987 -19.441446
v 0.142115 -0.141987 -21.410196
v 0.142115 4.058013 -21.410196
v 1.267115 4.058013 -20.285196
v 1.267115 -0.141988 -20.285196
vn -0.3821 -0.0213 -0.9239
vn 0.3824 0.0127 -0.9239
vn 0.3827 -0.0000 -0.9239
vn 0.3821 0.0213 -0.9239
vn -0.3824 -0.0127 -0.9239
vn -0.3827 -0.0000 -0.9239
vn 0.9237 0.0119 0.3828
vn 0.3834 -0.0270 0.9232
vn 0.9239 -0.0000 0.3827
vn 0.3828 -0.0119 0.9237
vn 0.9232 0.0270 0.3834
vn 0.3827 -0.0000 0.9239
vn -0.0000 -1.0000 -0.0000
vn -0.3821 0.0213 0.9239
vn 0.3824 -0.0127 0.9239
vn 0.3821 -0.0213 0.9239
vn -0.3824 0.0127 0.9239
vn -0.3827 -0.0000 0.9239
vn -0.3828 0.0119 0.9237
vn -0.9232 -0.0270 0.3834
vn -0.9237 -0.0119 0.3828
vn -0.3834 0.0270 0.9232
vn -0.9239 -0.0000 0.3827
vn 0.9239 0.0128 -0.3824
vn 0.9239 -0.0213 0.3821
vn 0.9239 -0.0000 -0.3827
vn 0.9239 -0.0128 0.3824
vn 0.9239 0.0213 -0.3821
vn 0.3828 0.0119 -0.9237
vn 0.9232 -0.0270 -0.3834
vn 0.9237 -0.0119 -0.3828
vn 0.3834 0.0270 -0.9232
vn -0.0000 1.0000 -0.0000
vn -0.9237 0.0119 -0.3828
vn -0.3834 -0.0270 -0.9232
vn -0.9239 -0.0000 -0.3827
vn -0.3828 -0.0119 -0.9237
vn -0.9232 0.0270 -0.3834
vn -0.9239 0.0128 0.3824
vn -0.9239 -0.0213 -0.3821
vn -0.9239 -0.0128 -0.3824
vn -0.9239 0.0213 0.3821
vn 0.9232 -0.0269 -0.3834
vn -0.9232 0.0269 -0.3834
vn -0.9232 -0.0269 0.3834
vn 0.9232 0.0269 0.3834
vn 0.0063 -0.6290 -0.7774
vn -0.0156 0.1045 -0.9944
vn -0.0000 -0.6290 -0.7774
vn -0.0063 0.1048 -0.9945
vn 0.0156 -0.6287 -0.7775
vn -0.0000 0.1048 -0.9945
vn 0.0031 -0.9912 0.1325
vn -0.0012 -0.6073 0.7945
vn -0.0000 -0.6073 0.7945
vn -0.0031 -0.6073 0.7945
vn 0.0012 -0.9912 0.1325
vn -0.0001 -0.9912 0.1324
vn 0.0031 -0.6073 -0.7945
vn -0.0012 -0.9912 -0.1325
vn 0.0002 -0.9912 -0.1325
vn -0.0031 -0.9912 -0.1325
vn 0.0012 -0.6073 -0.7945
vn -0.0000 -0.6073 -0.7945
vn -0.0000 -0.7686 -0.6397
vn 0.0272 -0.7680 -0.6399
vn -0.0000 -0.7687 -0.6397
vn -0.0000 0.2837 0.9589
vn -0.0157 -0.1045 0.9944
vn -0.0063 -0.1048 0.9945
vn -0.0000 -0.1048 0.9945
vn 0.0063 -0.1048 -0.9945
vn -0.0000 0.2837 -0.9589
vn -0.0000 -0.1048 -0.9945
vn 0.0156 -0.1045 -0.9944
vn -0.0000 -0.9912 -0.1325
vn -0.0001 -0.6073 -0.7945
vn -0.0000 -0.9912 0.1325
vn -1.0000 -0.0000 -0.0000
vn -0.0272 -0.7680 0.6399
vn -0.0156 -0.6287 0.7775
vn -0.0000 -0.7686 0.6397
vn -0.0063 -0.6290 0.7774
vn -0.0000 -0.6290 0.7774
vn 0.0063 0.1048 0.9945
vn -0.0000 0.1048 0.9945
vn 0.0157 0.1045 0.9944
vn -0.0000 -0.8315 0.5556
vn -0.0000 -0.8315 -0.5556
vn 1.0000 -0.0000 -0.0000
vn -0.9235 -0.0189 -0.3830
vn -0.3828 0.0079 -0.9238
vn -0.3830 0.0189 -0.9235
vn -0.9238 -0.0079 -0.3828
vn 0.3828 0.0079 -0.9238
vn 0.9235 -0.0189 -0.3830
vn 0.9238 -0.0079 -0.3828
vn 0.3830 0.0189 -0.9235
vn -0.3823 -0.0162 -0.9239
vn 0.3825 0.0099 -0.9239
vn 0.3823 0.0162 -0.9239
vn -0.3825 -0.0099 -0.9239
vn -0.3828 0.0079 0.9238
vn -0.9235 -0.0189 0.3830
vn -0.9238 -0.0079 0.3828
vn -0.3830 0.0189 0.9235
vn -0.3823 0.0162 0.9239
vn 0.3825 -0.0099 0.9239
vn 0.3826 -0.0000 0.9239
vn 0.3823 -0.0162 0.9239
vn -0.3825 0.0099 0.9239
vn -0.3826 -0.0000 0.9239
vn 0.9239 0.0100 -0.3825
vn 0.9239 -0.0162 0.3823
vn 0.9239 -0.0100 0.3825
vn 0.9239 0.0162 -0.3823
vn 0.9239 -0.0000 0.3826
vn -0.9239 0.0100 0.3825
vn -0.9239 -0.0162 -0.3823
vn -0.9239 -0.0100 -0.3825
vn -0.9239 0.0162 0.3823
vn 0.3830 0.0189 0.9235
vn 0.9238 -0.0079 0.3828
vn 0.9235 -0.0189 0.3830
vn 0.3828 0.0079 0.9238
vn -0.3826 -0.0063 -0.9239
vn -0.0000 -0.0000 -1.0000
vn -0.3826 -0.0024 -0.9239
vn -0.9239 -0.0063 -0.3826
vn -0.9239 -0.0024 -0.3826
vn 0.3827 0.0025 -0.9239
vn 0.9238 -0.0065 -0.3828
vn 0.9239 -0.0025 -0.3827
vn 0.3828 0.0067 -0.9238
vn -0.9238 -0.0066 -0.3828
vn -0.3827 0.0026 -0.9239
vn -0.3828 0.0066 -0.9238
vn -0.9239 -0.0026 -0.3827
vn 0.3826 0.0024 -0.9239
vn 0.3826 0.0063 -0.9239
vn 0.9239 0.0024 -0.3826
vn 0.9239 0.0063 -0.3826
vn 0.9239 -0.0063 0.3826
vn 0.9239 -0.0024 0.3826
vn 0.3828 0.0066 0.9238
vn 0.9239 -0.0026 0.3827
vn 0.9238 -0.0066 0.3828
vn 0.3827 0.0026 0.9239
vn -0.3827 0.0025 0.9239
vn -0.9238 -0.0065 0.3828
vn -0.9239 -0.0025 0.3827
vn -0.3828 0.0067 0.9238
vn -0.9239 0.0024 0.3826
vn -0.9239 0.0063 0.3826
vn -0.3826 0.0063 0.9239
vn -0.0000 -0.0000 1.0000
vn -0.3826 0.0024 0.9239
vn 0.3826 -0.0024 0.9239
vn 0.3826 -0.0063 0.9239
vn 0.7071 -0.0000 -0.7071
vn 0.9238 -0.0063 -0.3828
vn 0.9239 -0.0024 -0.3827
vn -0.9239 0.0025 0.3826
vn -0.9239 -0.0067 -0.3826
vn -0.9239 -0.0025 -0.3826
vn -0.9239 0.0067 0.3826
vn -0.9239 -0.0000 -0.3826
vn -0.3827 0.0024 0.9239
vn -0.7071 -0.0000 0.7071
vn -0.3828 0.0063 0.9238
vn 0.3827 0.0024 -0.9239
vn 0.3828 0.0063 -0.9238
vn 0.3828 0.0063 0.9238
vn 0.7071 -0.0000 0.7071
vn 0.3827 0.0024 0.9239
vn 0.3827 0.0001 0.9239
vn -0.7071 -0.0000 -0.7071
vn -0.3827 0.0024 -0.9239
vn -0.3827 0.0001 -0.9239
vn -0.3828 0.0063 -0.9238
vn -0.3826 -0.0066 -0.9239
vn 0.3826 0.0026 -0.9239
vn 0.3826 0.0066 -0.9239
vn -0.3826 -0.0026 -0.9239
vn 0.9239 -0.0024 0.3827
vn 0.9238 -0.0063 0.3828
vn 0.9239 0.0025 -0.3826
vn 0.9239 -0.0067 0.3826
vn 0.9239 -0.0025 0.3826
vn 0.9239 0.0067 -0.3826
vn -0.9238 -0.0063 -0.3828
vn -0.9239 -0.0024 -0.3827
vn -0.9238 -0.0063 0.3828
vn -0.9239 -0.0024 0.3827
vn -0.3826 0.0066 0.9239
vn 0.3826 -0.0026 0.9239
vn 0.3826 -0.0066 0.9239
vn -0.3826 0.0026 0.9239
vt 0.093750 0.025000
vt 0.093750 0.225000
vt 0.968750 0.042157
vt 0.968750 0.083579
vt 0.968750 0.025000
vt 0.968750 0.125000
vt 0.968750 0.225000
s 0
usemtl colormap.002
f 3/1/1 2/2/2 1/1/3
f 2/2/4 3/1/5 4/2/6
f 7/2/7 6/1/8 5/1/9
f 6/1/10 7/2/11 8/2/12
f 10/1/13 6/1/13 9/1/13
f 6/1/13 10/1/13 5/1/13
f 5/1/13 10/1/13 11/1/13
f 5/1/13 11/1/13 12/1/13
f 12/1/13 11/1/13 3/1/13
f 12/1/13 3/1/13 1/1/13
f 13/2/14 6/1/15 8/2/12
f 6/1/16 13/2/17 9/1/18
f 13/2/19 10/1/20 9/1/18
f 10/1/21 13/2/22 14/2/23
f 15/2/24 5/1/25 12/1/26
f 5/1/27 15/2/28 7/2/9
f 2/2/29 12/1/30 1/1/3
f 12/1/31 2/2/32 15/2/26
f 7/2/33 13/2/33 8/2/33
f 13/2/33 7/2/33 14/2/33
f 14/2/33 7/2/33 15/2/33
f 14/2/33 15/2/33 16/2/33
f 16/2/33 15/2/33 2/2/33
f 16/2/33 2/2/33 4/2/33
f 16/2/34 3/1/35 11/1/36
f 3/1/37 16/2/38 4/2/6
f 14/2/39 11/1/40 10/1/23
f 11/1/41 14/2/42 16/2/36
f 19/2/29 18/1/43 17/1/3
f 18/1/31 19/2/32 20/2/26
f 23/2/34 22/1/35 21/1/36
f 22/1/37 23/2/44 24/2/6
f 27/2/19 26/1/45 25/1/18
f 26/1/21 27/2/22 28/2/23
f 20/2/24 29/1/25 18/1/26
f 29/1/27 20/2/28 30/2/9
f 27/2/14 32/1/15 31/2/12
f 32/1/16 27/2/17 25/1/18
f 30/2/33 27/2/33 31/2/33
f 27/2/33 30/2/33 28/2/33
f 28/2/33 30/2/33 20/2/33
f 28/2/33 20/2/33 23/2/33
f 23/2/33 20/2/33 19/2/33
f 23/2/33 19/2/33 24/2/33
f 26/1/13 32/1/13 25/1/13
f 32/1/13 26/1/13 29/1/13
f 29/1/13 26/1/13 21/1/13
f 29/1/13 21/1/13 18/1/13
f 18/1/13 21/1/13 22/1/13
f 18/1/13 22/1/13 17/1/13
f 22/1/1 19/2/2 17/1/3
f 19/2/4 22/1/5 24/2/6
f 30/2/7 32/1/8 29/1/9
f 32/1/10 30/2/46 31/2/12
f 28/2/39 21/1/40 26/1/23
f 21/1/41 28/2/42 23/2/36
f 35/3/47 34/4/48 33/3/49
f 34/4/50 35/3/51 36/4/52
f 39/5/53 38/3/54 37/3/55
f 38/3/56 39/5/57 40/5/58
f 43/3/59 42/5/60 41/5/61
f 42/5/62 43/3/63 44/3/64
f 43/3/47 45/4/65 44/3/49
f 45/4/66 43/3/51 46/4/67
f 49/6/68 48/4/69 47/6/68
f 48/4/70 49/6/68 50/4/71
f 36/4/72 51/6/73 34/4/74
f 51/6/73 36/4/75 52/6/73
f 35/3/59 40/5/60 39/5/76
f 40/5/62 35/3/63 33/3/77
f 41/5/53 54/3/54 53/3/55
f 54/3/56 41/5/57 42/5/78
f 53/3/79 43/3/79 41/5/79
f 43/3/79 53/3/79 50/4/79
f 43/3/79 50/4/79 46/4/79
f 46/4/79 50/4/79 49/6/79
f 46/4/79 49/6/79 55/4/79
f 55/4/79 49/6/79 36/4/79
f 36/4/79 49/6/79 52/6/79
f 35/3/79 55/4/79 36/4/79
f 35/3/79 37/3/79 55/4/79
f 37/3/79 35/3/79 39/5/79
f 55/4/80 38/3/81 56/4/82
f 38/3/83 55/4/82 37/3/84
f 50/4/85 54/3/81 48/4/86
f 54/3/83 50/4/87 53/3/84
f 55/4/88 45/4/89 46/4/89
f 45/4/89 55/4/88 56/4/88
f 33/3/90 38/3/90 40/5/90
f 38/3/90 33/3/90 34/4/90
f 38/3/90 34/4/90 56/4/90
f 56/4/90 34/4/90 51/6/90
f 56/4/90 51/6/90 45/4/90
f 45/4/90 51/6/90 48/4/90
f 48/4/90 51/6/90 47/6/90
f 54/3/90 45/4/90 48/4/90
f 54/3/90 44/3/90 45/4/90
f 44/3/90 54/3/90 42/5/90
f 59/6/33 58/6/33 57/6/33
f 58/6/33 59/6/33 60/6/33
f 60/6/33 59/6/33 61/6/33
f 60/6/33 61/6/33 62/6/33
f 62/6/33 61/6/33 63/6/33
f 62/6/33 63/6/33 64/6/33
f 66/5/91 64/6/92 65/5/6
f 64/6/93 66/5/94 62/6/36
f 63/6/95 68/5/96 67/5/3
f 68/5/97 63/6/98 61/6/26
f 65/5/99 63/6/100 67/5/3
f 63/6/101 65/5/102 64/6/6
f 58/6/103 70/5/104 69/5/18
f 70/5/105 58/6/106 60/6/23
f 58/6/107 71/5/108 57/6/109
f 71/5/110 58/6/111 69/5/112
f 61/6/113 72/5/114 68/5/26
f 72/5/115 61/6/116 59/6/117
f 60/6/118 66/5/119 70/5/23
f 66/5/120 60/6/121 62/6/36
f 57/6/122 72/5/123 59/6/9
f 72/5/124 57/6/125 71/5/12
f 75/7/126 74/5/127 73/7/127
f 74/5/127 75/7/128 76/5/6
f 79/5/79 78/7/129 77/7/79
f 78/7/130 79/5/79 80/5/36
f 83/5/131 82/7/132 81/7/3
f 82/7/133 83/5/134 84/5/26
f 78/7/135 76/5/136 75/7/6
f 76/5/137 78/7/138 80/5/36
f 85/7/127 83/5/139 81/7/3
f 83/5/140 85/7/127 86/5/127
f 84/5/141 87/7/90 82/7/26
f 87/7/90 84/5/142 88/5/90
f 91/5/90 90/7/143 89/7/90
f 90/7/144 91/5/90 92/5/9
f 93/5/145 90/7/146 92/5/9
f 90/7/147 93/5/148 94/7/12
f 97/5/149 96/7/150 95/7/18
f 96/7/151 97/5/152 98/5/23
f 98/5/153 99/7/79 96/7/23
f 99/7/79 98/5/154 100/5/79
f 97/5/155 102/7/156 101/5/156
f 102/7/156 97/5/157 95/7/18
f 103/5/156 94/7/158 93/5/12
f 94/7/159 103/5/156 104/7/156
f 88/5/160 105/6/161 87/6/160
f 105/6/162 88/5/160 106/5/26
f 109/5/163 108/6/164 107/6/23
f 108/6/165 109/5/166 110/5/167
f 112/5/168 102/6/169 111/6/18
f 102/6/169 112/5/170 101/5/169
f 114/5/171 85/6/160 113/6/3
f 85/6/160 114/5/172 86/5/160
f 115/5/173 104/6/174 103/5/174
f 104/6/174 115/5/175 116/6/176
f 73/6/177 118/5/178 117/6/179
f 118/5/180 73/6/177 74/5/177
f 117/6/181 114/5/182 113/6/3
f 114/5/183 117/6/184 118/5/6
f 91/5/174 120/6/185 119/5/9
f 120/6/186 91/5/174 89/6/174
f 106/5/187 120/6/188 105/6/26
f 120/6/189 106/5/190 119/5/9
f 108/6/191 79/5/177 77/6/177
f 79/5/177 108/6/192 110/5/36
f 100/5/169 107/6/193 99/6/169
f 107/6/194 100/5/169 109/5/23
f 112/5/195 116/6/196 115/5/12
f 116/6/197 112/5/198 111/6/18
f 3/1/1 2/2/2 1/1/3
f 2/2/4 3/1/5 4/2/6
f 7/2/7 6/1/8 5/1/9
f 6/1/10 7/2/11 8/2/12
f 10/1/13 6/1/13 9/1/13
f 6/1/13 10/1/13 5/1/13
f 5/1/13 10/1/13 11/1/13
f 5/1/13 11/1/13 12/1/13
f 12/1/13 11/1/13 3/1/13
f 12/1/13 3/1/13 1/1/13
f 13/2/14 6/1/15 8/2/12
f 6/1/16 13/2/17 9/1/18
f 13/2/19 10/1/20 9/1/18
f 10/1/21 13/2/22 14/2/23
f 15/2/24 5/1/25 12/1/26
f 5/1/27 15/2/28 7/2/9
f 2/2/29 12/1/30 1/1/3
f 12/1/31 2/2/32 15/2/26
f 7/2/33 13/2/33 8/2/33
f 13/2/33 7/2/33 14/2/33
f 14/2/33 7/2/33 15/2/33
f 14/2/33 15/2/33 16/2/33
f 16/2/33 15/2/33 2/2/33
f 16/2/33 2/2/33 4/2/33
f 16/2/34 3/1/35 11/1/36
f 3/1/37 16/2/38 4/2/6
f 14/2/39 11/1/40 10/1/23
f 11/1/41 14/2/42 16/2/36
f 19/2/29 18/1/43 17/1/3
f 18/1/31 19/2/32 20/2/26
f 23/2/34 22/1/35 21/1/36
f 22/1/37 23/2/44 24/2/6
f 27/2/19 26/1/45 25/1/18
f 26/1/21 27/2/22 28/2/23
f 20/2/24 29/1/25 18/1/26
f 29/1/27 20/2/28 30/2/9
f 27/2/14 32/1/15 31/2/12
f 32/1/16 27/2/17 25/1/18
f 30/2/33 27/2/33 31/2/33
f 27/2/33 30/2/33 28/2/33
f 28/2/33 30/2/33 20/2/33
f 28/2/33 20/2/33 23/2/33
f 23/2/33 20/2/33 19/2/33
f 23/2/33 19/2/33 24/2/33
f 26/1/13 32/1/13 25/1/13
f 32/1/13 26/1/13 29/1/13
f 29/1/13 26/1/13 21/1/13
f 29/1/13 21/1/13 18/1/13
f 18/1/13 21/1/13 22/1/13
f 18/1/13 22/1/13 17/1/13
f 22/1/1 19/2/2 17/1/3
f 19/2/4 22/1/5 24/2/6
f 30/2/7 32/1/8 29/1/9
f 32/1/10 30/2/46 31/2/12
f 28/2/39 21/1/40 26/1/23
f 21/1/41 28/2/42 23/2/36
f 35/3/47 34/4/48 33/3/49
f 34/4/50 35/3/51 36/4/52
f 39/5/53 38/3/54 37/3/55
f 38/3/56 39/5/57 40/5/58
f 43/3/59 42/5/60 41/5/61
f 42/5/62 43/3/63 44/3/64
f 43/3/47 45/4/65 44/3/49
f 45/4/66 43/3/51 46/4/67
f 49/6/68 48/4/69 47/6/68
f 48/4/70 49/6/68 50/4/71
f 36/4/72 51/6/73 34/4/74
f 51/6/73 36/4/75 52/6/73
f 35/3/59 40/5/60 39/5/76
f 40/5/62 35/3/63 33/3/77
f 41/5/53 54/3/54 53/3/55
f 54/3/56 41/5/57 42/5/78
f 53/3/79 43/3/79 41/5/79
f 43/3/79 53/3/79 50/4/79
f 43/3/79 50/4/79 46/4/79
f 46/4/79 50/4/79 49/6/79
f 46/4/79 49/6/79 55/4/79
f 55/4/79 49/6/79 36/4/79
f 36/4/79 49/6/79 52/6/79
f 35/3/79 55/4/79 36/4/79
f 35/3/79 37/3/79 55/4/79
f 37/3/79 35/3/79 39/5/79
f 55/4/80 38/3/81 56/4/82
f 38/3/83 55/4/82 37/3/84
f 50/4/85 54/3/81 48/4/86
f 54/3/83 50/4/87 53/3/84
f 55/4/88 45/4/89 46/4/89
f 45/4/89 55/4/88 56/4/88
f 33/3/90 38/3/90 40/5/90
f 38/3/90 33/3/90 34/4/90
f 38/3/90 34/4/90 56/4/90
f 56/4/90 34/4/90 51/6/90
f 56/4/90 51/6/90 45/4/90
f 45/4/90 51/6/90 48/4/90
f 48/4/90 51/6/90 47/6/90
f 54/3/90 45/4/90 48/4/90
f 54/3/90 44/3/90 45/4/90
f 44/3/90 54/3/90 42/5/90
f 59/6/33 58/6/33 57/6/33
f 58/6/33 59/6/33 60/6/33
f 60/6/33 59/6/33 61/6/33
f 60/6/33 61/6/33 62/6/33
f 62/6/33 61/6/33 63/6/33
f 62/6/33 63/6/33 64/6/33
f 66/5/91 64/6/92 65/5/6
f 64/6/93 66/5/94 62/6/36
f 63/6/95 68/5/96 67/5/3
f 68/5/97 63/6/98 61/6/26
f 65/5/99 63/6/100 67/5/3
f 63/6/101 65/5/102 64/6/6
f 58/6/103 70/5/104 69/5/18
f 70/5/105 58/6/106 60/6/23
f 58/6/107 71/5/108 57/6/109
f 71/5/110 58/6/111 69/5/112
f 61/6/113 72/5/114 68/5/26
f 72/5/115 61/6/116 59/6/117
f 60/6/118 66/5/119 70/5/23
f 66/5/120 60/6/121 62/6/36
f 57/6/122 72/5/123 59/6/9
f 72/5/124 57/6/125 71/5/12
f 75/7/126 74/5/127 73/7/127
f 74/5/127 75/7/128 76/5/6
f 79/5/79 78/7/129 77/7/79
f 78/7/130 79/5/79 80/5/36
f 83/5/131 82/7/132 81/7/3
f 82/7/133 83/5/134 84/5/26
f 78/7/135 76/5/136 75/7/6
f 76/5/137 78/7/138 80/5/36
f 85/7/127 83/5/139 81/7/3
f 83/5/140 85/7/127 86/5/127
f 84/5/141 87/7/90 82/7/26
f 87/7/90 84/5/142 88/5/90
f 91/5/90 90/7/143 89/7/90
f 90/7/144 91/5/90 92/5/9
f 93/5/145 90/7/146 92/5/9
f 90/7/147 93/5/148 94/7/12
f 97/5/149 96/7/150 95/7/18
f 96/7/151 97/5/152 98/5/23
f 98/5/153 99/7/79 96/7/23
f 99/7/79 98/5/154 100/5/79
f 97/5/155 102/7/156 101/5/156
f 102/7/156 97/5/157 95/7/18
f 103/5/156 94/7/158 93/5/12
f 94/7/159 103/5/156 104/7/156
f 88/5/160 105/6/161 87/6/160
f 105/6/162 88/5/160 106/5/26
f 109/5/163 108/6/164 107/6/23
f 108/6/165 109/5/166 110/5/167
f 112/5/168 102/6/169 111/6/18
f 102/6/169 112/5/170 101/5/169
f 114/5/171 85/6/160 113/6/3
f 85/6/160 114/5/172 86/5/160
f 115/5/173 104/6/174 103/5/174
f 104/6/174 115/5/175 116/6/176
f 73/6/177 118/5/178 117/6/179
f 118/5/180 73/6/177 74/5/177
f 117/6/181 114/5/182 113/6/3
f 114/5/183 117/6/184 118/5/6
f 91/5/174 120/6/185 119/5/9
f 120/6/186 91/5/174 89/6/174
f 106/5/187 120/6/188 105/6/26
f 120/6/189 106/5/190 119/5/9
f 108/6/191 79/5/177 77/6/177
f 79/5/177 108/6/192 110/5/36
f 100/5/169 107/6/193 99/6/169
f 107/6/194 100/5/169 109/5/23
f 112/5/195 116/6/196 115/5/12
f 116/6/197 112/5/198 111/6/18
