# Blender 4.1.1
# www.blender.org
mtllib @border.006.mtl
o @border.006
v -44.020187 -61.000000 -35.622059
v -44.162109 -61.000000 -39.540176
v -43.536922 -61.000000 -43.410694
v -42.168652 -61.000000 -47.084873
v -40.109867 -61.000000 -50.421524
v -37.439697 -61.000000 -53.292400
v -34.260754 -61.000000 -55.587196
v -30.695200 -61.000000 -57.217720
v -26.880058 -61.000000 -58.121307
v -22.961941 -61.000000 -58.263229
v -19.091423 -61.000000 -57.638042
v -15.417243 -61.000000 -56.269772
v -12.080599 -61.000000 -54.210991
v -9.209717 -61.000000 -51.540825
v -6.914920 -61.000000 -48.361877
v -5.284399 -61.000000 -44.796322
v -4.380811 -61.000000 -40.981178
v -4.238886 -61.000000 -37.063061
v -4.864074 -61.000000 -33.192543
v -6.232347 -61.000000 -29.518362
v -8.291129 -61.000000 -26.181719
v -10.961298 -61.000000 -23.310837
v -14.140243 -61.000000 -21.016039
v -17.705797 -61.000000 -19.385519
v -21.520939 -61.000000 -18.481932
v -25.439056 -61.000000 -18.340008
v -29.309574 -61.000000 -18.965195
v -32.983753 -61.000000 -20.333469
v -36.320396 -61.000000 -22.392250
v -39.191280 -61.000000 -25.062418
v -41.486076 -61.000000 -28.241364
v -43.116600 -61.000000 -31.806919
v -24.200497 139.000000 -38.301620
vn -0.9944 0.0990 0.0360
vn -0.9824 0.0990 -0.1587
vn -0.9325 0.0990 -0.3473
vn -0.8469 0.0990 -0.5225
vn -0.7286 0.0990 -0.6777
vn -0.5824 0.0990 -0.8068
vn -0.4138 0.0990 -0.9050
vn -0.2293 0.0990 -0.9683
vn -0.0360 0.0990 -0.9944
vn 0.1587 0.0990 -0.9824
vn 0.3473 0.0990 -0.9325
vn 0.5225 0.0990 -0.8469
vn 0.6777 0.0990 -0.7286
vn 0.8068 0.0990 -0.5824
vn 0.9050 0.0990 -0.4138
vn 0.9683 0.0990 -0.2293
vn 0.9944 0.0990 -0.0360
vn 0.9824 0.0990 0.1587
vn 0.9325 0.0990 0.3473
vn 0.8469 0.0990 0.5225
vn 0.7286 0.0990 0.6777
vn 0.5824 0.0990 0.8068
vn 0.4138 0.0990 0.9050
vn 0.2293 0.0990 0.9683
vn 0.0360 0.0990 0.9944
vn -0.1587 0.0990 0.9824
vn -0.3473 0.0990 0.9325
vn -0.5225 0.0990 0.8469
vn -0.6777 0.0990 0.7286
vn -0.8068 0.0990 0.5824
vn -0.0000 -1.0000 -0.0000
vn -0.9050 0.0990 0.4138
vn -0.9683 0.0990 0.2293
vt 0.250000 0.490000
vt 0.250000 0.250000
vt 0.296822 0.485388
vt 0.341844 0.471731
vt 0.383337 0.449553
vt 0.419706 0.419706
vt 0.449553 0.383337
vt 0.471731 0.341844
vt 0.485388 0.296822
vt 0.490000 0.250000
vt 0.485388 0.203178
vt 0.471731 0.158156
vt 0.449553 0.116663
vt 0.419706 0.080294
vt 0.383337 0.050447
vt 0.341844 0.028269
vt 0.296822 0.014612
vt 0.250000 0.010000
vt 0.203178 0.014612
vt 0.158156 0.028269
vt 0.116663 0.050447
vt 0.080294 0.080294
vt 0.050447 0.116663
vt 0.028269 0.158156
vt 0.014612 0.203178
vt 0.010000 0.250000
vt 0.014612 0.296822
vt 0.028269 0.341844
vt 0.050447 0.383337
vt 0.080294 0.419706
vt 0.116663 0.449553
vt 0.158156 0.471731
vt 0.796822 0.014612
vt 0.514612 0.203178
vt 0.703178 0.485388
vt 0.203178 0.485388
vt 0.750000 0.490000
vt 0.796822 0.485388
vt 0.841844 0.471731
vt 0.883337 0.449553
vt 0.919706 0.419706
vt 0.949553 0.383337
vt 0.971731 0.341844
vt 0.985388 0.296822
vt 0.990000 0.250000
vt 0.985388 0.203178
vt 0.971731 0.158156
vt 0.949553 0.116663
vt 0.919706 0.080294
vt 0.883337 0.050447
vt 0.841844 0.028269
vt 0.750000 0.010000
vt 0.703178 0.014612
vt 0.658156 0.028269
vt 0.616663 0.050447
vt 0.580294 0.080294
vt 0.550447 0.116663
vt 0.528269 0.158156
vt 0.510000 0.250000
vt 0.514612 0.296822
vt 0.528269 0.341844
vt 0.550447 0.383337
vt 0.580294 0.419706
vt 0.616663 0.449553
vt 0.658156 0.471731
s 0
usemtl Material.001
f 1/1/1 33/2/1 2/3/1
f 2/3/2 33/2/2 3/4/2
f 3/4/3 33/2/3 4/5/3
f 4/5/4 33/2/4 5/6/4
f 5/6/5 33/2/5 6/7/5
f 6/7/6 33/2/6 7/8/6
f 7/8/7 33/2/7 8/9/7
f 8/9/8 33/2/8 9/10/8
f 9/10/9 33/2/9 10/11/9
f 10/11/10 33/2/10 11/12/10
f 11/12/11 33/2/11 12/13/11
f 12/13/12 33/2/12 13/14/12
f 13/14/13 33/2/13 14/15/13
f 14/15/14 33/2/14 15/16/14
f 15/16/15 33/2/15 16/17/15
f 16/17/16 33/2/16 17/18/16
f 17/18/17 33/2/17 18/19/17
f 18/19/18 33/2/18 19/20/18
f 19/20/19 33/2/19 20/21/19
f 20/21/20 33/2/20 21/22/20
f 21/22/21 33/2/21 22/23/21
f 22/23/22 33/2/22 23/24/22
f 23/24/23 33/2/23 24/25/23
f 24/25/24 33/2/24 25/26/24
f 25/26/25 33/2/25 26/27/25
f 26/27/26 33/2/26 27/28/26
f 27/28/27 33/2/27 28/29/27
f 28/29/28 33/2/28 29/30/28
f 29/30/29 33/2/29 30/31/29
f 30/31/30 33/2/30 31/32/30
f 16/33/31 24/34/31 32/35/31
f 31/32/32 33/2/32 32/36/32
f 32/36/33 33/2/33 1/1/33
f 32/35/31 1/37/31 2/38/31
f 2/38/31 3/39/31 4/40/31
f 4/40/31 5/41/31 6/42/31
f 6/42/31 7/43/31 8/44/31
f 8/44/31 9/45/31 10/46/31
f 10/46/31 11/47/31 12/48/31
f 12/48/31 13/49/31 14/50/31
f 14/50/31 15/51/31 16/33/31
f 16/33/31 17/52/31 18/53/31
f 18/53/31 19/54/31 20/55/31
f 20/55/31 21/56/31 22/57/31
f 22/57/31 23/58/31 24/34/31
f 24/34/31 25/59/31 26/60/31
f 26/60/31 27/61/31 28/62/31
f 28/62/31 29/63/31 30/64/31
f 30/64/31 31/65/31 32/35/31
f 32/35/31 2/38/31 4/40/31
f 4/40/31 6/42/31 8/44/31
f 8/44/31 10/46/31 12/48/31
f 12/48/31 14/50/31 16/33/31
f 16/33/31 18/53/31 20/55/31
f 20/55/31 22/57/31 24/34/31
f 24/34/31 26/60/31 28/62/31
f 28/62/31 30/64/31 32/35/31
f 32/35/31 4/40/31 8/44/31
f 8/44/31 12/48/31 16/33/31
f 16/33/31 20/55/31 24/34/31
f 24/34/31 28/62/31 32/35/31
f 32/35/31 8/44/31 16/33/31
