# Blender 4.1.1
# www.blender.org
mtllib @floor.mtl
o @floor
v -0.078773 -114.982468 -41.967793
v -0.078773 -0.017707 -41.967793
v 8.115020 -114.982468 -41.160770
v 8.115020 -0.017707 -41.160770
v 15.993933 -114.982468 -38.770729
v 15.993933 -0.017707 -38.770729
v 23.255175 -114.982468 -34.889515
v 23.255175 -0.017707 -34.889515
v 29.619711 -114.982468 -29.666275
v 29.619711 -0.017707 -29.666275
v 34.842949 -114.982468 -23.301739
v 34.842949 -0.017707 -23.301739
v 38.724163 -114.982468 -16.040497
v 38.724163 -0.017707 -16.040497
v 41.114204 -114.982468 -8.161585
v 41.114204 -0.017707 -8.161585
v 41.921227 -114.982468 0.032209
v 41.921227 -0.017707 0.032209
v 41.114204 -114.982468 8.226002
v 41.114204 -0.017707 8.226002
v 38.724163 -114.982468 16.104916
v 38.724163 -0.017707 16.104916
v 34.842949 -114.982468 23.366158
v 34.842949 -0.017707 23.366158
v 29.619711 -114.982468 29.730694
v 29.619711 -0.017707 29.730694
v 23.255175 -114.982468 34.953930
v 23.255175 -0.017707 34.953930
v 15.993933 -114.982468 38.835144
v 15.993933 -0.017707 38.835144
v 8.115020 -114.982468 41.225185
v 8.115020 -0.017707 41.225185
v -0.078773 -114.982468 42.032207
v -0.078773 -0.017707 42.032207
v -8.272567 -114.982468 41.225185
v -8.272567 -0.017707 41.225185
v -16.151480 -114.982468 38.835144
v -16.151480 -0.017707 38.835144
v -23.412722 -114.982468 34.953930
v -23.412722 -0.017707 34.953930
v -29.777258 -114.982468 29.730694
v -29.777258 -0.017707 29.730694
v -35.000496 -114.982468 23.366158
v -35.000496 -0.017707 23.366158
v -38.881710 -114.982468 16.104916
v -38.881710 -0.017707 16.104916
v -41.271751 -114.982468 8.226002
v -41.271751 -0.017707 8.226002
v -42.078773 -114.982468 0.032209
v -42.078773 -0.017707 0.032209
v -41.271751 -114.982468 -8.161585
v -41.271751 -0.017707 -8.161585
v -38.881710 -114.982468 -16.040497
v -38.881710 -0.017707 -16.040497
v -35.000496 -114.982468 -23.301739
v -35.000496 -0.017707 -23.301739
v -29.777258 -114.982468 -29.666275
v -29.777258 -0.017707 -29.666275
v -23.412722 -114.982468 -34.889515
v -23.412722 -0.017707 -34.889515
v -16.151480 -114.982468 -38.770729
v -16.151480 -0.017707 -38.770729
v -8.272567 -114.982468 -41.160770
v -8.272567 -0.017707 -41.160770
vn 0.0980 -0.0000 -0.9952
vn 0.2903 -0.0000 -0.9569
vn 0.4714 -0.0000 -0.8819
vn 0.6344 -0.0000 -0.7730
vn 0.7730 -0.0000 -0.6344
vn 0.8819 -0.0000 -0.4714
vn 0.9569 -0.0000 -0.2903
vn 0.9952 -0.0000 -0.0980
vn 0.9952 -0.0000 0.0980
vn 0.9569 -0.0000 0.2903
vn 0.8819 -0.0000 0.4714
vn 0.7730 -0.0000 0.6344
vn 0.6344 -0.0000 0.7730
vn 0.4714 -0.0000 0.8819
vn 0.2903 -0.0000 0.9569
vn 0.0980 -0.0000 0.9952
vn -0.0980 -0.0000 0.9952
vn -0.2903 -0.0000 0.9569
vn -0.4714 -0.0000 0.8819
vn -0.6344 -0.0000 0.7730
vn -0.7730 -0.0000 0.6344
vn -0.8819 -0.0000 0.4714
vn -0.9569 -0.0000 0.2903
vn -0.9952 -0.0000 0.0980
vn -0.9952 -0.0000 -0.0980
vn -0.9569 -0.0000 -0.2903
vn -0.8819 -0.0000 -0.4714
vn -0.7730 -0.0000 -0.6344
vn -0.6344 -0.0000 -0.7730
vn -0.4714 -0.0000 -0.8819
vn -0.0000 1.0000 -0.0000
vn -0.2903 -0.0000 -0.9569
vn -0.0980 -0.0000 -0.9952
vt 0.471181 0.992378
vt 0.457312 0.007622
vt 0.471181 0.007622
vt 0.457312 0.992378
vt 0.443442 0.007622
vt 0.443442 0.992378
vt 0.429573 0.007622
vt 0.429573 0.992378
vt 0.415703 0.007622
vt 0.415703 0.992378
vt 0.401834 0.007622
vt 0.401834 0.992378
vt 0.387964 0.007622
vt 0.387964 0.992378
vt 0.374095 0.007622
vt 0.374095 0.992378
vt 0.360225 0.007622
vt 0.360225 0.992378
vt 0.346356 0.007622
vt 0.346356 0.992378
vt 0.332486 0.007622
vt 0.332486 0.992378
vt 0.318617 0.007622
vt 0.318617 0.992378
vt 0.304747 0.007622
vt 0.304747 0.992378
vt 0.290878 0.007622
vt 0.290878 0.992378
vt 0.277008 0.007622
vt 0.277008 0.992378
vt 0.263139 0.007622
vt 0.263139 0.992378
vt 0.249269 0.007622
vt 0.249269 0.992378
vt 0.235400 0.007622
vt 0.235400 0.992378
vt 0.221530 0.007622
vt 0.221530 0.992378
vt 0.207661 0.007622
vt 0.207661 0.992378
vt 0.193791 0.007622
vt 0.193791 0.992378
vt 0.179922 0.007622
vt 0.179922 0.992378
vt 0.166052 0.007622
vt 0.166052 0.992378
vt 0.152183 0.007622
vt 0.152183 0.992378
vt 0.138313 0.007622
vt 0.138313 0.992378
vt 0.124444 0.007622
vt 0.124444 0.992378
vt 0.110574 0.007622
vt 0.110574 0.992378
vt 0.096705 0.007622
vt 0.096705 0.992378
vt 0.082835 0.007622
vt 0.082835 0.992378
vt 0.068966 0.007622
vt 0.068966 0.992378
vt 0.055096 0.007622
vt 0.661887 0.073185
vt 0.975462 0.329065
vt 0.845575 0.946814
vt 0.055096 0.992378
vt 0.041227 0.007622
vt 0.041227 0.992378
vt 0.027357 0.007622
vt 0.800553 0.973720
vt 0.753731 0.982805
vt 0.706910 0.973720
vt 0.661887 0.946814
vt 0.620394 0.903123
vt 0.584026 0.844323
vt 0.554179 0.772676
vt 0.532000 0.690934
vt 0.518343 0.602240
vt 0.513731 0.510000
vt 0.518343 0.417760
vt 0.532000 0.329065
vt 0.554179 0.247324
vt 0.584026 0.175677
vt 0.620394 0.116877
vt 0.706910 0.046280
vt 0.753731 0.037195
vt 0.800553 0.046280
vt 0.845575 0.073185
vt 0.887068 0.116877
vt 0.923437 0.175677
vt 0.953284 0.247324
vt 0.989120 0.417760
vt 0.993731 0.510000
vt 0.989120 0.602240
vt 0.975462 0.690934
vt 0.953284 0.772676
vt 0.923437 0.844323
vt 0.887068 0.903123
vt 0.027357 0.992378
s 0
usemtl Material.001
f 2/1/1 3/2/1 1/3/1
f 4/4/2 5/5/2 3/2/2
f 6/6/3 7/7/3 5/5/3
f 8/8/4 9/9/4 7/7/4
f 10/10/5 11/11/5 9/9/5
f 12/12/6 13/13/6 11/11/6
f 14/14/7 15/15/7 13/13/7
f 16/16/8 17/17/8 15/15/8
f 18/18/9 19/19/9 17/17/9
f 20/20/10 21/21/10 19/19/10
f 22/22/11 23/23/11 21/21/11
f 24/24/12 25/25/12 23/23/12
f 26/26/13 27/27/13 25/25/13
f 28/28/14 29/29/14 27/27/14
f 30/30/15 31/31/15 29/29/15
f 32/32/16 33/33/16 31/31/16
f 34/34/17 35/35/17 33/33/17
f 36/36/18 37/37/18 35/35/18
f 38/38/19 39/39/19 37/37/19
f 40/40/20 41/41/20 39/39/20
f 42/42/21 43/43/21 41/41/21
f 44/44/22 45/45/22 43/43/22
f 46/46/23 47/47/23 45/45/23
f 48/48/24 49/49/24 47/47/24
f 50/50/25 51/51/25 49/49/25
f 52/52/26 53/53/26 51/51/26
f 54/54/27 55/55/27 53/53/27
f 56/56/28 57/57/28 55/55/28
f 58/58/29 59/59/29 57/57/29
f 60/60/30 61/61/30 59/59/30
f 38/62/31 22/63/31 6/64/31
f 62/65/32 63/66/32 61/61/32
f 64/67/33 1/68/33 63/66/33
f 2/1/1 4/4/1 3/2/1
f 4/4/2 6/6/2 5/5/2
f 6/6/3 8/8/3 7/7/3
f 8/8/4 10/10/4 9/9/4
f 10/10/5 12/12/5 11/11/5
f 12/12/6 14/14/6 13/13/6
f 14/14/7 16/16/7 15/15/7
f 16/16/8 18/18/8 17/17/8
f 18/18/9 20/20/9 19/19/9
f 20/20/10 22/22/10 21/21/10
f 22/22/11 24/24/11 23/23/11
f 24/24/12 26/26/12 25/25/12
f 26/26/13 28/28/13 27/27/13
f 28/28/14 30/30/14 29/29/14
f 30/30/15 32/32/15 31/31/15
f 32/32/16 34/34/16 33/33/16
f 34/34/17 36/36/17 35/35/17
f 36/36/18 38/38/18 37/37/18
f 38/38/19 40/40/19 39/39/19
f 40/40/20 42/42/20 41/41/20
f 42/42/21 44/44/21 43/43/21
f 44/44/22 46/46/22 45/45/22
f 46/46/23 48/48/23 47/47/23
f 48/48/24 50/50/24 49/49/24
f 50/50/25 52/52/25 51/51/25
f 52/52/26 54/54/26 53/53/26
f 54/54/27 56/56/27 55/55/27
f 56/56/28 58/58/28 57/57/28
f 58/58/29 60/60/29 59/59/29
f 60/60/30 62/65/30 61/61/30
f 6/64/31 4/69/31 2/70/31
f 2/70/31 64/71/31 62/72/31
f 62/72/31 60/73/31 58/74/31
f 58/74/31 56/75/31 54/76/31
f 54/76/31 52/77/31 50/78/31
f 50/78/31 48/79/31 46/80/31
f 46/80/31 44/81/31 42/82/31
f 42/82/31 40/83/31 38/62/31
f 38/62/31 36/84/31 34/85/31
f 34/85/31 32/86/31 30/87/31
f 30/87/31 28/88/31 26/89/31
f 26/89/31 24/90/31 22/63/31
f 22/63/31 20/91/31 18/92/31
f 18/92/31 16/93/31 14/94/31
f 14/94/31 12/95/31 10/96/31
f 10/96/31 8/97/31 6/64/31
f 6/64/31 2/70/31 62/72/31
f 62/72/31 58/74/31 54/76/31
f 54/76/31 50/78/31 46/80/31
f 46/80/31 42/82/31 38/62/31
f 38/62/31 34/85/31 30/87/31
f 30/87/31 26/89/31 22/63/31
f 22/63/31 18/92/31 14/94/31
f 14/94/31 10/96/31 6/64/31
f 6/64/31 62/72/31 54/76/31
f 54/76/31 46/80/31 38/62/31
f 38/62/31 30/87/31 22/63/31
f 22/63/31 14/94/31 6/64/31
f 6/64/31 54/76/31 38/62/31
f 62/65/32 64/67/32 63/66/32
f 64/67/33 2/98/33 1/68/33
