# Blender 4.1.1
# www.blender.org
mtllib path_tilesShort.004.mtl
o path_tilesShort.004
v -2.174086 -0.789938 -0.000000
v -2.174086 -0.789938 -0.005000
v -2.314086 -0.789938 -0.000000
v -2.314086 -0.789938 -0.005000
v -2.314086 -0.784938 -0.005000
v -2.174086 -0.784938 -0.005000
v -2.314086 -0.784938 -0.010000
v -2.174086 -0.784938 -0.010000
v -2.314086 -0.589938 -0.000000
v -2.314086 -0.694938 -0.005000
v -2.314086 -0.684938 -0.005000
v -2.314086 -0.684938 -0.010000
v -2.314086 -0.594938 -0.005000
v -2.314086 -0.589938 -0.005000
v -2.314086 -0.594938 -0.010000
v -2.314086 -0.694938 -0.010000
v -2.174086 -0.694938 -0.010000
v -2.174086 -0.694938 -0.005000
v -2.174086 -0.589938 -0.000000
v -2.174086 -0.684938 -0.005000
v -2.174086 -0.594938 -0.005000
v -2.174086 -0.594938 -0.010000
v -2.174086 -0.684938 -0.010000
v -2.174086 -0.589938 -0.005000
vn -0.0000 -1.0000 -0.0000
vn -1.0000 -0.0000 -0.0000
vn -1.0000 -0.0000 0.0001
vn 1.0000 -0.0000 -0.0000
vn 1.0000 -0.0000 0.0001
vn -0.0000 1.0000 -0.0000
vn -0.0000 -0.0000 -1.0000
vn -0.0000 -0.0000 1.0000
vt 2.755906 0.000000
vt -2.755906 0.196850
vt -2.755906 0.000000
vt 2.755906 0.196850
vt 2.755906 0.393701
vt -2.755906 0.393701
vt 3.937008 0.000000
vt -3.937008 0.196850
vt -3.937008 0.000000
vt -3.740157 0.196850
vt -0.196850 0.196850
vt -3.740157 0.393701
vt 0.196850 0.196850
vt 0.196850 0.393701
vt 3.740157 0.196850
vt 3.937008 0.196850
vt 3.740157 0.393701
vt -0.196850 0.393701
vt -3.937008 0.000000
vt 3.937008 0.000000
vt -2.755906 3.740157
vt 2.755906 3.740157
vt 2.755906 -3.937008
vt -2.755906 -3.740157
vt -2.755906 -3.937008
vt 2.755906 -3.740157
vt -2.755906 -0.196850
vt 2.755906 -0.196850
vt -2.755906 -0.000000
vt 2.755906 -0.000000
vt -2.755906 3.937008
vt 2.755906 3.937008
s 0
usemtl pavement.004
f 3/1/1 2/2/1 1/3/1
f 2/2/1 3/1/1 4/4/1
f 7/5/1 6/2/1 5/4/1
f 6/2/1 7/5/1 8/6/1
f 9/7/2 4/8/2 3/9/2
f 4/8/2 9/7/2 5/10/2
f 5/10/3 9/7/3 10/11/3
f 5/10/2 10/11/2 7/12/2
f 10/11/2 9/7/2 11/13/2
f 11/13/2 9/7/2 12/14/2
f 12/14/2 9/7/2 13/15/2
f 13/15/2 9/7/2 14/16/2
f 15/17/2 12/14/2 13/15/2
f 16/18/2 7/12/2 10/11/2
f 17/14/4 6/15/4 8/17/4
f 18/13/4 6/15/4 17/14/4
f 19/19/4 6/15/4 18/13/4
f 1/20/4 6/15/4 19/19/4
f 6/15/4 1/20/4 2/16/4
f 19/19/5 18/13/5 20/11/5
f 19/19/4 20/11/4 21/10/4
f 21/10/4 20/11/4 22/12/4
f 22/12/4 20/11/4 23/18/4
f 19/19/4 21/10/4 24/8/4
f 17/5/6 10/2/6 18/4/6
f 10/2/6 17/5/6 16/6/6
f 12/4/7 22/21/7 23/2/7
f 22/21/7 12/4/7 15/22/7
f 4/23/7 6/24/7 2/25/7
f 6/24/7 4/23/7 5/26/7
f 22/5/6 13/2/6 21/4/6
f 13/2/6 22/5/6 15/6/6
f 7/26/7 17/27/7 8/24/7
f 17/27/7 7/26/7 16/28/7
f 10/28/7 20/2/7 18/27/7
f 20/2/7 10/28/7 11/4/7
f 24/4/6 9/29/6 19/30/6
f 9/29/6 24/4/6 14/2/6
f 13/22/7 24/31/7 21/21/7
f 24/31/7 13/22/7 14/32/7
f 12/5/1 20/2/1 11/4/1
f 20/2/1 12/5/1 23/6/1
usemtl _defaultMat.006
f 9/2/8 1/5/8 19/6/8
f 1/2/8 9/5/8 3/6/8
