# Blender 4.1.1
# www.blender.org
mtllib @stairs-corner-inner.mtl
o stairs-corner-inner.001
v 4.599999 0.500000 5.166667
v 4.499999 0.500000 5.166667
v 4.699999 0.400000 5.166667
v 4.499999 0.333333 5.166667
v 5.116666 0.500000 5.166666
v 4.799999 0.500000 5.166667
v 5.116666 0.333333 5.166666
v 4.833333 0.333333 4.783333
v 4.833333 0.166667 4.783333
v 4.833333 0.333333 4.599999
v 4.833332 0.166667 4.500000
v 4.833332 0.333333 4.500000
v 5.499999 -0.000000 5.500000
v 4.499999 -0.000000 5.500000
v 5.499999 0.500000 5.500000
v 4.499999 0.500000 5.500000
v 4.499999 0.166667 4.833333
v 4.783332 0.166667 4.833333
v 4.499999 0.333333 4.833333
v 4.783332 0.333333 4.833333
v 4.499999 0.000000 4.500000
v 5.499999 0.000000 4.500000
v 4.499999 0.166667 4.500000
v 5.166666 0.333333 4.500000
v 5.499999 0.500000 4.500000
v 5.166666 0.500000 4.500000
v 5.166666 0.500000 5.116666
v 5.166666 0.333333 5.116666
v 5.166666 0.500000 4.900000
v 5.166666 0.400000 4.800000
v 5.166666 0.500000 4.699999
v 4.957428 0.333333 4.622096
v 5.054855 0.333333 4.565846
v 4.976637 0.361458 4.627244
v 5.049708 0.361458 4.585056
v 5.111105 0.333333 4.663274
v 5.013677 0.333333 4.719524
v 5.091896 0.361458 4.658127
v 5.018825 0.361458 4.700314
v 4.699999 0.500000 5.266666
v 5.266666 0.500000 4.800000
vn -0.0000 -0.0000 -1.0000
vn -1.0000 -0.0000 -0.0000
vn -0.0000 -0.0000 1.0000
vn -0.0000 -1.0000 -0.0000
vn 1.0000 -0.0000 -0.0000
vn -0.7887 0.5773 -0.2113
vn 0.2113 0.5774 -0.7887
vn -0.7887 0.5774 -0.2113
vn 0.2113 0.5774 -0.7886
vn 0.2114 0.5774 -0.7886
vn 0.7887 0.5773 0.2113
vn -0.2113 0.5773 0.7887
vn 0.7887 0.5774 0.2113
vn -0.2114 0.5774 0.7886
vn 0.2113 0.5773 -0.7887
vn 0.7887 0.5773 0.2114
vn 0.7887 0.5774 0.2114
vn -0.2113 0.5774 0.7887
vn -0.7887 0.5773 -0.2114
vn -0.7886 0.5774 -0.2114
vn -0.0000 1.0000 -0.0000
vn -0.0001 0.7071 -0.7071
vn 0.5774 0.5773 -0.5774
vn -0.0000 0.7071 -0.7071
vn -0.5773 0.5774 0.5774
vn -0.7071 0.7071 -0.0000
vn -0.5774 0.5774 -0.5774
vn -0.5773 0.5773 -0.5774
vn -0.7071 -0.0000 -0.7071
vn 0.0785 0.9206 -0.3827
vn 0.0785 0.9206 0.3827
vn 0.3481 0.8976 -0.2706
vt 0.968750 0.185000
vt 0.968750 0.225000
vt 0.968750 0.158333
vt 0.968750 0.091667
vt 0.968750 0.025000
vt 0.968750 0.175000
vt 0.968750 0.075000
vt 0.093750 0.185000
vt 0.093750 0.225000
vt 0.093750 0.091667
vt 0.093750 0.158333
s 0
usemtl colormap.003
f 3/1/1 2/2/1 1/2/1
f 2/2/1 3/1/1 4/3/1
f 5/2/1 4/3/1 3/1/1
f 5/2/1 3/1/1 6/2/1
f 4/3/1 5/2/1 7/3/1
f 10/3/2 9/4/2 8/3/2
f 9/4/2 10/3/2 11/4/2
f 11/4/2 10/3/2 12/3/2
f 15/2/3 14/5/3 13/5/3
f 14/5/3 15/2/3 16/2/3
f 19/3/1 18/4/1 17/4/1
f 18/4/1 19/3/1 20/3/1
f 23/4/1 22/5/1 21/5/1
f 22/5/1 23/4/1 11/4/1
f 22/5/1 11/4/1 24/3/1
f 24/3/1 11/4/1 12/3/1
f 22/5/1 24/3/1 25/2/1
f 25/2/1 24/3/1 26/2/1
f 2/2/2 14/5/2 16/2/2
f 14/5/2 2/2/2 4/3/2
f 14/5/2 4/3/2 17/4/2
f 17/4/2 4/3/2 19/3/2
f 14/5/2 17/4/2 21/5/2
f 21/5/2 17/4/2 23/4/2
f 22/5/4 14/5/4 21/5/4
f 14/5/4 22/5/4 13/5/4
f 22/5/5 15/2/5 13/5/5
f 15/2/5 22/5/5 25/2/5
f 29/2/2 28/3/2 27/2/2
f 28/3/2 29/2/2 30/1/2
f 28/3/2 30/1/2 24/3/2
f 24/3/2 30/1/2 31/2/2
f 24/3/2 31/2/2 26/2/2
f 34/6/6 33/7/7 32/7/8
f 33/7/9 34/6/6 35/6/10
f 38/6/11 37/7/12 36/7/13
f 37/7/14 38/6/11 39/6/14
f 33/7/15 38/6/13 36/7/16
f 38/6/17 33/7/15 35/6/15
f 39/6/18 32/7/19 37/7/18
f 32/7/20 39/6/12 34/6/20
f 38/6/21 34/6/21 39/6/21
f 34/6/21 38/6/21 35/6/21
f 3/8/22 1/9/23 40/9/24
f 31/9/25 30/8/26 41/9/26
f 40/9/24 6/9/27 3/8/24
f 41/9/26 30/8/26 29/9/28
f 18/10/21 23/10/21 17/10/21
f 23/10/21 18/10/21 11/10/21
f 11/10/21 18/10/21 9/10/21
f 2/9/21 40/9/21 1/9/21
f 16/9/21 40/9/21 2/9/21
f 40/9/21 16/9/21 15/9/21
f 40/9/21 15/9/21 6/9/21
f 6/9/21 15/9/21 5/9/21
f 5/9/21 15/9/21 27/9/21
f 27/9/21 15/9/21 29/9/21
f 29/9/21 15/9/21 41/9/21
f 25/9/21 41/9/21 15/9/21
f 26/9/21 41/9/21 25/9/21
f 41/9/21 26/9/21 31/9/21
f 5/9/29 28/11/29 7/11/29
f 28/11/29 5/9/29 27/9/29
f 7/11/21 19/11/21 4/11/21
f 19/11/21 7/11/21 20/11/21
f 20/11/21 7/11/21 8/11/21
f 24/11/21 8/11/21 7/11/21
f 24/11/21 7/11/21 28/11/21
f 12/11/21 8/11/21 24/11/21
f 8/11/30 12/11/31 10/11/32
f 8/11/29 18/10/29 20/11/29
f 18/10/29 8/11/29 9/10/29
f 3/1/1 2/2/1 1/2/1
f 2/2/1 3/1/1 4/3/1
f 5/2/1 4/3/1 3/1/1
f 5/2/1 3/1/1 6/2/1
f 4/3/1 5/2/1 7/3/1
f 10/3/2 9/4/2 8/3/2
f 9/4/2 10/3/2 11/4/2
f 11/4/2 10/3/2 12/3/2
f 15/2/3 14/5/3 13/5/3
f 14/5/3 15/2/3 16/2/3
f 19/3/1 18/4/1 17/4/1
f 18/4/1 19/3/1 20/3/1
f 23/4/1 22/5/1 21/5/1
f 22/5/1 23/4/1 11/4/1
f 22/5/1 11/4/1 24/3/1
f 24/3/1 11/4/1 12/3/1
f 22/5/1 24/3/1 25/2/1
f 25/2/1 24/3/1 26/2/1
f 2/2/2 14/5/2 16/2/2
f 14/5/2 2/2/2 4/3/2
f 14/5/2 4/3/2 17/4/2
f 17/4/2 4/3/2 19/3/2
f 14/5/2 17/4/2 21/5/2
f 21/5/2 17/4/2 23/4/2
f 22/5/4 14/5/4 21/5/4
f 14/5/4 22/5/4 13/5/4
f 22/5/5 15/2/5 13/5/5
f 15/2/5 22/5/5 25/2/5
f 29/2/2 28/3/2 27/2/2
f 28/3/2 29/2/2 30/1/2
f 28/3/2 30/1/2 24/3/2
f 24/3/2 30/1/2 31/2/2
f 24/3/2 31/2/2 26/2/2
f 34/6/6 33/7/7 32/7/8
f 33/7/9 34/6/6 35/6/10
f 38/6/11 37/7/12 36/7/13
f 37/7/14 38/6/11 39/6/14
f 33/7/15 38/6/13 36/7/16
f 38/6/17 33/7/15 35/6/15
f 39/6/18 32/7/19 37/7/18
f 32/7/20 39/6/12 34/6/20
f 38/6/21 34/6/21 39/6/21
f 34/6/21 38/6/21 35/6/21
f 3/8/22 1/9/23 40/9/24
f 31/9/25 30/8/26 41/9/26
f 40/9/24 6/9/27 3/8/24
f 41/9/26 30/8/26 29/9/28
f 18/10/21 23/10/21 17/10/21
f 23/10/21 18/10/21 11/10/21
f 11/10/21 18/10/21 9/10/21
f 2/9/21 40/9/21 1/9/21
f 16/9/21 40/9/21 2/9/21
f 40/9/21 16/9/21 15/9/21
f 40/9/21 15/9/21 6/9/21
f 6/9/21 15/9/21 5/9/21
f 5/9/21 15/9/21 27/9/21
f 27/9/21 15/9/21 29/9/21
f 29/9/21 15/9/21 41/9/21
f 25/9/21 41/9/21 15/9/21
f 26/9/21 41/9/21 25/9/21
f 41/9/21 26/9/21 31/9/21
f 5/9/29 28/11/29 7/11/29
f 28/11/29 5/9/29 27/9/29
f 7/11/21 19/11/21 4/11/21
f 19/11/21 7/11/21 20/11/21
f 20/11/21 7/11/21 8/11/21
f 24/11/21 8/11/21 7/11/21
f 24/11/21 7/11/21 28/11/21
f 12/11/21 8/11/21 24/11/21
f 8/11/30 12/11/31 10/11/32
f 8/11/29 18/10/29 20/11/29
f 18/10/29 8/11/29 9/10/29
