# Blender 4.1.1
# www.blender.org
mtllib @border.004.mtl
o @border.004
v 55.933624 -61.000000 8.839520
v 58.015594 -61.000000 12.161745
v 59.409424 -61.000000 15.826308
v 60.061554 -61.000000 19.692375
v 59.946922 -61.000000 23.611389
v 59.069927 -61.000000 27.432728
v 57.464279 -61.000000 31.009552
v 55.191681 -61.000000 34.204403
v 52.339462 -61.000000 36.894501
v 49.017235 -61.000000 38.976471
v 45.352673 -61.000000 40.370300
v 41.486607 -61.000000 41.022430
v 37.567596 -61.000000 40.907799
v 33.746258 -61.000000 40.030804
v 30.169434 -61.000000 38.425156
v 26.974583 -61.000000 36.152554
v 24.284479 -61.000000 33.300335
v 22.202511 -61.000000 29.978111
v 20.808680 -61.000000 26.313549
v 20.156549 -61.000000 22.447479
v 20.271185 -61.000000 18.528469
v 21.148178 -61.000000 14.707129
v 22.753826 -61.000000 11.130305
v 25.026428 -61.000000 7.935455
v 27.878643 -61.000000 5.245356
v 31.200871 -61.000000 3.163386
v 34.865433 -61.000000 1.769555
v 38.731503 -61.000000 1.117425
v 42.650513 -61.000000 1.232059
v 46.471851 -61.000000 2.109053
v 50.048676 -61.000000 3.714703
v 53.243526 -61.000000 5.987303
v 40.109055 139.000000 21.069927
vn 0.8432 0.0990 -0.5284
vn 0.9301 0.0990 -0.3538
vn 0.9812 0.0990 -0.1655
vn 0.9947 0.0990 0.0291
vn 0.9699 0.0990 0.2226
vn 0.9078 0.0990 0.4075
vn 0.8109 0.0990 0.5768
vn 0.6828 0.0990 0.7239
vn 0.5284 0.0990 0.8432
vn 0.3538 0.0990 0.9301
vn 0.1655 0.0990 0.9812
vn -0.0291 0.0990 0.9947
vn -0.2226 0.0990 0.9699
vn -0.4075 0.0990 0.9078
vn -0.5768 0.0990 0.8109
vn -0.7239 0.0990 0.6828
vn -0.8432 0.0990 0.5284
vn -0.9301 0.0990 0.3538
vn -0.9812 0.0990 0.1655
vn -0.9947 0.0990 -0.0291
vn -0.9699 0.0990 -0.2226
vn -0.9078 0.0990 -0.4075
vn -0.8109 0.0990 -0.5768
vn -0.6828 0.0990 -0.7239
vn -0.5284 0.0990 -0.8432
vn -0.3538 0.0990 -0.9301
vn -0.1655 0.0990 -0.9812
vn 0.0291 0.0990 -0.9947
vn 0.2226 0.0990 -0.9699
vn 0.4075 0.0990 -0.9078
vn -0.0000 -1.0000 -0.0000
vn 0.5768 0.0990 -0.8109
vn 0.7239 0.0990 -0.6828
vt 0.250000 0.490000
vt 0.250000 0.250000
vt 0.296822 0.485388
vt 0.341844 0.471731
vt 0.383337 0.449553
vt 0.419706 0.419706
vt 0.449553 0.383337
vt 0.471731 0.341844
vt 0.485388 0.296822
vt 0.490000 0.250000
vt 0.485388 0.203178
vt 0.471731 0.158156
vt 0.449553 0.116663
vt 0.419706 0.080294
vt 0.383337 0.050447
vt 0.341844 0.028269
vt 0.296822 0.014612
vt 0.250000 0.010000
vt 0.203178 0.014612
vt 0.158156 0.028269
vt 0.116663 0.050447
vt 0.080294 0.080294
vt 0.050447 0.116663
vt 0.028269 0.158156
vt 0.014612 0.203178
vt 0.010000 0.250000
vt 0.014612 0.296822
vt 0.028269 0.341844
vt 0.050447 0.383337
vt 0.080294 0.419706
vt 0.116663 0.449553
vt 0.158156 0.471731
vt 0.796822 0.014612
vt 0.514612 0.203178
vt 0.703178 0.485388
vt 0.203178 0.485388
vt 0.750000 0.490000
vt 0.796822 0.485388
vt 0.841844 0.471731
vt 0.883337 0.449553
vt 0.919706 0.419706
vt 0.949553 0.383337
vt 0.971731 0.341844
vt 0.985388 0.296822
vt 0.990000 0.250000
vt 0.985388 0.203178
vt 0.971731 0.158156
vt 0.949553 0.116663
vt 0.919706 0.080294
vt 0.883337 0.050447
vt 0.841844 0.028269
vt 0.750000 0.010000
vt 0.703178 0.014612
vt 0.658156 0.028269
vt 0.616663 0.050447
vt 0.580294 0.080294
vt 0.550447 0.116663
vt 0.528269 0.158156
vt 0.510000 0.250000
vt 0.514612 0.296822
vt 0.528269 0.341844
vt 0.550447 0.383337
vt 0.580294 0.419706
vt 0.616663 0.449553
vt 0.658156 0.471731
s 0
usemtl Material.001
f 1/1/1 33/2/1 2/3/1
f 2/3/2 33/2/2 3/4/2
f 3/4/3 33/2/3 4/5/3
f 4/5/4 33/2/4 5/6/4
f 5/6/5 33/2/5 6/7/5
f 6/7/6 33/2/6 7/8/6
f 7/8/7 33/2/7 8/9/7
f 8/9/8 33/2/8 9/10/8
f 9/10/9 33/2/9 10/11/9
f 10/11/10 33/2/10 11/12/10
f 11/12/11 33/2/11 12/13/11
f 12/13/12 33/2/12 13/14/12
f 13/14/13 33/2/13 14/15/13
f 14/15/14 33/2/14 15/16/14
f 15/16/15 33/2/15 16/17/15
f 16/17/16 33/2/16 17/18/16
f 17/18/17 33/2/17 18/19/17
f 18/19/18 33/2/18 19/20/18
f 19/20/19 33/2/19 20/21/19
f 20/21/20 33/2/20 21/22/20
f 21/22/21 33/2/21 22/23/21
f 22/23/22 33/2/22 23/24/22
f 23/24/23 33/2/23 24/25/23
f 24/25/24 33/2/24 25/26/24
f 25/26/25 33/2/25 26/27/25
f 26/27/26 33/2/26 27/28/26
f 27/28/27 33/2/27 28/29/27
f 28/29/28 33/2/28 29/30/28
f 29/30/29 33/2/29 30/31/29
f 30/31/30 33/2/30 31/32/30
f 16/33/31 24/34/31 32/35/31
f 31/32/32 33/2/32 32/36/32
f 32/36/33 33/2/33 1/1/33
f 32/35/31 1/37/31 2/38/31
f 2/38/31 3/39/31 4/40/31
f 4/40/31 5/41/31 6/42/31
f 6/42/31 7/43/31 8/44/31
f 8/44/31 9/45/31 10/46/31
f 10/46/31 11/47/31 12/48/31
f 12/48/31 13/49/31 14/50/31
f 14/50/31 15/51/31 16/33/31
f 16/33/31 17/52/31 18/53/31
f 18/53/31 19/54/31 20/55/31
f 20/55/31 21/56/31 22/57/31
f 22/57/31 23/58/31 24/34/31
f 24/34/31 25/59/31 26/60/31
f 26/60/31 27/61/31 28/62/31
f 28/62/31 29/63/31 30/64/31
f 30/64/31 31/65/31 32/35/31
f 32/35/31 2/38/31 4/40/31
f 4/40/31 6/42/31 8/44/31
f 8/44/31 10/46/31 12/48/31
f 12/48/31 14/50/31 16/33/31
f 16/33/31 18/53/31 20/55/31
f 20/55/31 22/57/31 24/34/31
f 24/34/31 26/60/31 28/62/31
f 28/62/31 30/64/31 32/35/31
f 32/35/31 4/40/31 8/44/31
f 8/44/31 12/48/31 16/33/31
f 16/33/31 20/55/31 24/34/31
f 24/34/31 28/62/31 32/35/31
f 32/35/31 8/44/31 16/33/31
