# Blender 4.1.1
# www.blender.org
mtllib floor_stairsCornerOuter.003.mtl
o floor_stairsCornerOuter
v -2.000000 0.150000 -1.000000
v -2.000000 0.250000 -1.000000
v -2.000000 0.150000 -0.500000
v -2.000000 0.250000 -0.500000
v -1.500000 0.150000 -1.000000
v -1.500000 0.250000 -1.000000
v -2.250000 0.050000 -1.250000
v -2.250000 0.150000 -1.250000
v -2.250000 0.050000 -0.500000
v -2.250000 0.150000 -0.500000
v -1.750000 0.250000 -0.750000
v -1.750000 0.350000 -0.750000
v -1.750000 0.250000 -0.500000
v -1.750000 0.350000 -0.500000
v -1.500000 0.050000 -1.250000
v -1.500000 0.150000 -1.250000
v -1.500000 0.250000 -0.750000
v -1.500000 0.350000 -0.750000
v -2.500000 0.000000 -0.500000
v -1.500000 0.000000 -0.500000
v -1.500000 0.350000 -0.500000
v -2.500000 0.050000 -0.500000
v -2.500000 -0.000000 -1.500000
v -2.500000 0.050000 -1.500000
v -1.500000 -0.000000 -1.500000
v -1.500000 0.050000 -1.500000
vn -1.0000 -0.0000 -0.0000
vn -0.0000 -0.0000 -1.0000
vn -0.0000 -0.0000 1.0000
vn -0.0000 -0.9680 -0.2510
vn -0.0000 -0.9680 -0.2509
vn -0.0000 -1.0000 -0.0000
vn 1.0000 -0.0000 -0.0000
vn -0.0000 1.0000 -0.0000
vt -5.708666 0.150000
vt -6.208666 0.250000
vt -6.208666 0.150000
vt -5.708666 0.250000
vt 0.500000 0.250000
vt 0.000000 0.150000
vt 0.500000 0.150000
vt 0.000000 0.250000
vt -6.458666 0.350000
vt -6.458666 0.250000
vt -5.708666 0.350000
vt -5.958666 0.350000
vt -5.958666 0.250000
vt 0.750000 0.350000
vt 0.750000 0.250000
vt 0.000000 0.350000
vt 0.250000 0.350000
vt 0.250000 0.250000
vt 5.833666 -0.000000
vt 5.083666 0.050000
vt 4.833666 -0.000000
vt 5.583666 0.250000
vt 5.833666 0.350000
vt 5.333666 0.150000
vt 5.583666 0.350000
vt 5.333666 0.250000
vt 5.083666 0.150000
vt 4.833666 0.050000
vt -5.708666 0.200000
vt -6.708666 0.250000
vt -6.708666 0.200000
vt 1.000000 0.250000
vt -0.000000 0.200000
vt 1.000000 0.200000
vt -0.000000 0.250000
vt 6.333666 0.150000
vt 6.583666 0.050000
vt 6.583666 0.150000
vt 5.833666 0.000000
vt 6.833666 0.000000
vt 6.833666 0.050000
vt 6.083666 0.250000
vt 6.333666 0.250000
vt 6.083666 0.350000
vt 0.500000 -0.500000
vt 0.000000 -0.250000
vt 0.000000 -0.500000
vt 0.250000 -0.250000
vt -1.000000 -0.250000
vt -1.000000 -0.000000
vt -1.250000 -0.250000
vt 0.000000 -0.000000
vt 0.750000 -0.750000
vt 0.000000 -0.750000
vt -2.000000 -1.000000
vt -1.000000 -0.750000
vt -1.750000 -0.750000
vt -1.000000 -1.000000
vt -1.500000 -0.500000
vt -1.000000 -0.500000
vt 1.000000 -1.000000
vt 0.000000 -1.000000
s 0
usemtl stones.009
f 3/1/1 2/2/1 1/3/1
f 2/2/1 3/1/1 4/4/1
f 2/5/2 5/6/2 1/7/2
f 5/6/2 2/5/2 6/8/2
f 9/4/1 8/9/1 7/10/1
f 8/9/1 9/4/1 10/11/1
f 13/4/1 12/12/1 11/13/1
f 12/12/1 13/4/1 14/11/1
f 8/14/2 15/8/2 7/15/2
f 15/8/2 8/14/2 16/16/2
f 12/17/2 17/8/2 11/18/2
f 17/8/2 12/17/2 18/16/2
f 20/19/3 9/20/3 19/21/3
f 9/20/3 20/19/3 13/22/3
f 13/22/3 20/19/3 21/23/3
f 9/20/4 13/22/5 3/24/6
f 13/22/3 21/23/3 14/25/3
f 4/26/3 3/24/3 13/22/3
f 10/27/3 9/20/3 3/24/3
f 22/28/3 19/21/3 9/20/3
f 19/29/1 24/30/1 23/31/1
f 24/30/1 19/29/1 22/4/1
f 24/32/2 25/33/2 23/34/2
f 25/33/2 24/32/2 26/35/2
f 5/36/7 15/37/7 16/38/7
f 20/39/7 15/37/7 5/36/7
f 25/40/7 15/37/7 20/39/7
f 15/37/7 25/40/7 26/41/7
f 20/39/7 5/36/7 17/42/7
f 17/42/7 5/36/7 6/43/7
f 20/39/7 17/42/7 21/23/7
f 21/23/7 17/42/7 18/44/7
usemtl bricks.012
f 2/45/8 17/46/8 6/47/8
f 17/46/8 2/45/8 11/48/8
f 14/49/8 21/50/8 12/51/8
f 12/48/8 21/52/8 18/46/8
f 8/53/8 5/47/8 16/54/8
f 5/47/8 8/53/8 1/45/8
f 24/55/8 9/56/8 7/57/8
f 9/56/8 24/55/8 22/58/8
f 2/59/8 13/49/8 11/51/8
f 13/49/8 2/59/8 4/60/8
f 8/57/8 3/60/8 1/59/8
f 3/60/8 8/57/8 10/56/8
f 24/61/8 15/54/8 26/62/8
f 15/54/8 24/61/8 7/53/8
