# Blender 4.1.1
# www.blender.org
mtllib @deco.001.mtl
o weapon-spear.001
v 0.472859 6.955731 -20.293375
v 0.177859 6.955731 -20.293375
v 0.472859 7.455731 -20.293375
v 0.177859 7.455731 -20.293375
v 0.027859 6.955731 -20.443377
v 0.027859 7.455731 -20.443377
v 0.622859 7.455731 -20.738377
v 0.622859 6.955731 -20.738377
v 0.622859 7.455731 -20.443377
v 0.622859 6.955731 -20.443377
v 0.472859 7.455731 -20.888376
v 0.177859 7.455731 -20.888376
v 0.027859 7.455731 -20.738377
v 0.472859 6.955731 -20.888376
v 0.177859 6.955731 -20.888376
v 0.027859 6.955731 -20.738377
v 0.411609 8.455731 -20.677126
v 0.411609 8.455731 -20.504625
v 0.239109 8.455731 -20.677126
v 0.239109 8.455731 -20.504625
v 0.152859 7.455731 -20.763376
v -0.040341 7.955731 -20.763376
v 0.152859 7.455731 -20.418375
v -0.040341 7.955731 -20.418375
v 0.691059 7.955731 -20.763376
v 0.497859 7.455731 -20.763376
v 0.691059 7.955731 -20.418375
v 0.497859 7.455731 -20.418375
v 0.454734 4.955731 -20.461500
v 0.454734 4.955731 -20.720251
v 0.195984 4.955731 -20.461500
v 0.195984 4.955731 -20.720251
v 0.497859 6.955731 -20.763376
v 0.497859 6.955731 -20.418375
v 0.152859 6.955731 -20.763376
v 0.152859 6.955731 -20.418375
vn 0.3827 -0.0000 0.9239
vn -0.3827 -0.0000 0.9239
vn -0.9239 -0.0000 0.3827
vn 0.9239 -0.0000 0.3827
vn 0.9239 -0.0000 -0.3827
vn -0.0000 1.0000 -0.0000
vn -0.0000 -1.0000 -0.0000
vn -0.3827 -0.0000 -0.9239
vn 0.3827 -0.0000 -0.9239
vn -0.9239 -0.0000 -0.3827
vn -0.5871 -0.2268 0.7771
vn -0.9989 0.0470 -0.0000
vn -0.9328 -0.3604 -0.0000
vn -0.7654 0.0873 0.6376
vn 0.9989 0.0470 -0.0000
vn 0.9328 -0.3604 -0.0000
vn -0.0000 0.0802 0.9968
vn -0.0000 -0.0000 1.0000
vn -0.5871 -0.2269 0.7771
vn -0.0000 0.0802 -0.9968
vn -0.0000 -0.0000 -1.0000
vn -0.0000 0.1700 0.9854
vn -0.0000 0.0803 0.9968
vn -0.7654 0.0874 0.6375
vn 0.8729 0.4879 -0.0000
vn -0.0000 0.1700 -0.9854
vn -0.0000 0.0803 -0.9968
vn -0.8729 0.4879 -0.0000
vn 0.9998 -0.0216 -0.0000
vn -0.0000 -0.0216 -0.9998
vn -0.0000 -0.0216 0.9998
vn -0.9998 -0.0216 -0.0000
vt 0.468750 0.225000
vt 0.468750 0.025000
vt 0.468750 0.175000
vt 0.468750 0.075000
vt 0.468750 0.125000
vt 0.718750 0.225000
vt 0.718750 0.025000
s 0
usemtl colormap.001
f 3/1/1 2/2/2 1/2/1
f 2/2/2 3/1/1 4/1/2
f 2/2/2 6/1/3 5/2/3
f 6/1/3 2/2/2 4/1/2
f 9/1/4 8/2/5 7/1/5
f 8/2/5 9/1/4 10/2/4
f 3/1/1 10/2/4 9/1/4
f 10/2/4 3/1/1 1/2/1
f 11/1/6 9/1/6 7/1/6
f 9/1/6 11/1/6 3/1/6
f 3/1/6 11/1/6 12/1/6
f 3/1/6 12/1/6 4/1/6
f 4/1/6 12/1/6 13/1/6
f 4/1/6 13/1/6 6/1/6
f 1/2/7 8/2/7 10/2/7
f 8/2/7 1/2/7 14/2/7
f 14/2/7 1/2/7 2/2/7
f 14/2/7 2/2/7 15/2/7
f 15/2/7 2/2/7 5/2/7
f 15/2/7 5/2/7 16/2/7
f 12/1/8 14/2/9 15/2/8
f 14/2/9 12/1/8 11/1/9
f 7/1/5 14/2/9 11/1/9
f 14/2/9 7/1/5 8/2/5
f 5/2/3 13/1/10 16/2/10
f 13/1/10 5/2/3 6/1/3
f 16/2/10 12/1/8 15/2/8
f 12/1/8 16/2/10 13/1/10
f 19/3/6 18/3/6 17/3/6
f 18/3/6 19/3/6 20/3/6
f 23/4/11 22/5/12 21/4/13
f 22/5/12 23/4/11 24/5/14
f 27/5/15 26/4/16 25/5/15
f 26/4/16 27/5/15 28/4/16
f 27/5/17 23/4/11 28/4/18
f 23/4/19 27/5/17 24/5/14
f 22/5/20 26/4/21 21/4/21
f 26/4/21 22/5/20 25/5/20
f 18/3/22 24/5/14 27/5/23
f 24/5/24 18/3/22 20/3/22
f 17/3/25 27/5/15 25/5/15
f 27/5/15 17/3/25 18/3/25
f 19/3/26 25/5/27 22/5/27
f 25/5/27 19/3/26 17/3/26
f 24/5/14 19/3/28 22/5/12
f 19/3/28 24/5/14 20/3/28
f 31/6/7 30/6/7 29/6/7
f 30/6/7 31/6/7 32/6/7
f 35/7/6 34/7/6 33/7/6
f 34/7/6 35/7/6 36/7/6
f 34/7/29 30/6/29 33/7/29
f 30/6/29 34/7/29 29/6/29
f 35/7/30 30/6/30 32/6/30
f 30/6/30 35/7/30 33/7/30
f 34/7/31 31/6/31 29/6/31
f 31/6/31 34/7/31 36/7/31
f 32/6/32 36/7/32 35/7/32
f 36/7/32 32/6/32 31/6/32
f 3/1/1 2/2/2 1/2/1
f 2/2/2 3/1/1 4/1/2
f 2/2/2 6/1/3 5/2/3
f 6/1/3 2/2/2 4/1/2
f 9/1/4 8/2/5 7/1/5
f 8/2/5 9/1/4 10/2/4
f 3/1/1 10/2/4 9/1/4
f 10/2/4 3/1/1 1/2/1
f 11/1/6 9/1/6 7/1/6
f 9/1/6 11/1/6 3/1/6
f 3/1/6 11/1/6 12/1/6
f 3/1/6 12/1/6 4/1/6
f 4/1/6 12/1/6 13/1/6
f 4/1/6 13/1/6 6/1/6
f 1/2/7 8/2/7 10/2/7
f 8/2/7 1/2/7 14/2/7
f 14/2/7 1/2/7 2/2/7
f 14/2/7 2/2/7 15/2/7
f 15/2/7 2/2/7 5/2/7
f 15/2/7 5/2/7 16/2/7
f 12/1/8 14/2/9 15/2/8
f 14/2/9 12/1/8 11/1/9
f 7/1/5 14/2/9 11/1/9
f 14/2/9 7/1/5 8/2/5
f 5/2/3 13/1/10 16/2/10
f 13/1/10 5/2/3 6/1/3
f 16/2/10 12/1/8 15/2/8
f 12/1/8 16/2/10 13/1/10
f 19/3/6 18/3/6 17/3/6
f 18/3/6 19/3/6 20/3/6
f 23/4/11 22/5/12 21/4/13
f 22/5/12 23/4/11 24/5/14
f 27/5/15 26/4/16 25/5/15
f 26/4/16 27/5/15 28/4/16
f 27/5/17 23/4/11 28/4/18
f 23/4/19 27/5/17 24/5/14
f 22/5/20 26/4/21 21/4/21
f 26/4/21 22/5/20 25/5/20
f 18/3/22 24/5/14 27/5/23
f 24/5/24 18/3/22 20/3/22
f 17/3/25 27/5/15 25/5/15
f 27/5/15 17/3/25 18/3/25
f 19/3/26 25/5/27 22/5/27
f 25/5/27 19/3/26 17/3/26
f 24/5/14 19/3/28 22/5/12
f 19/3/28 24/5/14 20/3/28
f 31/6/7 30/6/7 29/6/7
f 30/6/7 31/6/7 32/6/7
f 35/7/6 34/7/6 33/7/6
f 34/7/6 35/7/6 36/7/6
f 34/7/29 30/6/29 33/7/29
f 30/6/29 34/7/29 29/6/29
f 35/7/30 30/6/30 32/6/30
f 30/6/30 35/7/30 33/7/30
f 34/7/31 31/6/31 29/6/31
f 31/6/31 34/7/31 36/7/31
f 32/6/32 36/7/32 35/7/32
f 36/7/32 32/6/32 31/6/32
