# Blender 4.1.1
# www.blender.org
mtllib bed-double.mtl
o bed-double
v -0.231062 0.319978 -1.498544
v -0.231062 0.319978 -0.698543
v -0.231062 0.119978 -1.448543
v -0.231062 0.119978 -0.748543
v 0.568938 0.319978 -1.498544
v 0.568938 0.119978 -1.448543
v 0.568938 0.319978 -0.698543
v 0.568938 0.119978 -0.748543
v -0.331062 0.319978 -1.548543
v -0.281062 0.319978 -1.598543
v -0.331062 0.419978 -1.548543
v -0.281062 0.419978 -1.598543
v -0.331062 0.319978 -0.648543
v -0.331062 0.419978 -0.648543
v -0.281062 0.319978 -0.598543
v -0.281062 0.419978 -0.598543
v 0.668938 0.419978 -1.548543
v 0.668938 0.419978 -0.648543
v 0.618938 0.419978 -1.598543
v 0.618938 0.419978 -0.598543
v 0.618938 0.319978 -0.598543
v 0.618938 0.319978 -1.598543
v 0.668938 0.319978 -0.648543
v 0.668938 0.319978 -1.548543
v 0.068938 0.419978 -1.298543
v -0.231062 0.419978 -1.298543
v 0.068938 0.469978 -1.298543
v -0.231062 0.469978 -1.298543
v 0.068938 0.469978 -1.498544
v -0.231062 0.469978 -1.498544
v 0.068938 0.419978 -1.498544
v -0.231062 0.419978 -1.498544
v 0.568938 0.419978 -1.298543
v 0.268938 0.419978 -1.298543
v 0.568938 0.469978 -1.298543
v 0.268938 0.469978 -1.298543
v 0.568938 0.469978 -1.498544
v 0.268938 0.469978 -1.498544
v 0.568938 0.419978 -1.498544
v 0.268938 0.419978 -1.498544
vn -1.0000 -0.0000 -0.0000
vn 1.0000 -0.0000 -0.0000
vn -0.0000 -0.2425 -0.9701
vn -0.0000 -1.0000 -0.0000
vn -0.0000 -0.2425 0.9701
vn -0.9239 -0.0000 -0.3827
vn -0.3827 0.0002 -0.9239
vn -0.3827 -0.0000 -0.9239
vn -0.9239 -0.0000 0.3827
vn -0.3827 -0.0000 0.9239
vn -0.0000 1.0000 -0.0000
vn 0.3827 -0.0000 0.9239
vn 0.3827 -0.0000 -0.9239
vn 0.9239 -0.0000 0.3827
vn 0.3827 0.0002 0.9239
vn 0.9239 -0.0000 -0.3827
vn 0.5773 0.5774 0.5774
vn -0.0000 -0.0000 1.0000
vn -0.5774 0.5773 0.5774
vn -0.5773 0.5774 -0.5774
vn 0.5773 0.5774 -0.5774
vn -0.5773 0.5774 0.5774
vn 0.5774 0.5774 0.5773
vn 0.5774 0.5774 -0.5773
vn -0.0000 -0.0000 -1.0000
vn 0.5774 0.5773 -0.5774
vn -0.5774 0.5774 -0.5773
vn -0.5774 0.5774 0.5773
vt 0.218750 0.025000
vt 0.218750 0.158333
vt 0.343750 0.225000
vt 0.343750 0.158333
vt 0.218750 0.475000
vt 0.218750 0.275000
vt 0.468750 0.025000
s 0
usemtl colormap.001
f 3/1/1 2/2/1 1/2/1
f 2/2/1 3/1/1 4/1/1
f 7/2/2 6/1/2 5/2/2
f 6/1/2 7/2/2 8/1/2
f 1/2/3 6/1/3 3/1/3
f 6/1/3 1/2/3 5/2/3
f 8/1/4 3/1/4 6/1/4
f 3/1/4 8/1/4 4/1/4
f 7/2/5 4/1/5 8/1/5
f 4/1/5 7/2/5 2/2/5
f 11/3/6 10/4/7 9/4/6
f 10/4/8 11/3/6 12/3/8
f 13/4/9 11/3/6 9/4/6
f 11/3/6 13/4/9 14/3/9
f 15/4/10 14/3/9 13/4/9
f 14/3/9 15/4/10 16/3/10
f 19/3/11 18/3/11 17/3/11
f 18/3/11 19/3/11 20/3/11
f 20/3/11 19/3/11 12/3/11
f 20/3/11 12/3/11 16/3/11
f 16/3/11 12/3/11 11/3/11
f 16/3/11 11/3/11 14/3/11
f 9/4/4 15/4/4 13/4/4
f 10/4/4 15/4/4 9/4/4
f 2/4/4 15/4/4 10/4/4
f 10/4/4 1/4/4 2/4/4
f 7/4/4 15/4/4 2/4/4
f 10/4/4 5/4/4 1/4/4
f 7/4/4 21/4/4 15/4/4
f 21/4/4 7/4/4 5/4/4
f 22/4/4 5/4/4 10/4/4
f 22/4/4 21/4/4 5/4/4
f 22/4/4 23/4/4 21/4/4
f 23/4/4 22/4/4 24/4/4
f 20/3/12 15/4/10 21/4/12
f 15/4/10 20/3/12 16/3/10
f 12/3/8 22/4/13 10/4/8
f 22/4/13 12/3/8 19/3/13
f 18/3/14 21/4/15 23/4/14
f 21/4/12 18/3/14 20/3/12
f 18/3/14 24/4/16 17/3/16
f 24/4/16 18/3/14 23/4/14
f 17/3/16 22/4/13 19/3/13
f 22/4/13 17/3/16 24/4/16
f 27/5/17 26/6/18 25/6/18
f 26/6/18 27/5/17 28/5/19
f 30/5/20 27/5/17 29/5/21
f 27/5/17 30/5/20 28/5/22
f 27/5/23 31/6/2 29/5/24
f 31/6/2 27/5/23 25/6/2
f 30/5/20 31/6/25 32/6/25
f 31/6/25 30/5/20 29/5/26
f 26/6/1 30/5/27 32/6/1
f 30/5/27 26/6/1 28/5/28
f 35/5/17 34/6/18 33/6/18
f 34/6/18 35/5/17 36/5/19
f 38/5/20 35/5/17 37/5/21
f 35/5/17 38/5/20 36/5/22
f 35/5/23 39/6/2 37/5/24
f 39/6/2 35/5/23 33/6/2
f 38/5/20 39/6/25 40/6/25
f 39/6/25 38/5/20 37/5/26
f 34/6/1 38/5/27 40/6/1
f 38/5/27 34/6/1 36/5/28
f 25/7/4 32/7/4 31/7/4
f 32/7/4 25/7/4 26/7/4
f 33/7/4 40/7/4 39/7/4
f 40/7/4 33/7/4 34/7/4
f 3/1/1 2/2/1 1/2/1
f 2/2/1 3/1/1 4/1/1
f 7/2/2 6/1/2 5/2/2
f 6/1/2 7/2/2 8/1/2
f 1/2/3 6/1/3 3/1/3
f 6/1/3 1/2/3 5/2/3
f 8/1/4 3/1/4 6/1/4
f 3/1/4 8/1/4 4/1/4
f 7/2/5 4/1/5 8/1/5
f 4/1/5 7/2/5 2/2/5
f 11/3/6 10/4/7 9/4/6
f 10/4/8 11/3/6 12/3/8
f 13/4/9 11/3/6 9/4/6
f 11/3/6 13/4/9 14/3/9
f 15/4/10 14/3/9 13/4/9
f 14/3/9 15/4/10 16/3/10
f 19/3/11 18/3/11 17/3/11
f 18/3/11 19/3/11 20/3/11
f 20/3/11 19/3/11 12/3/11
f 20/3/11 12/3/11 16/3/11
f 16/3/11 12/3/11 11/3/11
f 16/3/11 11/3/11 14/3/11
f 9/4/4 15/4/4 13/4/4
f 10/4/4 15/4/4 9/4/4
f 2/4/4 15/4/4 10/4/4
f 10/4/4 1/4/4 2/4/4
f 7/4/4 15/4/4 2/4/4
f 10/4/4 5/4/4 1/4/4
f 7/4/4 21/4/4 15/4/4
f 21/4/4 7/4/4 5/4/4
f 22/4/4 5/4/4 10/4/4
f 22/4/4 21/4/4 5/4/4
f 22/4/4 23/4/4 21/4/4
f 23/4/4 22/4/4 24/4/4
f 20/3/12 15/4/10 21/4/12
f 15/4/10 20/3/12 16/3/10
f 12/3/8 22/4/13 10/4/8
f 22/4/13 12/3/8 19/3/13
f 18/3/14 21/4/15 23/4/14
f 21/4/12 18/3/14 20/3/12
f 18/3/14 24/4/16 17/3/16
f 24/4/16 18/3/14 23/4/14
f 17/3/16 22/4/13 19/3/13
f 22/4/13 17/3/16 24/4/16
f 27/5/17 26/6/18 25/6/18
f 26/6/18 27/5/17 28/5/19
f 30/5/20 27/5/17 29/5/21
f 27/5/17 30/5/20 28/5/22
f 27/5/23 31/6/2 29/5/24
f 31/6/2 27/5/23 25/6/2
f 30/5/20 31/6/25 32/6/25
f 31/6/25 30/5/20 29/5/26
f 26/6/1 30/5/27 32/6/1
f 30/5/27 26/6/1 28/5/28
f 35/5/17 34/6/18 33/6/18
f 34/6/18 35/5/17 36/5/19
f 38/5/20 35/5/17 37/5/21
f 35/5/17 38/5/20 36/5/22
f 35/5/23 39/6/2 37/5/24
f 39/6/2 35/5/23 33/6/2
f 38/5/20 39/6/25 40/6/25
f 39/6/25 38/5/20 37/5/26
f 34/6/1 38/5/27 40/6/1
f 38/5/27 34/6/1 36/5/28
f 25/7/4 32/7/4 31/7/4
f 32/7/4 25/7/4 26/7/4
f 33/7/4 40/7/4 39/7/4
f 40/7/4 33/7/4 34/7/4
