# Blender 4.1.1
# www.blender.org
mtllib @border.010.mtl
o @border.011
v 10.823995 -61.000000 55.583710
v 8.414199 -61.000000 58.676388
v 5.447355 -61.000000 61.239517
v 2.037480 -61.000000 63.174591
v -1.684393 -61.000000 64.407249
v -5.575227 -61.000000 64.890121
v -9.485506 -61.000000 64.604645
v -13.264958 -61.000000 63.561806
v -16.768341 -61.000000 61.801670
v -19.861019 -61.000000 59.391872
v -22.424147 -61.000000 56.425030
v -24.359222 -61.000000 53.015152
v -25.591881 -61.000000 49.293282
v -26.074753 -61.000000 45.402451
v -25.789282 -61.000000 41.492168
v -24.746439 -61.000000 37.712719
v -22.986300 -61.000000 34.209328
v -20.576504 -61.000000 31.116655
v -17.609661 -61.000000 28.553526
v -14.199785 -61.000000 26.618452
v -10.477913 -61.000000 25.385794
v -6.587077 -61.000000 24.902922
v -2.676798 -61.000000 25.188393
v 1.102654 -61.000000 26.231236
v 4.606036 -61.000000 27.991373
v 7.698715 -61.000000 30.401169
v 10.261842 -61.000000 33.368011
v 12.196917 -61.000000 36.777889
v 13.429575 -61.000000 40.499760
v 13.912447 -61.000000 44.390594
v 13.626976 -61.000000 48.300873
v 12.584134 -61.000000 52.080326
v -6.081152 139.000000 44.896523
vn 0.7849 0.0990 0.6116
vn 0.6505 0.0990 0.7530
vn 0.4911 0.0990 0.8654
vn 0.3129 0.0990 0.9446
vn 0.1226 0.0990 0.9875
vn -0.0725 0.0990 0.9924
vn -0.2647 0.0990 0.9592
vn -0.4467 0.0990 0.8892
vn -0.6116 0.0990 0.7849
vn -0.7530 0.0990 0.6505
vn -0.8654 0.0990 0.4911
vn -0.9446 0.0990 0.3129
vn -0.9875 0.0990 0.1226
vn -0.9924 0.0990 -0.0725
vn -0.9592 0.0990 -0.2647
vn -0.8892 0.0990 -0.4467
vn -0.7849 0.0990 -0.6116
vn -0.6505 0.0990 -0.7530
vn -0.4911 0.0990 -0.8654
vn -0.3129 0.0990 -0.9446
vn -0.1226 0.0990 -0.9875
vn 0.0725 0.0990 -0.9924
vn 0.2647 0.0990 -0.9592
vn 0.4467 0.0990 -0.8892
vn 0.6116 0.0990 -0.7849
vn 0.7530 0.0990 -0.6505
vn 0.8654 0.0990 -0.4911
vn 0.9446 0.0990 -0.3129
vn 0.9875 0.0990 -0.1226
vn 0.9924 0.0990 0.0725
vn -0.0000 -1.0000 -0.0000
vn 0.9592 0.0990 0.2647
vn 0.8892 0.0990 0.4467
vt 0.250000 0.490000
vt 0.250000 0.250000
vt 0.296822 0.485388
vt 0.341844 0.471731
vt 0.383337 0.449553
vt 0.419706 0.419706
vt 0.449553 0.383337
vt 0.471731 0.341844
vt 0.485388 0.296822
vt 0.490000 0.250000
vt 0.485388 0.203178
vt 0.471731 0.158156
vt 0.449553 0.116663
vt 0.419706 0.080294
vt 0.383337 0.050447
vt 0.341844 0.028269
vt 0.296822 0.014612
vt 0.250000 0.010000
vt 0.203178 0.014612
vt 0.158156 0.028269
vt 0.116663 0.050447
vt 0.080294 0.080294
vt 0.050447 0.116663
vt 0.028269 0.158156
vt 0.014612 0.203178
vt 0.010000 0.250000
vt 0.014612 0.296822
vt 0.028269 0.341844
vt 0.050447 0.383337
vt 0.080294 0.419706
vt 0.116663 0.449553
vt 0.158156 0.471731
vt 0.796822 0.014612
vt 0.514612 0.203178
vt 0.703178 0.485388
vt 0.203178 0.485388
vt 0.750000 0.490000
vt 0.796822 0.485388
vt 0.841844 0.471731
vt 0.883337 0.449553
vt 0.919706 0.419706
vt 0.949553 0.383337
vt 0.971731 0.341844
vt 0.985388 0.296822
vt 0.990000 0.250000
vt 0.985388 0.203178
vt 0.971731 0.158156
vt 0.949553 0.116663
vt 0.919706 0.080294
vt 0.883337 0.050447
vt 0.841844 0.028269
vt 0.750000 0.010000
vt 0.703178 0.014612
vt 0.658156 0.028269
vt 0.616663 0.050447
vt 0.580294 0.080294
vt 0.550447 0.116663
vt 0.528269 0.158156
vt 0.510000 0.250000
vt 0.514612 0.296822
vt 0.528269 0.341844
vt 0.550447 0.383337
vt 0.580294 0.419706
vt 0.616663 0.449553
vt 0.658156 0.471731
s 0
usemtl Material.001
f 1/1/1 33/2/1 2/3/1
f 2/3/2 33/2/2 3/4/2
f 3/4/3 33/2/3 4/5/3
f 4/5/4 33/2/4 5/6/4
f 5/6/5 33/2/5 6/7/5
f 6/7/6 33/2/6 7/8/6
f 7/8/7 33/2/7 8/9/7
f 8/9/8 33/2/8 9/10/8
f 9/10/9 33/2/9 10/11/9
f 10/11/10 33/2/10 11/12/10
f 11/12/11 33/2/11 12/13/11
f 12/13/12 33/2/12 13/14/12
f 13/14/13 33/2/13 14/15/13
f 14/15/14 33/2/14 15/16/14
f 15/16/15 33/2/15 16/17/15
f 16/17/16 33/2/16 17/18/16
f 17/18/17 33/2/17 18/19/17
f 18/19/18 33/2/18 19/20/18
f 19/20/19 33/2/19 20/21/19
f 20/21/20 33/2/20 21/22/20
f 21/22/21 33/2/21 22/23/21
f 22/23/22 33/2/22 23/24/22
f 23/24/23 33/2/23 24/25/23
f 24/25/24 33/2/24 25/26/24
f 25/26/25 33/2/25 26/27/25
f 26/27/26 33/2/26 27/28/26
f 27/28/27 33/2/27 28/29/27
f 28/29/28 33/2/28 29/30/28
f 29/30/29 33/2/29 30/31/29
f 30/31/30 33/2/30 31/32/30
f 16/33/31 24/34/31 32/35/31
f 31/32/32 33/2/32 32/36/32
f 32/36/33 33/2/33 1/1/33
f 32/35/31 1/37/31 2/38/31
f 2/38/31 3/39/31 4/40/31
f 4/40/31 5/41/31 6/42/31
f 6/42/31 7/43/31 8/44/31
f 8/44/31 9/45/31 10/46/31
f 10/46/31 11/47/31 12/48/31
f 12/48/31 13/49/31 14/50/31
f 14/50/31 15/51/31 16/33/31
f 16/33/31 17/52/31 18/53/31
f 18/53/31 19/54/31 20/55/31
f 20/55/31 21/56/31 22/57/31
f 22/57/31 23/58/31 24/34/31
f 24/34/31 25/59/31 26/60/31
f 26/60/31 27/61/31 28/62/31
f 28/62/31 29/63/31 30/64/31
f 30/64/31 31/65/31 32/35/31
f 32/35/31 2/38/31 4/40/31
f 4/40/31 6/42/31 8/44/31
f 8/44/31 10/46/31 12/48/31
f 12/48/31 14/50/31 16/33/31
f 16/33/31 18/53/31 20/55/31
f 20/55/31 22/57/31 24/34/31
f 24/34/31 26/60/31 28/62/31
f 28/62/31 30/64/31 32/35/31
f 32/35/31 4/40/31 8/44/31
f 8/44/31 12/48/31 16/33/31
f 16/33/31 20/55/31 24/34/31
f 24/34/31 28/62/31 32/35/31
f 32/35/31 8/44/31 16/33/31
