# Blender 4.1.1
# www.blender.org
mtllib @stair.002.mtl
o stairs.004
v 4.500000 0.166667 -4.833332
v -4.500000 0.166667 -4.833332
v 4.500000 0.333333 -4.833332
v -4.500000 0.333333 -4.833333
v 4.500000 0.500000 -5.499998
v 4.500000 -0.000000 -5.499998
v 4.500000 0.500000 -5.166665
v 4.500000 0.333333 -5.166665
v 4.500000 0.000000 -4.499998
v 4.500000 0.166667 -4.499998
v -4.500000 0.000000 -4.499999
v -1.799999 0.066667 -4.499999
v -0.900000 0.166667 -4.499999
v -4.500000 0.166667 -4.499999
v -2.700000 0.166667 -4.499999
v -4.500000 -0.000000 -5.499999
v -4.500000 0.500000 -5.499999
v -4.500000 0.333333 -5.166666
v -4.500000 0.500000 -5.166666
v 3.600000 0.500000 -5.166665
v 2.700001 0.400000 -5.166665
v 1.799998 0.500000 -5.166666
v -1.800001 0.166667 -4.599998
v 2.700001 0.500000 -5.266665
vn -0.0000 -0.0000 1.0000
vn 1.0000 -0.0000 -0.0000
vn -0.0000 -0.0001 1.0000
vn -0.0000 -0.0000 -1.0000
vn -0.0000 -1.0000 -0.0000
vn -1.0000 -0.0000 -0.0000
vn -0.0410 0.2001 0.9789
vn -0.5125 -0.6430 -0.5691
vn -0.6536 -0.5030 0.5654
vn 0.4660 0.4457 0.7643
vn -0.0783 0.7049 0.7049
vn 0.4660 0.7644 0.4456
vn 0.0783 0.7049 0.7049
vn -0.4660 0.4456 0.7644
vn -0.4660 0.7643 0.4457
vn -0.0000 1.0000 -0.0000
vt 0.968750 0.158333
vt 0.968750 0.091667
vt 0.968750 0.225000
vt 0.968750 0.025000
vt 0.968750 0.051667
vt 0.968750 0.185000
vt 0.093750 0.051667
vt 0.093750 0.091667
vt 0.093750 0.225000
vt 0.093750 0.185000
vt 0.093750 0.158333
s 0
usemtl colormap.002
f 3/1/1 2/2/1 1/2/1
f 2/2/1 3/1/1 4/1/1
f 7/3/2 6/4/2 5/3/2
f 6/4/2 7/3/2 8/1/2
f 6/4/2 8/1/2 1/2/2
f 1/2/2 8/1/2 3/1/2
f 6/4/2 1/2/2 9/4/2
f 9/4/2 1/2/2 10/2/2
f 10/2/1 11/4/1 9/4/1
f 11/4/3 10/2/3 12/5/3
f 12/5/1 10/2/1 13/2/1
f 12/5/1 14/2/1 11/4/1
f 14/2/1 12/5/1 15/2/1
f 17/3/4 6/4/4 16/4/4
f 6/4/4 17/3/4 5/3/4
f 9/4/5 16/4/5 6/4/5
f 16/4/5 9/4/5 11/4/5
f 2/2/6 11/4/6 14/2/6
f 2/2/6 16/4/6 11/4/6
f 16/4/6 2/2/6 17/3/6
f 17/3/7 2/2/8 18/1/9
f 4/1/6 18/1/6 2/2/6
f 19/3/6 17/3/6 18/1/6
f 21/6/1 7/3/1 20/3/1
f 21/6/1 8/1/1 7/3/1
f 8/1/1 21/6/1 18/1/1
f 21/6/1 19/3/1 18/1/1
f 19/3/1 21/6/1 22/3/1
f 12/7/10 13/8/11 23/8/12
f 22/9/13 21/10/14 24/9/15
f 24/9/12 21/10/10 20/9/11
f 23/8/15 15/8/13 12/7/14
f 7/9/16 24/9/16 20/9/16
f 5/9/16 24/9/16 7/9/16
f 24/9/16 5/9/16 17/9/16
f 24/9/16 17/9/16 22/9/16
f 22/9/16 17/9/16 19/9/16
f 2/8/16 10/8/16 1/8/16
f 10/8/16 2/8/16 23/8/16
f 10/8/16 23/8/16 13/8/16
f 23/8/16 2/8/16 15/8/16
f 15/8/16 2/8/16 14/8/16
f 18/11/16 3/11/16 8/11/16
f 3/11/16 18/11/16 4/11/16
f 3/1/1 2/2/1 1/2/1
f 2/2/1 3/1/1 4/1/1
f 7/3/2 6/4/2 5/3/2
f 6/4/2 7/3/2 8/1/2
f 6/4/2 8/1/2 1/2/2
f 1/2/2 8/1/2 3/1/2
f 6/4/2 1/2/2 9/4/2
f 9/4/2 1/2/2 10/2/2
f 10/2/1 11/4/1 9/4/1
f 11/4/3 10/2/3 12/5/3
f 12/5/1 10/2/1 13/2/1
f 12/5/1 14/2/1 11/4/1
f 14/2/1 12/5/1 15/2/1
f 17/3/4 6/4/4 16/4/4
f 6/4/4 17/3/4 5/3/4
f 9/4/5 16/4/5 6/4/5
f 16/4/5 9/4/5 11/4/5
f 2/2/6 11/4/6 14/2/6
f 2/2/6 16/4/6 11/4/6
f 16/4/6 2/2/6 17/3/6
f 17/3/7 2/2/8 18/1/9
f 4/1/6 18/1/6 2/2/6
f 19/3/6 17/3/6 18/1/6
f 21/6/1 7/3/1 20/3/1
f 21/6/1 8/1/1 7/3/1
f 8/1/1 21/6/1 18/1/1
f 21/6/1 19/3/1 18/1/1
f 19/3/1 21/6/1 22/3/1
f 12/7/10 13/8/11 23/8/12
f 22/9/13 21/10/14 24/9/15
f 24/9/12 21/10/10 20/9/11
f 23/8/15 15/8/13 12/7/14
f 7/9/16 24/9/16 20/9/16
f 5/9/16 24/9/16 7/9/16
f 24/9/16 5/9/16 17/9/16
f 24/9/16 17/9/16 22/9/16
f 22/9/16 17/9/16 19/9/16
f 2/8/16 10/8/16 1/8/16
f 10/8/16 2/8/16 23/8/16
f 10/8/16 23/8/16 13/8/16
f 23/8/16 2/8/16 15/8/16
f 15/8/16 2/8/16 14/8/16
f 18/11/16 3/11/16 8/11/16
f 3/11/16 18/11/16 4/11/16
