# Blender 4.1.1
# www.blender.org
mtllib @border.007.mtl
o @border.008
v 2.479818 -61.000000 44.918301
v 2.337894 -61.000000 41.000183
v 2.963082 -61.000000 37.129665
v 4.331355 -61.000000 33.455486
v 6.390138 -61.000000 30.118839
v 9.060308 -61.000000 27.247961
v 12.239251 -61.000000 24.953163
v 15.804806 -61.000000 23.322643
v 19.619947 -61.000000 22.419054
v 23.538063 -61.000000 22.277130
v 27.408585 -61.000000 22.902317
v 31.082764 -61.000000 24.270592
v 34.419407 -61.000000 26.329372
v 37.290291 -61.000000 28.999540
v 39.585083 -61.000000 32.178486
v 41.215607 -61.000000 35.744041
v 42.119194 -61.000000 39.559181
v 42.261120 -61.000000 43.477299
v 41.635933 -61.000000 47.347816
v 40.267658 -61.000000 51.021996
v 38.208878 -61.000000 54.358646
v 35.538708 -61.000000 57.229523
v 32.359764 -61.000000 59.524319
v 28.794209 -61.000000 61.154842
v 24.979065 -61.000000 62.058426
v 21.060951 -61.000000 62.200352
v 17.190430 -61.000000 61.575165
v 13.516252 -61.000000 60.206894
v 10.179607 -61.000000 58.148113
v 7.308725 -61.000000 55.477943
v 5.013929 -61.000000 52.299000
v 3.383408 -61.000000 48.733444
v 22.299507 139.000000 42.238743
vn -0.9944 0.0990 0.0360
vn -0.9824 0.0990 -0.1587
vn -0.9325 0.0990 -0.3473
vn -0.8469 0.0990 -0.5225
vn -0.7286 0.0990 -0.6777
vn -0.5824 0.0990 -0.8068
vn -0.4138 0.0990 -0.9050
vn -0.2293 0.0990 -0.9683
vn -0.0360 0.0990 -0.9944
vn 0.1587 0.0990 -0.9824
vn 0.3473 0.0990 -0.9325
vn 0.5225 0.0990 -0.8469
vn 0.6777 0.0990 -0.7286
vn 0.8068 0.0990 -0.5824
vn 0.9050 0.0990 -0.4138
vn 0.9683 0.0990 -0.2293
vn 0.9944 0.0990 -0.0360
vn 0.9824 0.0990 0.1587
vn 0.9325 0.0990 0.3473
vn 0.8469 0.0990 0.5225
vn 0.7286 0.0990 0.6777
vn 0.5824 0.0990 0.8068
vn 0.4138 0.0990 0.9050
vn 0.2293 0.0990 0.9683
vn 0.0360 0.0990 0.9944
vn -0.1587 0.0990 0.9824
vn -0.3473 0.0990 0.9325
vn -0.5225 0.0990 0.8469
vn -0.6777 0.0990 0.7286
vn -0.8068 0.0990 0.5824
vn -0.0000 -1.0000 -0.0000
vn -0.9050 0.0990 0.4138
vn -0.9683 0.0990 0.2293
vt 0.250000 0.490000
vt 0.250000 0.250000
vt 0.296822 0.485388
vt 0.341844 0.471731
vt 0.383337 0.449553
vt 0.419706 0.419706
vt 0.449553 0.383337
vt 0.471731 0.341844
vt 0.485388 0.296822
vt 0.490000 0.250000
vt 0.485388 0.203178
vt 0.471731 0.158156
vt 0.449553 0.116663
vt 0.419706 0.080294
vt 0.383337 0.050447
vt 0.341844 0.028269
vt 0.296822 0.014612
vt 0.250000 0.010000
vt 0.203178 0.014612
vt 0.158156 0.028269
vt 0.116663 0.050447
vt 0.080294 0.080294
vt 0.050447 0.116663
vt 0.028269 0.158156
vt 0.014612 0.203178
vt 0.010000 0.250000
vt 0.014612 0.296822
vt 0.028269 0.341844
vt 0.050447 0.383337
vt 0.080294 0.419706
vt 0.116663 0.449553
vt 0.158156 0.471731
vt 0.796822 0.014612
vt 0.514612 0.203178
vt 0.703178 0.485388
vt 0.203178 0.485388
vt 0.750000 0.490000
vt 0.796822 0.485388
vt 0.841844 0.471731
vt 0.883337 0.449553
vt 0.919706 0.419706
vt 0.949553 0.383337
vt 0.971731 0.341844
vt 0.985388 0.296822
vt 0.990000 0.250000
vt 0.985388 0.203178
vt 0.971731 0.158156
vt 0.949553 0.116663
vt 0.919706 0.080294
vt 0.883337 0.050447
vt 0.841844 0.028269
vt 0.750000 0.010000
vt 0.703178 0.014612
vt 0.658156 0.028269
vt 0.616663 0.050447
vt 0.580294 0.080294
vt 0.550447 0.116663
vt 0.528269 0.158156
vt 0.510000 0.250000
vt 0.514612 0.296822
vt 0.528269 0.341844
vt 0.550447 0.383337
vt 0.580294 0.419706
vt 0.616663 0.449553
vt 0.658156 0.471731
s 0
usemtl Material.001
f 1/1/1 33/2/1 2/3/1
f 2/3/2 33/2/2 3/4/2
f 3/4/3 33/2/3 4/5/3
f 4/5/4 33/2/4 5/6/4
f 5/6/5 33/2/5 6/7/5
f 6/7/6 33/2/6 7/8/6
f 7/8/7 33/2/7 8/9/7
f 8/9/8 33/2/8 9/10/8
f 9/10/9 33/2/9 10/11/9
f 10/11/10 33/2/10 11/12/10
f 11/12/11 33/2/11 12/13/11
f 12/13/12 33/2/12 13/14/12
f 13/14/13 33/2/13 14/15/13
f 14/15/14 33/2/14 15/16/14
f 15/16/15 33/2/15 16/17/15
f 16/17/16 33/2/16 17/18/16
f 17/18/17 33/2/17 18/19/17
f 18/19/18 33/2/18 19/20/18
f 19/20/19 33/2/19 20/21/19
f 20/21/20 33/2/20 21/22/20
f 21/22/21 33/2/21 22/23/21
f 22/23/22 33/2/22 23/24/22
f 23/24/23 33/2/23 24/25/23
f 24/25/24 33/2/24 25/26/24
f 25/26/25 33/2/25 26/27/25
f 26/27/26 33/2/26 27/28/26
f 27/28/27 33/2/27 28/29/27
f 28/29/28 33/2/28 29/30/28
f 29/30/29 33/2/29 30/31/29
f 30/31/30 33/2/30 31/32/30
f 16/33/31 24/34/31 32/35/31
f 31/32/32 33/2/32 32/36/32
f 32/36/33 33/2/33 1/1/33
f 32/35/31 1/37/31 2/38/31
f 2/38/31 3/39/31 4/40/31
f 4/40/31 5/41/31 6/42/31
f 6/42/31 7/43/31 8/44/31
f 8/44/31 9/45/31 10/46/31
f 10/46/31 11/47/31 12/48/31
f 12/48/31 13/49/31 14/50/31
f 14/50/31 15/51/31 16/33/31
f 16/33/31 17/52/31 18/53/31
f 18/53/31 19/54/31 20/55/31
f 20/55/31 21/56/31 22/57/31
f 22/57/31 23/58/31 24/34/31
f 24/34/31 25/59/31 26/60/31
f 26/60/31 27/61/31 28/62/31
f 28/62/31 29/63/31 30/64/31
f 30/64/31 31/65/31 32/35/31
f 32/35/31 2/38/31 4/40/31
f 4/40/31 6/42/31 8/44/31
f 8/44/31 10/46/31 12/48/31
f 12/48/31 14/50/31 16/33/31
f 16/33/31 18/53/31 20/55/31
f 20/55/31 22/57/31 24/34/31
f 24/34/31 26/60/31 28/62/31
f 28/62/31 30/64/31 32/35/31
f 32/35/31 4/40/31 8/44/31
f 8/44/31 12/48/31 16/33/31
f 16/33/31 20/55/31 24/34/31
f 24/34/31 28/62/31 32/35/31
f 32/35/31 8/44/31 16/33/31
