# Blender 4.1.1
# www.blender.org
mtllib toilet.mtl
o toilet_Cube.025
v -0.264876 0.833605 -0.241341
v -0.264876 0.891670 -0.241341
v -0.206811 0.833605 -0.241341
v -0.206811 0.891670 -0.241341
v -0.264876 0.833605 -0.204670
v -0.264876 0.891670 -0.204670
v -0.206811 0.833605 -0.204670
v -0.206811 0.891670 -0.204670
v -0.264876 0.849734 -0.241341
v -0.206811 0.849734 -0.241341
v -0.206811 0.849734 -0.204670
v -0.264876 0.849734 -0.204670
v -0.316523 0.849734 -0.204670
v -0.316523 0.833605 -0.204670
v -0.316523 0.833605 -0.241341
v -0.316523 0.849734 -0.241341
v -0.217513 0.841929 -0.241341
v -0.254174 0.841929 -0.241341
v -0.254174 0.852112 -0.241341
v -0.254174 0.878590 -0.241341
v -0.217513 0.878590 -0.241341
v -0.217513 0.852112 -0.241341
v -0.217513 0.841929 -0.253874
v -0.254174 0.841929 -0.253874
v -0.254174 0.852112 -0.253874
v -0.254174 0.878590 -0.253874
v -0.217513 0.878590 -0.253874
v -0.217513 0.852112 -0.253874
v -0.204596 0.044969 -0.367337
v -0.253590 0.537513 -0.245655
v 0.204596 0.044969 -0.367337
v 0.253590 0.537513 -0.245655
v -0.204596 0.044969 0.253590
v -0.253590 0.537513 0.253590
v 0.204596 0.044969 0.253590
v 0.253590 0.537513 0.253590
v 0.251576 0.044969 0.000000
v 0.311820 0.537513 0.000000
v -0.251576 0.044969 -0.000000
v -0.311820 0.537513 -0.000000
v 0.000000 0.044969 -0.367337
v 0.000000 0.537513 -0.245655
v -0.000000 0.044969 0.412327
v 0.000000 0.537513 0.412327
v 0.000000 0.414922 -0.148032
v 0.000000 0.001510 -0.392713
v -0.253590 0.432369 -0.367337
v 0.253590 0.432369 -0.367337
v 0.253590 0.432369 0.253590
v -0.253590 0.432369 0.253590
v -0.311820 0.432369 -0.000000
v 0.311820 0.432369 0.000000
v 0.000000 0.432369 0.412327
v 0.000000 0.432369 -0.367337
v -0.161037 0.537513 -0.148032
v -0.198015 0.537513 0.007966
v -0.161037 0.537513 0.169003
v 0.000000 0.537513 0.269805
v 0.161037 0.537513 0.169003
v 0.198015 0.537513 0.007966
v 0.161037 0.537513 -0.148032
v 0.000000 0.537513 -0.148032
v 0.197927 0.313401 -0.367337
v 0.194007 0.240442 -0.367337
v 0.197927 0.313401 0.159382
v 0.194007 0.240442 0.154578
v -0.197927 0.313401 0.159381
v -0.194007 0.240443 0.154578
v -0.238556 0.240443 -0.042196
v -0.243375 0.313401 -0.041312
v 0.238556 0.240442 -0.042196
v 0.243375 0.313401 -0.041312
v 0.000000 0.240442 0.276019
v 0.000000 0.313401 0.283276
v 0.000000 0.240442 -0.367337
v 0.000000 0.313401 -0.367337
v -0.197927 0.313401 -0.367337
v -0.194007 0.240443 -0.367337
v -0.065647 0.321090 0.021235
v -0.044045 0.256517 -0.138972
v 0.161037 0.414922 0.169003
v 0.000000 0.414922 0.269805
v -0.198015 0.414922 0.007966
v 0.161037 0.414922 -0.148032
v 0.198015 0.414922 0.007966
v -0.161037 0.414922 -0.148032
v -0.161037 0.414922 0.169003
v -0.080721 0.335659 -0.042774
v 0.065647 0.349772 -0.104781
v 0.080721 0.335659 -0.042774
v -0.065647 0.349772 -0.104781
v 0.000000 0.349772 -0.104781
v 0.000000 0.311970 0.061303
v 0.065647 0.321090 0.021235
v -0.054159 0.300558 -0.138404
v 0.044045 0.343222 -0.137854
v 0.054159 0.300558 -0.138404
v -0.044045 0.343222 -0.137854
v 0.000000 0.343222 -0.137854
v 0.000000 0.300558 -0.138404
v 0.000000 0.228948 -0.139328
v 0.044045 0.256517 -0.138972
v -0.253590 0.461054 -0.461246
v -0.253590 0.537513 -0.487836
v 0.000000 0.537513 -0.487836
v 0.253590 0.537513 -0.487836
v 0.253590 0.461054 -0.461246
v 0.000000 0.461054 -0.461246
v 0.000000 0.905294 -0.245655
v 0.286895 0.905294 -0.245655
v -0.286895 0.905294 -0.245655
v 0.000000 0.905294 -0.487836
v 0.286895 0.905294 -0.487836
v -0.286895 0.905294 -0.487836
v 0.000000 0.905294 -0.239990
v 0.300317 0.905294 -0.239990
v -0.300317 0.905294 -0.239990
v 0.000000 0.905294 -0.493501
v 0.300317 0.905294 -0.493501
v -0.300317 0.905294 -0.493501
v 0.000000 1.008024 -0.239990
v 0.300317 1.008024 -0.239990
v -0.300317 1.008024 -0.239990
v 0.000000 1.008024 -0.493501
v 0.300317 1.008024 -0.493501
v -0.300317 1.008024 -0.493501
v -0.253590 0.544153 -0.245655
v 0.253590 0.544153 -0.245655
v -0.253590 0.544153 0.253590
v 0.253590 0.544153 0.253590
v 0.311820 0.544153 0.000000
v -0.311820 0.544153 -0.000000
v 0.000000 0.544153 -0.245655
v 0.000000 0.544153 0.412327
v -0.161037 0.544153 -0.148032
v -0.198015 0.544153 0.007966
v -0.161037 0.544153 0.169003
v 0.000000 0.544153 0.269805
v 0.161037 0.544153 0.169003
v 0.198015 0.544153 0.007966
v 0.161037 0.544153 -0.148032
v 0.000000 0.544153 -0.148032
v 0.000000 0.569293 -0.226854
v 0.234738 0.569293 -0.225771
v 0.289999 0.569293 0.001527
v 0.235844 0.569293 0.237371
v 0.000000 0.569293 0.385000
v -0.235843 0.569293 0.237371
v 0.179889 0.569293 -0.167917
v -0.289999 0.569293 0.001527
v -0.234738 0.569293 -0.225771
v -0.179889 0.569293 -0.167917
v 0.178783 0.569293 0.185221
v 0.000000 0.569293 0.297133
v 0.219836 0.569293 0.006438
v -0.219836 0.569293 0.006438
v 0.000000 0.569293 -0.166834
v -0.178783 0.569293 0.185221
v 0.000000 0.044969 -0.392713
v -0.219556 0.044969 -0.392713
v 0.269971 0.044969 0.001483
v 0.219556 0.044969 -0.392713
v -0.000000 0.044969 0.443959
v 0.219556 0.044969 0.273615
v -0.269971 0.044969 0.001483
v -0.219556 0.044969 0.273615
v -0.219556 0.001510 -0.392713
v 0.269971 0.001510 0.001483
v 0.219556 0.001510 -0.392713
v -0.000000 0.001510 0.443959
v 0.219556 0.001510 0.273615
v -0.269971 0.001510 0.001483
v -0.219556 0.001510 0.273615
v 0.000000 0.001510 0.001483
vn -0.0000 -0.9564 -0.2921
vn 0.9746 -0.0000 0.2238
vn -0.5306 -0.0000 0.8476
vn -0.9767 0.1074 -0.1856
vn -0.0000 1.0000 -0.0000
vn -0.9746 -0.0000 0.2238
vn 0.9767 0.1074 -0.1856
vn 0.5306 -0.0000 0.8476
vn -0.5306 -0.0000 -0.8476
vn 0.8229 -0.5362 0.1878
vn -0.0000 -0.0000 -1.0000
vn -0.3906 -0.6768 0.6240
vn -0.9903 0.0457 -0.1309
vn -0.9717 0.1300 0.1975
vn 0.5127 0.4529 0.7294
vn 0.9903 0.0457 -0.1309
vn 0.8880 -0.4402 -0.1328
vn 0.3906 -0.6768 0.6240
vn -0.8229 -0.5362 0.1878
vn -0.8880 -0.4402 -0.1328
vn 0.9716 0.1300 0.1975
vn -0.5127 0.4529 0.7294
vn 0.9731 -0.0669 0.2203
vn -0.5287 -0.0840 0.8446
vn -0.9889 -0.0584 -0.1367
vn -0.9731 -0.0669 0.2203
vn 0.9889 -0.0584 -0.1367
vn 0.5287 -0.0840 0.8446
vn 0.5306 -0.0000 -0.8476
vn -0.9746 -0.0000 -0.2238
vn 0.9730 -0.0000 0.2306
vn -0.0000 0.5531 0.8331
vn 0.2858 0.8692 -0.4036
vn 0.5818 0.8091 -0.0822
vn 0.5565 0.8099 0.1853
vn -0.0000 -0.0000 1.0000
vn 0.9746 -0.0000 -0.2238
vn -0.9730 -0.0000 0.2306
vn -0.9133 0.4070 0.0134
vn 0.9334 -0.0267 0.3579
vn -0.9334 -0.0267 0.3579
vn -0.4038 0.8550 -0.3255
vn -0.5818 0.8091 -0.0822
vn -0.5565 0.8099 0.1853
vn -0.2858 0.8692 -0.4036
vn -0.0000 -0.9809 0.1943
vn 0.4038 0.8550 -0.3255
vn 0.9133 0.4070 0.0134
vn -0.0000 -0.3285 -0.9445
vn -1.0000 -0.0000 -0.0000
vn 0.9959 -0.0902 -0.0000
vn 1.0000 -0.0000 -0.0000
vn -0.0000 -1.0000 -0.0000
vn -0.9959 -0.0902 -0.0000
vn 0.0018 0.6102 -0.7922
vn -0.7491 0.6397 -0.1720
vn -0.3902 0.6776 -0.6234
vn 0.3902 0.6776 -0.6234
vn 0.7491 0.6397 0.1720
vn -0.0018 0.6102 -0.7922
vn -0.3902 0.6776 0.6234
vn -0.0025 0.6092 0.7930
vn 0.3902 0.6776 0.6234
vn 0.7491 0.6397 -0.1720
vn -0.7278 0.6631 -0.1747
vn 0.7295 0.6625 0.1699
vn 0.7278 0.6631 -0.1747
vn 0.0025 0.6092 0.7930
vn -0.7491 0.6397 0.1720
vn -0.7295 0.6625 0.1699
vn 0.6130 -0.0000 0.7901
vn 0.9833 -0.0000 0.1822
vn -0.6130 -0.0000 0.7901
vn -0.9919 -0.0000 -0.1269
vn -0.9833 -0.0000 0.1822
vn 0.9919 -0.0000 -0.1269
vn -0.0000 -0.0129 0.9999
s 0
usemtl FFFFFF
f 48//1 54//1 108//1 107//1
f 52//2 38//2 36//2 49//2
f 53//3 44//3 34//3 50//3
f 51//4 40//4 30//4 47//4
f 35//5 43//5 163//5 164//5
f 34//5 44//5 58//5 57//5
f 42//5 30//5 55//5 62//5
f 41//5 31//5 162//5 159//5
f 50//6 34//6 40//6 51//6
f 48//7 32//7 38//7 52//7
f 29//5 41//5 159//5 160//5
f 44//5 36//5 59//5 58//5
f 36//5 38//5 60//5 59//5
f 43//5 33//5 166//5 163//5
f 49//8 36//8 44//8 53//8
f 54//1 47//1 103//1 108//1
f 58//9 59//9 81//9 82//9
f 72//10 52//10 49//10 65//10
f 76//11 54//11 48//11 63//11
f 74//12 53//12 50//12 67//12
f 39//13 69//13 78//13 29//13
f 33//14 68//14 69//14 39//14
f 35//15 66//15 73//15 43//15
f 31//16 64//16 71//16 37//16
f 63//17 48//17 52//17 72//17
f 65//18 49//18 53//18 74//18
f 67//19 50//19 51//19 70//19
f 29//11 78//11 75//11 41//11
f 70//20 51//20 47//20 77//20
f 37//21 71//21 66//21 35//21
f 43//22 73//22 68//22 33//22
f 77//11 47//11 54//11 76//11
f 76//11 63//11 64//11 75//11
f 72//23 65//23 66//23 71//23
f 74//24 67//24 68//24 73//24
f 70//25 77//25 78//25 69//25
f 67//26 70//26 69//26 68//26
f 63//27 72//27 71//27 64//27
f 65//28 74//28 73//28 66//28
f 77//11 76//11 75//11 78//11
f 41//11 75//11 64//11 31//11
f 57//29 58//29 82//29 87//29
f 59//30 60//30 85//30 81//30
f 55//31 56//31 83//31 86//31
f 40//5 34//5 57//5 56//5
f 38//5 32//5 61//5 60//5
f 32//5 42//5 62//5 61//5
f 30//5 40//5 56//5 55//5
f 84//32 45//32 92//32 89//32
f 87//33 82//33 93//33 79//33
f 83//34 87//34 79//34 88//34
f 86//35 83//35 88//35 91//35
f 62//36 55//36 86//36 45//36
f 61//36 62//36 45//36 84//36
f 56//37 57//37 87//37 83//37
f 60//38 61//38 84//38 85//38
f 94//39 90//39 97//39 102//39
f 91//40 88//40 95//40 98//40
f 90//41 89//41 96//41 97//41
f 93//42 94//42 102//42 101//42
f 81//43 85//43 90//43 94//43
f 85//44 84//44 89//44 90//44
f 45//32 86//32 91//32 92//32
f 82//45 81//45 94//45 93//45
f 92//46 91//46 98//46 99//46
f 79//47 93//47 101//47 80//47
f 88//48 79//48 80//48 95//48
f 89//46 92//46 99//46 96//46
f 108//49 105//49 106//49 107//49
f 103//49 104//49 105//49 108//49
f 47//50 30//50 104//50 103//50
f 32//51 106//51 113//51 110//51
f 105//11 104//11 114//11 112//11
f 32//52 48//52 107//52 106//52
f 111//53 109//53 115//53 117//53
f 112//53 114//53 120//53 118//53
f 104//54 30//54 111//54 114//54
f 30//36 42//36 109//36 111//36
f 42//36 32//36 110//36 109//36
f 106//11 105//11 112//11 113//11
f 119//11 118//11 124//11 125//11
f 120//50 117//50 123//50 126//50
f 110//53 113//53 119//53 116//53
f 114//53 111//53 117//53 120//53
f 113//53 112//53 118//53 119//53
f 109//53 110//53 116//53 115//53
f 123//5 121//5 124//5 126//5
f 121//5 122//5 125//5 124//5
f 115//36 116//36 122//36 121//36
f 118//11 120//11 126//11 124//11
f 117//36 115//36 121//36 123//36
f 116//52 119//52 125//52 122//52
f 129//53 137//53 138//53 134//53
f 133//53 142//53 135//53 127//53
f 134//53 138//53 139//53 130//53
f 130//53 139//53 140//53 131//53
f 132//53 136//53 137//53 129//53
f 131//53 140//53 141//53 128//53
f 128//53 141//53 142//53 133//53
f 127//53 135//53 136//53 132//53
f 148//5 147//5 154//5 158//5
f 143//5 151//5 152//5 157//5
f 147//5 146//5 153//5 154//5
f 146//5 145//5 155//5 153//5
f 150//5 148//5 158//5 156//5
f 145//5 144//5 149//5 155//5
f 144//5 143//5 157//5 149//5
f 151//5 150//5 156//5 152//5
f 128//55 133//55 143//55 144//55
f 140//56 139//56 153//56 155//56
f 139//57 138//57 154//57 153//57
f 138//58 137//58 158//58 154//58
f 130//59 131//59 145//59 146//59
f 133//60 127//60 151//60 143//60
f 129//61 134//61 147//61 148//61
f 135//62 142//62 157//62 152//62
f 134//63 130//63 146//63 147//63
f 137//64 136//64 156//64 158//64
f 127//65 132//65 150//65 151//65
f 136//66 135//66 152//66 156//66
f 131//67 128//67 144//67 145//67
f 142//68 141//68 149//68 157//68
f 132//69 129//69 148//69 150//69
f 141//70 140//70 155//70 149//70
f 160//11 159//11 46//11 167//11
f 164//71 163//71 170//71 171//71
f 161//72 164//72 171//72 168//72
f 163//73 166//73 173//73 170//73
f 39//5 29//5 160//5 165//5
f 37//5 35//5 164//5 161//5
f 33//5 39//5 165//5 166//5
f 31//5 37//5 161//5 162//5
f 174//53 170//53 173//53 172//53
f 46//53 174//53 172//53 167//53
f 169//53 168//53 174//53 46//53
f 168//53 171//53 170//53 174//53
f 159//11 162//11 169//11 46//11
f 165//74 160//74 167//74 172//74
f 166//75 165//75 172//75 173//75
f 162//76 161//76 168//76 169//76
usemtl 1A1A1A
f 100//77 99//77 98//77 95//77
f 101//77 100//77 95//77 80//77
f 102//77 97//77 100//77 101//77
f 97//77 96//77 99//77 100//77
usemtl 455A64
f 1//11 9//11 19//11 18//11
f 10//52 4//52 8//52 11//52
f 11//36 8//36 6//36 12//36
f 12//50 6//50 2//50 9//50
f 3//53 7//53 5//53 1//53
f 8//5 4//5 2//5 6//5
f 12//5 9//5 16//5 13//5
f 7//36 11//36 12//36 5//36
f 3//52 10//52 11//52 7//52
f 10//11 3//11 17//11 22//11
f 14//50 13//50 16//50 15//50
f 9//11 1//11 15//11 16//11
f 1//53 5//53 14//53 15//53
f 5//36 12//36 13//36 14//36
f 18//50 19//50 25//50 24//50
f 19//50 20//50 26//50 25//50
f 9//11 2//11 20//11 19//11
f 4//11 10//11 22//11 21//11
f 2//11 4//11 21//11 20//11
f 3//11 1//11 18//11 17//11
f 25//11 26//11 27//11 28//11
f 24//11 25//11 28//11 23//11
f 20//5 21//5 27//5 26//5
f 17//53 18//53 24//53 23//53
f 21//52 22//52 28//52 27//52
f 22//52 17//52 23//52 28//52
