# Blender 4.1.1
# www.blender.org
mtllib @border.002.mtl
o @border.002
v 52.859703 -61.000000 -20.311565
v 56.323853 -61.000000 -18.475418
v 59.363228 -61.000000 -15.998730
v 61.861023 -61.000000 -12.976681
v 63.721252 -61.000000 -9.525400
v 64.872421 -61.000000 -5.777525
v 65.270302 -61.000000 -1.877081
v 64.899597 -61.000000 2.026041
v 63.774555 -61.000000 5.781844
v 61.938408 -61.000000 9.245995
v 59.461720 -61.000000 12.285369
v 56.439671 -61.000000 14.783165
v 52.988392 -61.000000 16.643393
v 49.240517 -61.000000 17.794565
v 45.340073 -61.000000 18.192444
v 41.436951 -61.000000 17.821739
v 37.681145 -61.000000 16.696697
v 34.216995 -61.000000 14.860550
v 31.177620 -61.000000 12.383862
v 28.679825 -61.000000 9.361813
v 26.819597 -61.000000 5.910532
v 25.668425 -61.000000 2.162657
v 25.270546 -61.000000 -1.737787
v 25.641251 -61.000000 -5.640909
v 26.766293 -61.000000 -9.396711
v 28.602440 -61.000000 -12.860863
v 31.079128 -61.000000 -15.900237
v 34.101177 -61.000000 -18.398033
v 37.552456 -61.000000 -20.258261
v 41.300331 -61.000000 -21.409433
v 45.200775 -61.000000 -21.807312
v 49.103897 -61.000000 -21.436607
v 45.270424 139.000000 -1.807434
vn 0.4660 0.0990 -0.8792
vn 0.6286 0.0990 -0.7714
vn 0.7670 0.0990 -0.6339
vn 0.8759 0.0990 -0.4721
vn 0.9512 0.0990 -0.2922
vn 0.9899 0.0990 -0.1010
vn 0.9906 0.0990 0.0941
vn 0.9532 0.0990 0.2855
vn 0.8792 0.0990 0.4660
vn 0.7714 0.0990 0.6286
vn 0.6339 0.0990 0.7670
vn 0.4721 0.0990 0.8759
vn 0.2922 0.0990 0.9512
vn 0.1010 0.0990 0.9899
vn -0.0941 0.0990 0.9906
vn -0.2855 0.0990 0.9532
vn -0.4660 0.0990 0.8792
vn -0.6286 0.0990 0.7714
vn -0.7670 0.0990 0.6339
vn -0.8759 0.0990 0.4721
vn -0.9512 0.0990 0.2922
vn -0.9899 0.0990 0.1010
vn -0.9906 0.0990 -0.0941
vn -0.9532 0.0990 -0.2855
vn -0.8792 0.0990 -0.4660
vn -0.7714 0.0990 -0.6286
vn -0.6340 0.0990 -0.7670
vn -0.4721 0.0990 -0.8759
vn -0.2922 0.0990 -0.9512
vn -0.1010 0.0990 -0.9899
vn -0.0000 -1.0000 -0.0000
vn 0.0941 0.0990 -0.9906
vn 0.2855 0.0990 -0.9532
vt 0.250000 0.490000
vt 0.250000 0.250000
vt 0.296822 0.485388
vt 0.341844 0.471731
vt 0.383337 0.449553
vt 0.419706 0.419706
vt 0.449553 0.383337
vt 0.471731 0.341844
vt 0.485388 0.296822
vt 0.490000 0.250000
vt 0.485388 0.203178
vt 0.471731 0.158156
vt 0.449553 0.116663
vt 0.419706 0.080294
vt 0.383337 0.050447
vt 0.341844 0.028269
vt 0.296822 0.014612
vt 0.250000 0.010000
vt 0.203178 0.014612
vt 0.158156 0.028269
vt 0.116663 0.050447
vt 0.080294 0.080294
vt 0.050447 0.116663
vt 0.028269 0.158156
vt 0.014612 0.203178
vt 0.010000 0.250000
vt 0.014612 0.296822
vt 0.028269 0.341844
vt 0.050447 0.383337
vt 0.080294 0.419706
vt 0.116663 0.449553
vt 0.158156 0.471731
vt 0.796822 0.014612
vt 0.514612 0.203178
vt 0.703178 0.485388
vt 0.203178 0.485388
vt 0.750000 0.490000
vt 0.796822 0.485388
vt 0.841844 0.471731
vt 0.883337 0.449553
vt 0.919706 0.419706
vt 0.949553 0.383337
vt 0.971731 0.341844
vt 0.985388 0.296822
vt 0.990000 0.250000
vt 0.985388 0.203178
vt 0.971731 0.158156
vt 0.949553 0.116663
vt 0.919706 0.080294
vt 0.883337 0.050447
vt 0.841844 0.028269
vt 0.750000 0.010000
vt 0.703178 0.014612
vt 0.658156 0.028269
vt 0.616663 0.050447
vt 0.580294 0.080294
vt 0.550447 0.116663
vt 0.528269 0.158156
vt 0.510000 0.250000
vt 0.514612 0.296822
vt 0.528269 0.341844
vt 0.550447 0.383337
vt 0.580294 0.419706
vt 0.616663 0.449553
vt 0.658156 0.471731
s 0
usemtl Material.001
f 1/1/1 33/2/1 2/3/1
f 2/3/2 33/2/2 3/4/2
f 3/4/3 33/2/3 4/5/3
f 4/5/4 33/2/4 5/6/4
f 5/6/5 33/2/5 6/7/5
f 6/7/6 33/2/6 7/8/6
f 7/8/7 33/2/7 8/9/7
f 8/9/8 33/2/8 9/10/8
f 9/10/9 33/2/9 10/11/9
f 10/11/10 33/2/10 11/12/10
f 11/12/11 33/2/11 12/13/11
f 12/13/12 33/2/12 13/14/12
f 13/14/13 33/2/13 14/15/13
f 14/15/14 33/2/14 15/16/14
f 15/16/15 33/2/15 16/17/15
f 16/17/16 33/2/16 17/18/16
f 17/18/17 33/2/17 18/19/17
f 18/19/18 33/2/18 19/20/18
f 19/20/19 33/2/19 20/21/19
f 20/21/20 33/2/20 21/22/20
f 21/22/21 33/2/21 22/23/21
f 22/23/22 33/2/22 23/24/22
f 23/24/23 33/2/23 24/25/23
f 24/25/24 33/2/24 25/26/24
f 25/26/25 33/2/25 26/27/25
f 26/27/26 33/2/26 27/28/26
f 27/28/27 33/2/27 28/29/27
f 28/29/28 33/2/28 29/30/28
f 29/30/29 33/2/29 30/31/29
f 30/31/30 33/2/30 31/32/30
f 16/33/31 24/34/31 32/35/31
f 31/32/32 33/2/32 32/36/32
f 32/36/33 33/2/33 1/1/33
f 32/35/31 1/37/31 2/38/31
f 2/38/31 3/39/31 4/40/31
f 4/40/31 5/41/31 6/42/31
f 6/42/31 7/43/31 8/44/31
f 8/44/31 9/45/31 10/46/31
f 10/46/31 11/47/31 12/48/31
f 12/48/31 13/49/31 14/50/31
f 14/50/31 15/51/31 16/33/31
f 16/33/31 17/52/31 18/53/31
f 18/53/31 19/54/31 20/55/31
f 20/55/31 21/56/31 22/57/31
f 22/57/31 23/58/31 24/34/31
f 24/34/31 25/59/31 26/60/31
f 26/60/31 27/61/31 28/62/31
f 28/62/31 29/63/31 30/64/31
f 30/64/31 31/65/31 32/35/31
f 32/35/31 2/38/31 4/40/31
f 4/40/31 6/42/31 8/44/31
f 8/44/31 10/46/31 12/48/31
f 12/48/31 14/50/31 16/33/31
f 16/33/31 18/53/31 20/55/31
f 20/55/31 22/57/31 24/34/31
f 24/34/31 26/60/31 28/62/31
f 28/62/31 30/64/31 32/35/31
f 32/35/31 4/40/31 8/44/31
f 8/44/31 12/48/31 16/33/31
f 16/33/31 20/55/31 24/34/31
f 24/34/31 28/62/31 32/35/31
f 32/35/31 8/44/31 16/33/31
