# Blender 4.1.1
# www.blender.org
mtllib @column.007.mtl
o column.002
v 1.532744 4.058013 18.925821
v 1.532744 5.108013 18.925821
v -0.967256 4.058013 18.925821
v -0.967256 5.108013 18.925821
v 1.782744 4.058013 21.675821
v 1.532744 4.058013 21.925821
v 1.782744 5.108013 21.675821
v 1.532744 5.108013 21.925821
v -0.967256 4.058013 21.925821
v -1.217256 4.058013 21.675821
v -1.217256 4.058013 19.175821
v 1.782744 4.058013 19.175821
v -0.967256 5.108013 21.925821
v -1.217256 5.108013 21.675821
v 1.782744 5.108013 19.175821
v -1.217256 5.108013 19.175821
v 1.532743 -1.891988 18.925821
v 1.782743 -1.891988 19.175821
v 1.532743 -0.841987 18.925821
v 1.782743 -0.841987 19.175821
v -1.217257 -1.891987 19.175821
v -0.967257 -1.891987 18.925821
v -1.217257 -0.841987 19.175821
v -0.967257 -0.841987 18.925821
v -0.967256 -1.891987 21.925821
v -1.217256 -1.891987 21.675821
v -0.967256 -0.841987 21.925821
v -1.217256 -0.841987 21.675821
v 1.782744 -1.891988 21.675821
v 1.782744 -0.841987 21.675821
v 1.532744 -0.841987 21.925821
v 1.532744 -1.891988 21.925821
v 1.282744 3.068063 19.056643
v 1.282744 3.563038 18.910196
v -0.717256 3.068063 19.056643
v -0.717256 3.563038 18.910196
v -0.717256 3.068063 19.763750
v 1.282744 3.068063 19.763750
v -0.717256 2.863038 19.410196
v 1.282744 2.863038 19.410196
v -0.717256 2.863038 21.410196
v 1.282744 2.863038 21.410196
v -0.717256 3.068063 21.056643
v 1.282744 3.068063 21.056643
v 1.282744 3.563038 20.910196
v -0.717256 3.563038 20.910196
v 1.282744 4.058013 21.763750
v 1.282744 3.563038 21.910196
v -0.717256 4.058013 21.763750
v -0.717256 3.563038 21.910196
v 1.282744 4.058013 19.056643
v -0.717256 4.058013 19.056643
v -0.717256 3.068063 21.763750
v 1.282744 3.068063 21.763750
v -0.717256 3.563038 19.910196
v 1.282744 3.563038 19.910196
v 1.429190 -0.141988 21.675821
v -0.863703 -0.141987 21.675821
v 1.532744 -0.141988 21.572268
v -0.967256 -0.141987 21.572268
v 1.532743 -0.141988 19.279375
v -0.967257 -0.141987 19.279375
v 1.429190 -0.141988 19.175821
v -0.863703 -0.141987 19.175821
v -0.863703 -0.841987 19.175821
v -0.967257 -0.841987 19.279375
v 1.429190 -0.841987 19.175821
v 1.532743 -0.841987 19.279375
v -0.863703 -0.841987 21.675821
v -0.967256 -0.841987 21.572268
v 1.429190 -0.841987 21.675821
v 1.532744 -0.841987 21.572268
v -0.046761 -0.141987 19.614700
v -0.046761 4.058013 19.614700
v -0.313878 -0.141987 19.614702
v -0.313878 4.058013 19.614702
v -0.512751 -0.141987 20.080692
v -0.512751 -0.141987 19.813576
v -0.512751 4.058013 20.080692
v -0.512751 4.058013 19.813576
v 0.879365 -0.141987 19.614700
v 1.078238 -0.141988 19.813574
v 0.879365 4.058013 19.614700
v 1.078239 4.058013 19.813574
v 0.612248 -0.141987 19.614700
v 0.612249 4.058013 19.614700
v 1.078238 -0.141988 20.080692
v 1.078239 4.058013 20.080692
v 1.078239 -0.141988 20.739700
v 1.078239 -0.141988 21.006817
v 1.078239 4.058013 20.739700
v 1.078239 4.058013 21.006817
v 0.879366 4.058013 21.205690
v 0.879365 -0.141987 21.205690
v -0.313878 -0.141987 21.205692
v -0.512751 -0.141987 21.006819
v -0.313878 4.058013 21.205692
v -0.512751 4.058013 21.006819
v -0.512751 -0.141987 20.739700
v -0.512751 4.058013 20.739700
v -0.046761 4.058013 21.205692
v -0.046761 -0.141987 21.205692
v 0.612249 4.058013 21.205692
v 0.612248 -0.141987 21.205692
v 1.267119 -0.141988 20.269571
v 1.267119 4.058013 20.269571
v -0.701631 -0.141987 20.550821
v -0.701631 -0.141987 20.269571
v -0.701631 4.058013 20.550821
v -0.701631 4.058013 20.269571
v 0.142119 -0.141987 21.394571
v 0.142119 4.058013 21.394571
v 0.423369 -0.141987 19.425821
v 0.423369 4.058013 19.425821
v 0.423369 4.058013 21.394571
v 0.423369 -0.141987 21.394571
v 0.142119 -0.141987 19.425821
v 0.142119 4.058013 19.425821
v 1.267119 4.058013 20.550821
v 1.267119 -0.141988 20.550821
vn -0.3821 -0.0213 -0.9239
vn 0.3824 0.0127 -0.9239
vn 0.3827 -0.0000 -0.9239
vn 0.3821 0.0213 -0.9239
vn -0.3824 -0.0127 -0.9239
vn -0.3827 -0.0000 -0.9239
vn 0.9237 0.0119 0.3828
vn 0.3834 -0.0270 0.9232
vn 0.9239 -0.0000 0.3827
vn 0.3828 -0.0119 0.9237
vn 0.9232 0.0270 0.3834
vn 0.3827 -0.0000 0.9239
vn -0.0000 -1.0000 -0.0000
vn -0.3821 0.0213 0.9239
vn 0.3824 -0.0127 0.9239
vn 0.3821 -0.0213 0.9239
vn -0.3824 0.0127 0.9239
vn -0.3827 -0.0000 0.9239
vn -0.3828 0.0119 0.9237
vn -0.9232 -0.0270 0.3834
vn -0.9237 -0.0119 0.3828
vn -0.3834 0.0270 0.9232
vn -0.9239 -0.0000 0.3827
vn 0.9239 0.0128 -0.3824
vn 0.9239 -0.0213 0.3821
vn 0.9239 -0.0000 -0.3827
vn 0.9239 -0.0128 0.3824
vn 0.9239 0.0213 -0.3821
vn 0.3828 0.0119 -0.9237
vn 0.9232 -0.0270 -0.3834
vn 0.9237 -0.0119 -0.3828
vn 0.3834 0.0270 -0.9232
vn -0.0000 1.0000 -0.0000
vn -0.9237 0.0119 -0.3828
vn -0.3834 -0.0270 -0.9232
vn -0.9239 -0.0000 -0.3827
vn -0.3828 -0.0119 -0.9237
vn -0.9232 0.0270 -0.3834
vn -0.9239 0.0128 0.3824
vn -0.9239 -0.0213 -0.3821
vn -0.9239 -0.0128 -0.3824
vn -0.9239 0.0213 0.3821
vn 0.9232 -0.0269 -0.3834
vn -0.9232 0.0269 -0.3834
vn -0.9232 -0.0269 0.3834
vn 0.9232 0.0269 0.3834
vn 0.0063 -0.6290 -0.7774
vn -0.0156 0.1045 -0.9944
vn -0.0000 -0.6290 -0.7774
vn -0.0063 0.1048 -0.9945
vn 0.0156 -0.6287 -0.7775
vn -0.0000 0.1048 -0.9945
vn 0.0031 -0.9912 0.1325
vn -0.0012 -0.6073 0.7945
vn -0.0000 -0.6073 0.7945
vn -0.0031 -0.6073 0.7945
vn 0.0012 -0.9912 0.1325
vn -0.0001 -0.9912 0.1325
vn 0.0031 -0.6073 -0.7945
vn -0.0012 -0.9912 -0.1325
vn 0.0002 -0.9912 -0.1325
vn -0.0031 -0.9912 -0.1325
vn 0.0012 -0.6073 -0.7945
vn -0.0000 -0.6073 -0.7945
vn -0.0000 -0.7686 -0.6397
vn 0.0272 -0.7680 -0.6399
vn -0.0000 0.2837 0.9589
vn -0.0157 -0.1045 0.9944
vn -0.0063 -0.1048 0.9945
vn -0.0000 -0.1048 0.9945
vn 0.0063 -0.1048 -0.9945
vn -0.0000 0.2837 -0.9589
vn -0.0000 -0.1048 -0.9945
vn 0.0156 -0.1045 -0.9944
vn -0.0000 -0.9912 -0.1325
vn -0.0001 -0.6073 -0.7945
vn -0.0000 -0.9912 0.1325
vn -1.0000 -0.0000 -0.0000
vn -0.0272 -0.7680 0.6399
vn -0.0156 -0.6287 0.7775
vn -0.0000 -0.7686 0.6397
vn -0.0063 -0.6290 0.7774
vn -0.0000 -0.7687 0.6397
vn -0.0000 -0.6290 0.7774
vn 0.0063 0.1048 0.9945
vn -0.0000 0.1048 0.9945
vn 0.0157 0.1045 0.9944
vn -0.0000 -0.8315 0.5556
vn -0.0000 -0.8315 -0.5556
vn 1.0000 -0.0000 -0.0000
vn -0.9235 -0.0189 -0.3830
vn -0.3828 0.0079 -0.9238
vn -0.3830 0.0189 -0.9235
vn -0.9238 -0.0079 -0.3828
vn 0.3828 0.0079 -0.9238
vn 0.9235 -0.0189 -0.3830
vn 0.9238 -0.0079 -0.3828
vn 0.3830 0.0189 -0.9235
vn -0.3823 -0.0162 -0.9239
vn 0.3825 0.0099 -0.9239
vn 0.3823 0.0162 -0.9239
vn -0.3825 -0.0099 -0.9239
vn -0.3828 0.0079 0.9238
vn -0.9235 -0.0189 0.3830
vn -0.9238 -0.0079 0.3828
vn -0.3830 0.0189 0.9235
vn -0.3823 0.0162 0.9239
vn 0.3825 -0.0099 0.9239
vn 0.3823 -0.0162 0.9239
vn -0.3825 0.0099 0.9239
vn 0.9239 0.0100 -0.3825
vn 0.9239 -0.0162 0.3823
vn 0.9239 -0.0100 0.3825
vn 0.9239 0.0162 -0.3823
vn -0.9239 0.0100 0.3825
vn -0.9239 -0.0162 -0.3823
vn -0.9239 -0.0100 -0.3825
vn -0.9239 0.0162 0.3823
vn 0.3830 0.0189 0.9235
vn 0.9238 -0.0079 0.3828
vn 0.9235 -0.0189 0.3830
vn 0.3828 0.0079 0.9238
vn -0.3826 -0.0063 -0.9239
vn -0.0000 -0.0000 -1.0000
vn -0.3826 -0.0024 -0.9239
vn -0.9239 -0.0063 -0.3826
vn -0.9239 -0.0024 -0.3826
vn 0.3827 0.0025 -0.9239
vn 0.9238 -0.0065 -0.3828
vn 0.9239 -0.0025 -0.3827
vn 0.3828 0.0067 -0.9238
vn -0.9238 -0.0066 -0.3828
vn -0.3827 0.0026 -0.9239
vn -0.3828 0.0066 -0.9238
vn -0.9239 -0.0026 -0.3827
vn 0.3826 0.0024 -0.9239
vn 0.3826 0.0063 -0.9239
vn 0.9239 0.0024 -0.3826
vn 0.9239 0.0063 -0.3826
vn 0.9239 -0.0063 0.3826
vn 0.9239 -0.0024 0.3826
vn 0.3828 0.0066 0.9238
vn 0.9239 -0.0026 0.3827
vn 0.9238 -0.0066 0.3828
vn 0.3827 0.0026 0.9239
vn -0.3827 0.0025 0.9239
vn -0.9238 -0.0065 0.3828
vn -0.9239 -0.0025 0.3827
vn -0.3828 0.0067 0.9238
vn -0.9239 0.0024 0.3826
vn -0.9239 0.0063 0.3826
vn -0.3826 0.0063 0.9239
vn -0.0000 -0.0000 1.0000
vn -0.3826 0.0024 0.9239
vn 0.3826 -0.0024 0.9239
vn 0.3826 -0.0063 0.9239
vn 0.7071 -0.0000 -0.7071
vn 0.9238 -0.0063 -0.3828
vn 0.9239 -0.0024 -0.3827
vn -0.9239 0.0025 0.3826
vn -0.9239 -0.0067 -0.3826
vn -0.9239 -0.0025 -0.3826
vn -0.9239 0.0067 0.3826
vn -0.9239 -0.0000 -0.3826
vn -0.3827 0.0024 0.9239
vn -0.7071 -0.0000 0.7071
vn -0.3828 0.0063 0.9238
vn 0.3827 0.0024 -0.9239
vn 0.3828 0.0063 -0.9238
vn 0.3828 0.0063 0.9238
vn 0.7071 -0.0000 0.7071
vn 0.3827 0.0024 0.9239
vn 0.3827 0.0001 0.9239
vn -0.7071 -0.0000 -0.7071
vn -0.3827 0.0024 -0.9239
vn -0.3827 0.0001 -0.9239
vn -0.3828 0.0063 -0.9238
vn -0.3826 -0.0066 -0.9239
vn 0.3826 0.0026 -0.9239
vn 0.3826 0.0066 -0.9239
vn -0.3826 -0.0026 -0.9239
vn 0.9239 -0.0024 0.3827
vn 0.9238 -0.0063 0.3828
vn 0.9239 0.0025 -0.3826
vn 0.9239 -0.0067 0.3826
vn 0.9239 -0.0025 0.3826
vn 0.9239 0.0067 -0.3826
vn -0.9238 -0.0063 -0.3828
vn -0.9239 -0.0024 -0.3827
vn -0.9238 -0.0063 0.3828
vn -0.9239 -0.0024 0.3827
vn -0.3826 0.0066 0.9239
vn 0.3826 -0.0026 0.9239
vn 0.3826 -0.0066 0.9239
vn -0.3826 0.0026 0.9239
vt 0.093750 0.025000
vt 0.093750 0.225000
vt 0.968750 0.042157
vt 0.968750 0.083579
vt 0.968750 0.025000
vt 0.968750 0.125000
vt 0.968750 0.225000
s 0
usemtl colormap.002
f 3/1/1 2/2/2 1/1/3
f 2/2/4 3/1/5 4/2/6
f 7/2/7 6/1/8 5/1/9
f 6/1/10 7/2/11 8/2/12
f 10/1/13 6/1/13 9/1/13
f 6/1/13 10/1/13 5/1/13
f 5/1/13 10/1/13 11/1/13
f 5/1/13 11/1/13 12/1/13
f 12/1/13 11/1/13 3/1/13
f 12/1/13 3/1/13 1/1/13
f 13/2/14 6/1/15 8/2/12
f 6/1/16 13/2/17 9/1/18
f 13/2/19 10/1/20 9/1/18
f 10/1/21 13/2/22 14/2/23
f 15/2/24 5/1/25 12/1/26
f 5/1/27 15/2/28 7/2/9
f 2/2/29 12/1/30 1/1/3
f 12/1/31 2/2/32 15/2/26
f 7/2/33 13/2/33 8/2/33
f 13/2/33 7/2/33 14/2/33
f 14/2/33 7/2/33 15/2/33
f 14/2/33 15/2/33 16/2/33
f 16/2/33 15/2/33 2/2/33
f 16/2/33 2/2/33 4/2/33
f 16/2/34 3/1/35 11/1/36
f 3/1/37 16/2/38 4/2/6
f 14/2/39 11/1/40 10/1/23
f 11/1/41 14/2/42 16/2/36
f 19/2/29 18/1/43 17/1/3
f 18/1/31 19/2/32 20/2/26
f 23/2/34 22/1/35 21/1/36
f 22/1/37 23/2/44 24/2/6
f 27/2/19 26/1/45 25/1/18
f 26/1/21 27/2/22 28/2/23
f 20/2/24 29/1/25 18/1/26
f 29/1/27 20/2/28 30/2/9
f 27/2/14 32/1/15 31/2/12
f 32/1/16 27/2/17 25/1/18
f 30/2/33 27/2/33 31/2/33
f 27/2/33 30/2/33 28/2/33
f 28/2/33 30/2/33 20/2/33
f 28/2/33 20/2/33 23/2/33
f 23/2/33 20/2/33 19/2/33
f 23/2/33 19/2/33 24/2/33
f 26/1/13 32/1/13 25/1/13
f 32/1/13 26/1/13 29/1/13
f 29/1/13 26/1/13 21/1/13
f 29/1/13 21/1/13 18/1/13
f 18/1/13 21/1/13 22/1/13
f 18/1/13 22/1/13 17/1/13
f 22/1/1 19/2/2 17/1/3
f 19/2/4 22/1/5 24/2/6
f 30/2/7 32/1/8 29/1/9
f 32/1/10 30/2/46 31/2/12
f 28/2/39 21/1/40 26/1/23
f 21/1/41 28/2/42 23/2/36
f 35/3/47 34/4/48 33/3/49
f 34/4/50 35/3/51 36/4/52
f 39/5/53 38/3/54 37/3/55
f 38/3/56 39/5/57 40/5/58
f 43/3/59 42/5/60 41/5/61
f 42/5/62 43/3/63 44/3/64
f 43/3/47 45/4/65 44/3/49
f 45/4/66 43/3/51 46/4/65
f 49/6/67 48/4/68 47/6/67
f 48/4/69 49/6/67 50/4/70
f 36/4/71 51/6/72 34/4/73
f 51/6/72 36/4/74 52/6/72
f 35/3/59 40/5/60 39/5/75
f 40/5/62 35/3/63 33/3/76
f 41/5/53 54/3/54 53/3/55
f 54/3/56 41/5/57 42/5/77
f 53/3/78 43/3/78 41/5/78
f 43/3/78 53/3/78 50/4/78
f 43/3/78 50/4/78 46/4/78
f 46/4/78 50/4/78 49/6/78
f 46/4/78 49/6/78 55/4/78
f 55/4/78 49/6/78 36/4/78
f 36/4/78 49/6/78 52/6/78
f 35/3/78 55/4/78 36/4/78
f 35/3/78 37/3/78 55/4/78
f 37/3/78 35/3/78 39/5/78
f 55/4/79 38/3/80 56/4/81
f 38/3/82 55/4/83 37/3/84
f 50/4/85 54/3/80 48/4/86
f 54/3/82 50/4/87 53/3/84
f 55/4/88 45/4/89 46/4/89
f 45/4/89 55/4/88 56/4/88
f 33/3/90 38/3/90 40/5/90
f 38/3/90 33/3/90 34/4/90
f 38/3/90 34/4/90 56/4/90
f 56/4/90 34/4/90 51/6/90
f 56/4/90 51/6/90 45/4/90
f 45/4/90 51/6/90 48/4/90
f 48/4/90 51/6/90 47/6/90
f 54/3/90 45/4/90 48/4/90
f 54/3/90 44/3/90 45/4/90
f 44/3/90 54/3/90 42/5/90
f 59/6/33 58/6/33 57/6/33
f 58/6/33 59/6/33 60/6/33
f 60/6/33 59/6/33 61/6/33
f 60/6/33 61/6/33 62/6/33
f 62/6/33 61/6/33 63/6/33
f 62/6/33 63/6/33 64/6/33
f 66/5/91 64/6/92 65/5/6
f 64/6/93 66/5/94 62/6/36
f 63/6/95 68/5/96 67/5/3
f 68/5/97 63/6/98 61/6/26
f 65/5/99 63/6/100 67/5/3
f 63/6/101 65/5/102 64/6/6
f 58/6/103 70/5/104 69/5/18
f 70/5/105 58/6/106 60/6/23
f 58/6/107 71/5/108 57/6/12
f 71/5/109 58/6/110 69/5/18
f 61/6/111 72/5/112 68/5/26
f 72/5/113 61/6/114 59/6/9
f 60/6/115 66/5/116 70/5/23
f 66/5/117 60/6/118 62/6/36
f 57/6/119 72/5/120 59/6/9
f 72/5/121 57/6/122 71/5/12
f 75/7/123 74/5/124 73/7/124
f 74/5/124 75/7/125 76/5/6
f 79/5/78 78/7/126 77/7/78
f 78/7/127 79/5/78 80/5/36
f 83/5/128 82/7/129 81/7/3
f 82/7/130 83/5/131 84/5/26
f 78/7/132 76/5/133 75/7/6
f 76/5/134 78/7/135 80/5/36
f 85/7/124 83/5/136 81/7/3
f 83/5/137 85/7/124 86/5/124
f 84/5/138 87/7/90 82/7/26
f 87/7/90 84/5/139 88/5/90
f 91/5/90 90/7/140 89/7/90
f 90/7/141 91/5/90 92/5/9
f 93/5/142 90/7/143 92/5/9
f 90/7/144 93/5/145 94/7/12
f 97/5/146 96/7/147 95/7/18
f 96/7/148 97/5/149 98/5/23
f 98/5/150 99/7/78 96/7/23
f 99/7/78 98/5/151 100/5/78
f 97/5/152 102/7/153 101/5/153
f 102/7/153 97/5/154 95/7/18
f 103/5/153 94/7/155 93/5/12
f 94/7/156 103/5/153 104/7/153
f 88/5/157 105/6/158 87/6/157
f 105/6/159 88/5/157 106/5/26
f 109/5/160 108/6/161 107/6/23
f 108/6/162 109/5/163 110/5/164
f 112/5/165 102/6/166 111/6/18
f 102/6/166 112/5/167 101/5/166
f 114/5/168 85/6/157 113/6/3
f 85/6/157 114/5/169 86/5/157
f 115/5/170 104/6/171 103/5/171
f 104/6/171 115/5/172 116/6/173
f 73/6/174 118/5/175 117/6/176
f 118/5/177 73/6/174 74/5/174
f 117/6/178 114/5/179 113/6/3
f 114/5/180 117/6/181 118/5/6
f 91/5/171 120/6/182 119/5/9
f 120/6/183 91/5/171 89/6/171
f 106/5/184 120/6/185 105/6/26
f 120/6/186 106/5/187 119/5/9
f 108/6/188 79/5/174 77/6/174
f 79/5/174 108/6/189 110/5/36
f 100/5/166 107/6/190 99/6/166
f 107/6/191 100/5/166 109/5/23
f 112/5/192 116/6/193 115/5/12
f 116/6/194 112/5/195 111/6/18
f 3/1/1 2/2/2 1/1/3
f 2/2/4 3/1/5 4/2/6
f 7/2/7 6/1/8 5/1/9
f 6/1/10 7/2/11 8/2/12
f 10/1/13 6/1/13 9/1/13
f 6/1/13 10/1/13 5/1/13
f 5/1/13 10/1/13 11/1/13
f 5/1/13 11/1/13 12/1/13
f 12/1/13 11/1/13 3/1/13
f 12/1/13 3/1/13 1/1/13
f 13/2/14 6/1/15 8/2/12
f 6/1/16 13/2/17 9/1/18
f 13/2/19 10/1/20 9/1/18
f 10/1/21 13/2/22 14/2/23
f 15/2/24 5/1/25 12/1/26
f 5/1/27 15/2/28 7/2/9
f 2/2/29 12/1/30 1/1/3
f 12/1/31 2/2/32 15/2/26
f 7/2/33 13/2/33 8/2/33
f 13/2/33 7/2/33 14/2/33
f 14/2/33 7/2/33 15/2/33
f 14/2/33 15/2/33 16/2/33
f 16/2/33 15/2/33 2/2/33
f 16/2/33 2/2/33 4/2/33
f 16/2/34 3/1/35 11/1/36
f 3/1/37 16/2/38 4/2/6
f 14/2/39 11/1/40 10/1/23
f 11/1/41 14/2/42 16/2/36
f 19/2/29 18/1/43 17/1/3
f 18/1/31 19/2/32 20/2/26
f 23/2/34 22/1/35 21/1/36
f 22/1/37 23/2/44 24/2/6
f 27/2/19 26/1/45 25/1/18
f 26/1/21 27/2/22 28/2/23
f 20/2/24 29/1/25 18/1/26
f 29/1/27 20/2/28 30/2/9
f 27/2/14 32/1/15 31/2/12
f 32/1/16 27/2/17 25/1/18
f 30/2/33 27/2/33 31/2/33
f 27/2/33 30/2/33 28/2/33
f 28/2/33 30/2/33 20/2/33
f 28/2/33 20/2/33 23/2/33
f 23/2/33 20/2/33 19/2/33
f 23/2/33 19/2/33 24/2/33
f 26/1/13 32/1/13 25/1/13
f 32/1/13 26/1/13 29/1/13
f 29/1/13 26/1/13 21/1/13
f 29/1/13 21/1/13 18/1/13
f 18/1/13 21/1/13 22/1/13
f 18/1/13 22/1/13 17/1/13
f 22/1/1 19/2/2 17/1/3
f 19/2/4 22/1/5 24/2/6
f 30/2/7 32/1/8 29/1/9
f 32/1/10 30/2/46 31/2/12
f 28/2/39 21/1/40 26/1/23
f 21/1/41 28/2/42 23/2/36
f 35/3/47 34/4/48 33/3/49
f 34/4/50 35/3/51 36/4/52
f 39/5/53 38/3/54 37/3/55
f 38/3/56 39/5/57 40/5/58
f 43/3/59 42/5/60 41/5/61
f 42/5/62 43/3/63 44/3/64
f 43/3/47 45/4/65 44/3/49
f 45/4/66 43/3/51 46/4/65
f 49/6/67 48/4/68 47/6/67
f 48/4/69 49/6/67 50/4/70
f 36/4/71 51/6/72 34/4/73
f 51/6/72 36/4/74 52/6/72
f 35/3/59 40/5/60 39/5/75
f 40/5/62 35/3/63 33/3/76
f 41/5/53 54/3/54 53/3/55
f 54/3/56 41/5/57 42/5/77
f 53/3/78 43/3/78 41/5/78
f 43/3/78 53/3/78 50/4/78
f 43/3/78 50/4/78 46/4/78
f 46/4/78 50/4/78 49/6/78
f 46/4/78 49/6/78 55/4/78
f 55/4/78 49/6/78 36/4/78
f 36/4/78 49/6/78 52/6/78
f 35/3/78 55/4/78 36/4/78
f 35/3/78 37/3/78 55/4/78
f 37/3/78 35/3/78 39/5/78
f 55/4/79 38/3/80 56/4/81
f 38/3/82 55/4/83 37/3/84
f 50/4/85 54/3/80 48/4/86
f 54/3/82 50/4/87 53/3/84
f 55/4/88 45/4/89 46/4/89
f 45/4/89 55/4/88 56/4/88
f 33/3/90 38/3/90 40/5/90
f 38/3/90 33/3/90 34/4/90
f 38/3/90 34/4/90 56/4/90
f 56/4/90 34/4/90 51/6/90
f 56/4/90 51/6/90 45/4/90
f 45/4/90 51/6/90 48/4/90
f 48/4/90 51/6/90 47/6/90
f 54/3/90 45/4/90 48/4/90
f 54/3/90 44/3/90 45/4/90
f 44/3/90 54/3/90 42/5/90
f 59/6/33 58/6/33 57/6/33
f 58/6/33 59/6/33 60/6/33
f 60/6/33 59/6/33 61/6/33
f 60/6/33 61/6/33 62/6/33
f 62/6/33 61/6/33 63/6/33
f 62/6/33 63/6/33 64/6/33
f 66/5/91 64/6/92 65/5/6
f 64/6/93 66/5/94 62/6/36
f 63/6/95 68/5/96 67/5/3
f 68/5/97 63/6/98 61/6/26
f 65/5/99 63/6/100 67/5/3
f 63/6/101 65/5/102 64/6/6
f 58/6/103 70/5/104 69/5/18
f 70/5/105 58/6/106 60/6/23
f 58/6/107 71/5/108 57/6/12
f 71/5/109 58/6/110 69/5/18
f 61/6/111 72/5/112 68/5/26
f 72/5/113 61/6/114 59/6/9
f 60/6/115 66/5/116 70/5/23
f 66/5/117 60/6/118 62/6/36
f 57/6/119 72/5/120 59/6/9
f 72/5/121 57/6/122 71/5/12
f 75/7/123 74/5/124 73/7/124
f 74/5/124 75/7/125 76/5/6
f 79/5/78 78/7/126 77/7/78
f 78/7/127 79/5/78 80/5/36
f 83/5/128 82/7/129 81/7/3
f 82/7/130 83/5/131 84/5/26
f 78/7/132 76/5/133 75/7/6
f 76/5/134 78/7/135 80/5/36
f 85/7/124 83/5/136 81/7/3
f 83/5/137 85/7/124 86/5/124
f 84/5/138 87/7/90 82/7/26
f 87/7/90 84/5/139 88/5/90
f 91/5/90 90/7/140 89/7/90
f 90/7/141 91/5/90 92/5/9
f 93/5/142 90/7/143 92/5/9
f 90/7/144 93/5/145 94/7/12
f 97/5/146 96/7/147 95/7/18
f 96/7/148 97/5/149 98/5/23
f 98/5/150 99/7/78 96/7/23
f 99/7/78 98/5/151 100/5/78
f 97/5/152 102/7/153 101/5/153
f 102/7/153 97/5/154 95/7/18
f 103/5/153 94/7/155 93/5/12
f 94/7/156 103/5/153 104/7/153
f 88/5/157 105/6/158 87/6/157
f 105/6/159 88/5/157 106/5/26
f 109/5/160 108/6/161 107/6/23
f 108/6/162 109/5/163 110/5/164
f 112/5/165 102/6/166 111/6/18
f 102/6/166 112/5/167 101/5/166
f 114/5/168 85/6/157 113/6/3
f 85/6/157 114/5/169 86/5/157
f 115/5/170 104/6/171 103/5/171
f 104/6/171 115/5/172 116/6/173
f 73/6/174 118/5/175 117/6/176
f 118/5/177 73/6/174 74/5/174
f 117/6/178 114/5/179 113/6/3
f 114/5/180 117/6/181 118/5/6
f 91/5/171 120/6/182 119/5/9
f 120/6/183 91/5/171 89/6/171
f 106/5/184 120/6/185 105/6/26
f 120/6/186 106/5/187 119/5/9
f 108/6/188 79/5/174 77/6/174
f 79/5/174 108/6/189 110/5/36
f 100/5/166 107/6/190 99/6/166
f 107/6/191 100/5/166 109/5/23
f 112/5/192 116/6/193 115/5/12
f 116/6/194 112/5/195 111/6/18
